/* XPM */
static char *_[] = {
/* columns rows colors chars-per-pixel */
"64 64 232 2 ",
"   c #000000",
".  c #0A0606",
"X  c #090807",
"o  c #0C0A0A",
"O  c #150A08",
"+  c #140D0C",
"@  c #19100E",
"#  c #151413",
"$  c #1C1514",
"%  c #1D1C1C",
"&  c #28120D",
"*  c #261715",
"=  c #241D1B",
"-  c #391B16",
";  c #3D271F",
":  c #242323",
">  c #2B2624",
",  c #2C2B2A",
"<  c #362926",
"1  c #322E2D",
"2  c #36312F",
"3  c #3A3534",
"4  c #3D3C3C",
"5  c #451D15",
"6  c #78150F",
"7  c #7C160F",
"8  c #46241D",
"9  c #542319",
"0  c #73281B",
"q  c #50342F",
"w  c #4B3A36",
"e  c #413D3C",
"r  c #6C372A",
"t  c #7E3128",
"y  c #643C37",
"u  c #43403F",
"i  c #71443A",
"p  c #454444",
"a  c #4A4747",
"s  c #504E4E",
"d  c #555353",
"f  c #585657",
"g  c #5C5B5B",
"h  c #674C45",
"j  c #75524D",
"k  c #745550",
"l  c #666363",
"z  c #6C6A6A",
"x  c #737272",
"c  c #7B7A7A",
"v  c #8C0603",
"b  c #8B0A06",
"n  c #8B0C08",
"m  c #980905",
"M  c #87150E",
"N  c #97110E",
"B  c #861A11",
"V  c #9B1914",
"C  c #AF1C0C",
"Z  c #862519",
"A  c #97261B",
"S  c #A42417",
"D  c #AF2C18",
"F  c #BB3519",
"G  c #882A21",
"H  c #843227",
"J  c #983728",
"K  c #963E33",
"L  c #A43A25",
"P  c #A9352A",
"I  c #B53925",
"U  c #D11E09",
"Y  c #CC220D",
"T  c #D1230C",
"R  c #DD270C",
"E  c #CB2A14",
"W  c #D32B13",
"Q  c #D62C14",
"!  c #C7381A",
"~  c #DB3414",
"^  c #D83616",
"/  c #D3351B",
"(  c #D53B1C",
")  c #DB3C1A",
"_  c #E2240A",
"`  c #E52A0E",
"'  c #E92B0D",
"]  c #E42E10",
"[  c #E63718",
"{  c #CA3B21",
"}  c #D73B20",
"|  c #D43D22",
" . c #BF411F",
".. c #8E453B",
"X. c #A9472E",
"o. c #B5432B",
"O. c #AA4433",
"+. c #B94837",
"@. c #A05137",
"#. c #DC421E",
"$. c #E2451B",
"%. c #E6471A",
"&. c #E54B1E",
"*. c #EA521D",
"=. c #CA462A",
"-. c #D64224",
";. c #DA4424",
":. c #D74A27",
">. c #DC4A25",
",. c #D5452B",
"<. c #D94629",
"1. c #DC4B2B",
"2. c #D8522A",
"3. c #DE512D",
"4. c #C94935",
"5. c #D64B34",
"6. c #D74C35",
"7. c #C5593C",
"8. c #DD5435",
"9. c #D5523D",
"0. c #D8583D",
"q. c #E14423",
"w. c #E44C23",
"e. c #E74A29",
"r. c #E65225",
"t. c #E95424",
"y. c #EC5A25",
"u. c #E4542B",
"i. c #E85629",
"p. c #E7582C",
"a. c #E95B2C",
"s. c #F05A2D",
"d. c #E25532",
"f. c #E45A34",
"g. c #EA5F31",
"h. c #E65B39",
"j. c #DA633C",
"k. c #EE622C",
"l. c #EB6234",
"z. c #E86538",
"x. c #EB6539",
"c. c #EC6A3D",
"v. c #F16C36",
"b. c #F4773C",
"n. c #83534B",
"m. c #955245",
"M. c #AF5146",
"N. c #AB5747",
"B. c #BA5847",
"V. c #8A645D",
"C. c #95635D",
"Z. c #AD6A57",
"A. c #B86859",
"S. c #956F63",
"D. c #92736B",
"F. c #B86E66",
"G. c #A7756C",
"H. c #BC776C",
"J. c #A67E72",
"K. c #BE7B73",
"L. c #C85444",
"P. c #D75641",
"I. c #D75945",
"U. c #D65C4A",
"Y. c #C86643",
"T. c #DB6745",
"R. c #C66A5B",
"E. c #D76353",
"W. c #DB6852",
"Q. c #D7695A",
"!. c #D86A5B",
"~. c #C4735C",
"^. c #D9785C",
"/. c #EC6D42",
"(. c #EB6845",
"). c #EE7348",
"_. c #ED734B",
"`. c #F27947",
"'. c #E87453",
"]. c #EE7A53",
"[. c #EE7E5A",
"{. c #F17F55",
"}. c #DB6F61",
"|. c #C47666",
" X c #DD7669",
".X c #DC7769",
"XX c #C27D74",
"oX c #DF7E72",
"OX c #81807F",
"+X c #AA8278",
"@X c #F5824E",
"#X c #EF815D",
"$X c #F58453",
"%X c #F2845C",
"&X c #F48A5D",
"*X c #D4886E",
"=X c #CA8379",
"-X c #DB8577",
";X c #EE8461",
":X c #E98868",
">X c #F08663",
",X c #F28B64",
"<X c #F18D6C",
"1X c #F49067",
"2X c #F4936D",
"3X c #E38574",
"4X c #E49679",
"5X c #F39573",
"6X c #F49875",
"7X c #F29679",
"8X c #F49B7C",
"9X c #848384",
"0X c #8F8F90",
"qX c #959494",
"wX c #B19892",
"eX c #B2ACAB",
"rX c #C89388",
"tX c #E69C88",
"yX c #F39E82",
"uX c #DBA291",
"iX c #F4A185",
"pX c #F4A38A",
"aX c #F9A688",
"sX c #E8A892",
"dX c #EAAA97",
"fX c #F5AA92",
"gX c #F9AC92",
"hX c #F5AE99",
"jX c #F5B29D",
"kX c #FAB29B",
"lX c #C1AEAB",
"zX c #C4C4C4",
/* pixels */
"                                                                                                                                ",
"                                                                                                                                ",
"                                                                                                                                ",
"                                                                                                                                ",
"                                                                                                                                ",
"                                                                                                                                ",
"                                    . # , X                                         . $ # o                                     ",
"                                . # , g a                                             : 3 4 ,                                   ",
"                                : , f z $                                             + q 4 g u .                               ",
"                              : 3 u c d .                                               < 3 d 9X3                               ",
"                            X 4 4 f 9Xu                   . o # @ + .                   > w u 9XOXo                             ",
"                            % d 4 g qXa             + 8 h Z.A.~.~.A.Z.j q #             2 u u x qX,                             ",
"                            : a 3 f qXz o   4 d : y A.^.(.c.l.l.v.v.c.$X:X|.h = f 4   o 4 e e x 0X3                             ",
"                            : p 1 u x x a 4 OXwX|.W.f.w.&.*.*.*.*.y.k.v.v.@X,X*XJ.x u 1 , 2 p x OX,                             ",
"                            # 4 , 1 p d 3 a wXoX1.#.%.%.%.*.*.y.k.k.l.b.b.`.@X$XT.z x 1 , e g x z %                             ",
"                            X e : : 1 1 1 z rX;.) $.%.%.*.t.y.k.k.v.c.`.%X,X2X2X&X4XeXx a g z l d o                             ",
"                              : 4 = : , x +X7.} #.w.r.u.t.i.a.k.l.c.).{.,X7XyXfXiX5X+XzXx l g g ,                               ",
"                              . 4 3 # g D.M.5.,.1.8.u.u.p.p.a.l.l.c.).[.<X8XtXhXhXaX#XlXeXf d p X                               ",
"                                o p s OX..4.P.5.8.8.f.f.p.a.a.l.l.c.).[.>X7XpXjXjXfX5X+XzXz a #                                 ",
"                                  % 0XJ.M.W.0.6.8.z.8.p.p.p.a.k.l.c./.].>X<XyXhXjXhXpX#XwXeX:                                   ",
"                                  : eXR.U.Q.0.3.8.8.f.u.u.i.a.a.k.z./.{.%X<XyXfXjXjXfX8X:XeX,                                   ",
"                                  X l -XR.K P 5.8.p.p.3.r.i.p.k.g.l.c.).[.<X7XpXsXtX=XtXdXl o                                   ",
"                                    = XX}.K t H J =.2.r.r.u.2.k.a.x.c.).[.>X:X-X=XrX=XiXdX<                                     ",
"                                    < =X}.L.G H t H J =.r.i.y.p.l.x.c._.'.R.H.+XrXH.*XiXkXu                                     ",
"                                    w tX!.P.I G H H t 0 L :.y.y.a.l.h.7.B.F.XXXXH.|.yX8XkXh                                     ",
"                                    h oXQ.P.,.A Z G G B 7 7  .k.a.2.+.M.A.F.K.F.N.tXyX8XkXk                                     ",
"                                    j oXE.9.5.| S Z G A B 6 7 2.p.I P @.B.A.A.M.-XaX8X6XgXV.                                    ",
"                                    j oXE.9.,.1.,.{ { F F F =.u.a.:.5.0.E.^.}.3XpXaX8X6XgXS.                                    ",
"                                    n.oXU.6.<.<.1.>.w.w.w.t.i.i.a.l.x./.].%X<X7XyXpXyX6XaXS.                                    ",
"                                    V. XU.6.,.<.<.>.>.&.&.w.t.i.a.p.x./._.%X<X7XyXiX8X2XaXS.                                    ",
"                                  . C. XI.5.,.<.;.) $.$.&.r.r.r.p.a.x./.].[.[.>XyXaX8X2X8X+X.                                   ",
"                O & O .           = XX}.P.5.,.<.) C E #.%.&.*.r.t.a.l./._.(.I 5.8XaX8X1X6XsX<           . O & O                 ",
"              O X.j.E.@.r 8 - - 9 M. XE.9.6.,.1.#.v 6 S E #.( F F ! :.:.+.J A E 7XpX6X1X6XgX Xr - - 8 r J o.2.A.$               ",
"              * =.f.2X{.z.8.| } Q ( 6.6.6.6.,.1.>.m 6 6 7 M M 7 7 M B B B M m { 8XpX6X,X,X6X,Xs.w.q.q.[ [ [ g.;X;               ",
"              @ P ) h.;X_.i.[ ~ [ Q W W | ,.-.1.l.C v v v b n b b n n v v v m d.yXpX6X,X@X@X,Xe.' ' ` ` R ~ t.Y.@               ",
"                q 5.) a.(.h.e.q.| | U U T / | ,.u.=.m m N N V S S S V N m m C [.yXaX6X$Xb.`.).q.[ ` ` R R [ f.r                 ",
"                + n.5.~ q.u.e.q.| Q U U T / / -.3.d.D V S D -.u.z.T.4.P S C I.5XpXyX8X%Xb.v.(.[ ` _ _ R Q d.m.O                 ",
"                  @ m.6./ Q ~ / / Q U Y E / ( -.1.u.r.>.>.u.a.k.l.c.'.'.W.(.>X6XyXpX6X&Xb.v.h.] _ _ ` Q P.N.$                   ",
"                    + j L.| T T Y Y U Y E / | -.1.3.u.p.i.u.a.a.g.z.).[.;X;X<X8XaXyX6X&Xb.v.h.] _ _ [ I.m.$                     ",
"                      . y M.| E Y Y W / ,.,.,.-.1.8.u.u.u.u.a.a.l.x./.].%X<X<XyXaXaX6X&X`.v.x.[ [ e.L.y o .                     ",
"                          $ y M.4.{ 5.I.I.| | P.1.u.3.u.u.u.a.a.l.c./.].;X<X5XyXyXpXyX,X$X`./.h.L.y *                           ",
"                              + y XX XE.U.P.5.| 1.8.u.u.u.u.a.a.a.x.c.].;X<X5XyXtXpX8X,X&X5X:Xi @                               ",
"                                o C.oX}.U.6.| 6.1.1.1.u.r.i.a.a.l.x./.].;X<X7XyXpXpX8X2X6XaXJ..                                 ",
"                                o j -X}.U.6.<.<.1.1.d.u.w.u.a.a.k.x./.].;X:X7XyXpXaXiX6X6XgXS.                                  ",
"                                  V.oX}.U.6.| 1.1.1.1.1.r.r.i.a.g.z./.].:X2X7XyXpXpXyX6X6XgXJ.                                  ",
"                                . G. X!.U.5.,.<.1.>.u.w.>.r.i.a.a.x./.].>X<X7XyXpXpXyX6X6XgXrXo                                 ",
"                                $ XX X!.I.1.| <.>.>.>.r.r.r.r.a.g.x./.].;X<X7XyXyXpXpX6X6XaXuX*                                 ",
"                                < =X}.E.P.5.| <.;.;.>.>.#.&.r.y.a.l./._.#X<X5X7XyXpXpXyX6XyXjX3                                 ",
"                                w -X}.U.9.| ;.;.;.;.#.$.&.&.*.u.p.g.c.].#X>X5X7X8XpXfX8X6X8XjXh                                 ",
"                                j oX}.U.5.,.| | ( ;.#.$.#.%.&.r.p.g.c.).#X:X<X7X8X8XiX8X6X6XjXV.                                ",
"                                V.oXE.P.,.| | ( ) ) ~ ) $.%.&.*.&.u.l.).].#X,X5X8XyX8X8X6X6XgX+X.                               ",
"                              o G..XU.4.| { / ~ ^ ~ ~ ~ ~ #.*.#.( %.a./.)./.).&X4X8X8X8X6X6XiXrXo                               ",
"                              # H.Q.9.| / W Q Q ~ ! Z Z ( $.o.8 - D w.g.X.H :.c.&X2X1X5X6X5X8XuX$                               ",
"                              * XXU.6./ / I L ! F 9   . 5 0 &     @ 0 9 X   8 o.z.B.+./.2X6X2XtX>                               ",
"                              $ |.9.,.~ I & O - & .                           & 8 O = X.`.,X&X4X>                               ",
"                              $ B.6...J 8                                             - X.@.(.^.*                               ",
"                              X O.O.@ .                                                 . + X.B.+                               ",
"                                5 8                                                         8 8                                 ",
"                                                                                                                                ",
"                                                                                                                                ",
"                                                                                                                                ",
"                                                                                                                                ",
"                                                                                                                                ",
"                                                                                                                                "
};
