/* XPM */
static char *_2[] = {
/* columns rows colors chars-per-pixel */
"64 64 191 2 ",
"   c #000000",
".  c #090702",
"X  c #0D0B05",
"o  c #110E04",
"O  c #100E08",
"+  c #151105",
"@  c #1B1505",
"#  c #141209",
"$  c #1A160A",
"%  c #1E1A0E",
"&  c #241E0B",
"*  c #2D2206",
"=  c #27210D",
"-  c #2B220B",
";  c #352807",
":  c #31260B",
">  c #352A0C",
",  c #252112",
"<  c #2B2715",
"1  c #2D2917",
"2  c #312B15",
"3  c #372F17",
"4  c #3B3011",
"5  c #3B341D",
"6  c #3F3720",
"7  c #433713",
"8  c #463B17",
"9  c #453E22",
"0  c #473B36",
"q  c #483D36",
"w  c #4A3F38",
"e  c #58430C",
"r  c #514114",
"t  c #664D0D",
"y  c #614F1A",
"u  c #68541B",
"i  c #745914",
"p  c #765F1E",
"a  c #4C4320",
"s  c #564C28",
"d  c #4F433B",
"f  c #55483D",
"g  c #655727",
"h  c #6C5F33",
"j  c #6A5F38",
"k  c #6D602F",
"l  c #786427",
"z  c #776A38",
"x  c #7B6C3D",
"c  c #5B4E41",
"v  c #5F5345",
"b  c #645747",
"n  c #7B6F45",
"m  c #766954",
"M  c #7A6A50",
"N  c #7D705B",
"B  c #826415",
"V  c #846719",
"C  c #987418",
"Z  c #A57D15",
"A  c #856D26",
"S  c #8D7224",
"D  c #8B732A",
"F  c #987A26",
"G  c #817138",
"H  c #817340",
"J  c #907D46",
"K  c #877758",
"L  c #AA831D",
"P  c #B48817",
"I  c #BF911B",
"U  c #99833B",
"Y  c #A58328",
"T  c #B88F24",
"R  c #BB9429",
"E  c #AB8E34",
"W  c #A38838",
"Q  c #BB9A37",
"!  c #BE9D3A",
"~  c #DAA51D",
"^  c #EBB31E",
"/  c #F5BA1F",
"(  c #C19827",
")  c #CB9E2A",
"_  c #CDA42C",
"`  c #D5A62A",
"'  c #CEA531",
"]  c #DAAD36",
"[  c #DDB033",
"{  c #EAB324",
"}  c #F5BC26",
"|  c #EBBA34",
" . c #E3B639",
".. c #EEBD3B",
"X. c #FFC11F",
"o. c #FFC224",
"O. c #FFC42C",
"+. c #FFC633",
"@. c #FFC935",
"#. c #F5C338",
"$. c #FFCA3C",
"%. c #8F8048",
"&. c #998647",
"*. c #948259",
"=. c #9F8F58",
"-. c #A38A42",
";. c #AA9347",
":. c #B59A42",
">. c #A69556",
",. c #BCA349",
"<. c #B8A357",
"1. c #96886B",
"2. c #A99567",
"3. c #B6A465",
"4. c #B3A072",
"5. c #C3A441",
"6. c #C6A847",
"7. c #D2AE46",
"8. c #E8BD41",
"9. c #C0AD63",
"0. c #CCB665",
"q. c #C7B36C",
"w. c #CBB56D",
"e. c #D6BE64",
"r. c #D2BB6B",
"t. c #CBB87F",
"y. c #DEC25C",
"u. c #FFCC43",
"i. c #F5CE4D",
"p. c #FFCE4B",
"a. c #FFD143",
"s. c #FFD24C",
"d. c #E5C457",
"f. c #FFCF52",
"g. c #FFD254",
"h. c #FFD956",
"j. c #F5D25D",
"k. c #FFD35B",
"l. c #FFDB5D",
"z. c #DEC460",
"x. c #EACD6A",
"c. c #ECD16F",
"v. c #FFD563",
"b. c #FFDA63",
"n. c #F3D769",
"m. c #FFD66B",
"M. c #F6D96A",
"N. c #FFDA6C",
"B. c #E2CC7C",
"V. c #FFDB73",
"C. c #FFDD7A",
"Z. c #FFE16B",
"A. c #FFE173",
"S. c #FFE27C",
"D. c #DBC686",
"F. c #DFC884",
"G. c #E4CE89",
"H. c #ECD582",
"J. c #E8D38C",
"K. c #F2D782",
"L. c #FFDE83",
"P. c #F6DE8B",
"I. c #FFDF89",
"U. c #EBD693",
"Y. c #ECD99A",
"T. c #F3DB91",
"R. c #FFE383",
"E. c #FFE38C",
"W. c #FFE88B",
"Q. c #FFE593",
"!. c #FFE994",
"~. c #F6E09B",
"^. c #FFE69B",
"/. c #FFE99D",
"(. c #E9D7A4",
"). c #FEE7A0",
"_. c #FFEAA3",
"`. c #F7E5AC",
"'. c #FFEBAB",
"]. c #F2E2B1",
"[. c #FFEDB3",
"{. c #FFEFBB",
"}. c #FFF0BD",
"|. c #FFEFC0",
" X c #FFF1C4",
".X c #FFF2CB",
"XX c #FFF4D2",
"oX c #FFF6DA",
"OX c #FFF7E0",
"+X c #FFF8E4",
"@X c #FFF9E8",
/* pixels */
"                                                                                                                                ",
"                                                                                                                                ",
"                                                                                                                                ",
"                                                                                                                                ",
"                                                                                                                                ",
"                                                                                                                                ",
"                                                                                                                                ",
"                                                                                                                                ",
"                                                                                                                                ",
"                                                                                                                                ",
"                                                          . X # # O .                                                           ",
"                                                  X 2 g %.<.0.r.r.r.<.>.z 9 $                                                   ",
"                                              % h <.c.S.R.W.W.!.^._./././.E.B.%.5 .                                             ",
"                                          # z z.S.S.S.R.W.^.).'.[.}.}.}.}.}.[._.H.>.5 .                                         ",
"                                        8 9.A.S.S.S.W.!.^.'.[.{.}. X.XXXXXXXXX X}.'.H.x #                                       ",
"                                    . k x.A.S.S.R.W.!./.'.[.{.{. X.X.XXXXXXXXXoXXX.X}./.3.,                                     ",
"                                  . G M.A.S.S.R.R.W.^._.'.[.{.|..X.X.XXXXX.XoXOX@XoXoX X'.w.2                                   ",
"                                . z M.A.S.S.R.R.W.!./._.'.[.{.{.}..X.X.XXXXXoXoX@X@X+XoX.X'.q.<                                 ",
"                                g n.A.A.S.R.R.W.Q.^.).'.'.'.[.{.{. X.XXXXXXXoXoX+X@X@X+XoX.X'.>.O                               ",
"                              2 z.A.A.S.S.R.R.W.W.^._.'.[.[.[.[.{.{. XXX.XoXoXoXoX+X+X+XoXXX[.^.z                               ",
"                            X ;.Z.A.A.S.R.W.W.W.Q.^./.'.[.{.[.'.{.{. X.X.XXX.XXXoXoXoXoXoXXX X'.F.1                             ",
"                            s M.A.A.A.S.R.W.E.W.^././._.'.[.[.[.[.{.|..X.X.X.XXXXXXX.XoXXX.X X[./.%.                            ",
"                          O ,.A.A.A.S.S.R.W.W.Q.!././.).'.'.[.[.[.{.|.|.}.}. X.X.X X.X.X.X.X X}._.B.<                           ",
"                          a M.A.A.S.S.S.R.E.E.Q.!././.)._.[.[.[.[.[.{.{.[.}.}. X X X X X X X X}.'.!.z                           ",
"                          -.Z.Z.A.S.S.S.R.E.W.Q.G.G.G.U.U.'.'.'.'.'.'.`.`.`.[.{. X X}.{.}. X X}.[.!.3.X                         ",
"                        % y.Z.A.A.A.S.R.R.R.W.P.K c v v m Y.)._._.^._.1.m m N 1.].}.{.{.{.}. X}.[./.K.3                         ",
"                        s M.N.Z.A.A.S.S.R.R.W.P.m w w w f D._._.).^.U.b 0 0 0 v (.[.[.{.{.{.{.[.'./.Q.j                         ",
"                        U Z.Z.A.A.S.S.R.R.R.R.P.M 0 w w d t._.).)._.G.c 0 0 0 v (.'.'.[.[.[.[.'.'._.^.>.                        ",
"                      X 6.Z.N.Z.A.A.S.S.R.R.R.R.*.0 q q f G.^.^.).).U.b 0 0 0 m ~.'._.'.'.'.'.'.'._./.w.O                       ",
"                      & d.N.Z.N.N.V.A.S.C.S.S.R.r.f q w *.R.W.^.^././.2.d 0 c 4./.).)./.).).'.'.'._./.B.,                       ",
"                      7 j.b.b.Z.N.V.V.V.V.S.C.S.S.w.*.2.H.R.R.Q.!.!.^.T.2.N 4.Y./.).).^.^.).'.'.'._./.P.6                       ",
"                      g b.b.b.b.N.Z.N.A.A.C.A.C.S.R.S.R.L.R.I.R.E.E.E.Q.W.E.Q.^.)./.).^.^.).).'.'._./.R.s                       ",
"                      z l.b.b.b.b.N.N.N.V.V.V.C.C.C.C.C.C.C.C.C.C.R.R.E.Q.R.Q.Q.^.).^.).^.).).).'.).^.E.j                       ",
"                      U l.k.l.b.b.N.N.N.N.N.V.V.V.V.V.V.V.V.V.V.C.C.C.I.I.I.I.I.^.T.^.T.^.^.^.).T.^.E.I.H                       ",
"                      E l.l.k.l.v.N.N.N.N.N.N.V.V.N.N.V.V.m.V.V.V.C.C.C.C.I.I.I.I.I.T.T.I.^.^.^.I.Q.I.R.J                       ",
"                    . :.l.h.k.l.l.k.b.v.m.v.b.m.m.N.m.m.m.N.m.m.V.m.V.V.C.C.L.I.I.I.I.I.I.I.I.I.^.Q.I.R.&.                      ",
"                    X ,.h.h.h.h.k.k.l.v.v.v.v.b.v.v.v.v.m.v.m.v.m.m.V.m.V.C.C.C.K.K.L.K.K.L.I.I.I.I.L.L.&.                      ",
"                    . ' h.g.k.g.g.g.k.k.v.k.v.k.k.v.v.v.v.v.v.v.v.v.m.v.m.m.m.m.V.m.C.C.V.C.C.L.I.L.C.V.-.                      ",
"                    X ,.h.h.h.g.g.g.g.k.k.k.k.k.k.k.k.v.v.v.v.k.v.v.v.v.v.m.m.m.m.m.m.m.m.m.m.m.V.m.m.v.W                       ",
"                    X 5.h.g.g.g.g.g.s.g.g.g.k.k.k.k.k.k.f.k.k.k.k.k.k.v.v.v.v.m.v.v.m.m.m.m.v.v.v.k.k.k.W                       ",
"                    . ! g.s.s.s.s.s.s.p.g.p.g.f.f.g.f.f.f.f.f.f.f.f.k.k.f.k.k.v.k.k.k.k.k.k.v.k.g.p.g.s.F                       ",
"                    X Q s.s.s.s.p.s.p.s.p.p.g.p.p.f.f.f.p.p.p.p.f.p.f.p.f.f.f.f.f.k.v.8.k.f.f.p.p.p.p.a.F                       ",
"                    . E a.a.a.a.u.u.a.u.u.u.p.p.p.u.p.p.p.p.p.p.u.f.p.8.p.p.u.p.f.f.f.f.p.p.p.u.p.p.s.s.A                       ",
"                      Y s.a.$.$.$.$.u.u.u.u.u.u.u.u.u.u.u.u.u.u.u.u.p.p.u.u.u.u.u.8.p.p.u.u.u.u.u.u.u.p.l                       ",
"                      S a.$.$.@.+.$.$.$.$.$.$.$.$.$.u.$.$.u.$.u.u.u.u.u.u.$.$.$.u.u.u.$.u.$.$.$.$.u.u.a.u                       ",
"                      l a.$.$.@.+.@.@.@.$.$.$.$.$.@.$.+.$.$.$.$.$.u.$.$.$.$.$.$.u.+.$.+.$.+.$.$.$.$.$.$.r                       ",
"                      y $.$.$.$.+.+.+.+.+.+.O.+.O.O.+.O.O.+.+.+...+.+.+.+.$.+.+...+.+.+.+.$.+.+.@.$.$.#.4                       ",
"                      7 u.$.$.$.@.+.+.+.O.O.O.O.} O.o.o.O.O.O.O.O.+.O.+...+.+.O.O.O.O.+.+.} +.+.@.+.$. .-                       ",
"                      - ..$.$.@.@.+.+.O.O.O.O.O.o.o.o.o.X.o.o.o.o.O.O.o.O.O.O.O.O.O.o.O.O.O.O.O.O.+.@.` +                       ",
"                      @ ] $.@.@.O.` ` O.O.O.O.o.X.X./ Z C { o.o.o.X.o.o.o.~ I ^ o.o.o.o.o.O.} ~ } O.@.R X                       ",
"                      . Q $.$.@.Y @ @ L O.o.O.o.o.o.B .   t } o.o.X.X.X.P @ X e ^ o.O.o.O.O.B o u #.@.Y                         ",
"                        F $.$.[ -     : { O.O.o.o.~ @     X P o.o.o.X.~ *       i o.O.O.O.T +   + ' $.p                         ",
"                        y $.a.S         V O.O.O.O.i         ; ^ o.O.o.i         @ ( @.@. .;       D i.7                         ",
"                        = Q Q -         + F | #.( @           e { +.T +           8 [ #.u         = g X                         ",
"                          X X             . > 7 $               > r @             . , < .                                       ",
"                          . .                     $ 1 1 $ .                         X X                                         ",
"                          8 :.x 9             4 U r.J.U.D.4.n 2                 X z 0.q.=.s X                                   ",
"                          7 j.W.x.4         t d.N.Q./.^./._.^.e.&               k N.W._.[.^.;.#                                 ",
"                          X U d.6.-       o _ $.g.N.V.V.N.b.V.7.@               W l.m.V.N.k.] =                                 ",
"                            X - +         . V ] ...... .[ ) C >                 2 Y ) ) L i =                                   ",
"                                            . $ : > : & @ o                       . X o                                         ",
"                                                                                                                                ",
"                                                                                                                                ",
"                                                                                                                                "
};
