/* XPM */
static char *_4[] = {
/* columns rows colors chars-per-pixel */
"64 64 210 2 ",
"   c #000000",
".  c #0B0403",
"X  c #0D0905",
"o  c #140705",
"O  c #120B05",
"+  c #1C0A07",
"@  c #140E08",
"#  c #1D0C0A",
"$  c #191108",
"%  c #1C130C",
"&  c #1A1310",
"*  c #250D0B",
"=  c #290D0A",
"-  c #380F0B",
";  c #25120D",
":  c #2B110E",
">  c #251A0E",
",  c #2B1D0C",
"<  c #31110E",
"1  c #39120D",
"2  c #281513",
"3  c #231B10",
"4  c #2A1C13",
"5  c #371A17",
"6  c #3A1E1B",
"7  c #2F200D",
"8  c #34230E",
"9  c #2D2115",
"0  c #2B231B",
"q  c #342512",
"w  c #362814",
"e  c #3A2916",
"r  c #34241D",
"t  c #392D20",
"y  c #3F3022",
"u  c #40130E",
"i  c #461B16",
"p  c #4E1C15",
"a  c #571C15",
"s  c #432C13",
"d  c #47281B",
"f  c #52211B",
"g  c #4B3216",
"h  c #45331D",
"j  c #49361E",
"k  c #553919",
"l  c #66231B",
"z  c #79271D",
"x  c #5C2821",
"c  c #423122",
"v  c #543E22",
"b  c #5D3532",
"n  c #6B2C24",
"m  c #642E29",
"M  c #63312D",
"N  c #6A3029",
"B  c #74332B",
"V  c #7C332B",
"C  c #623935",
"Z  c #793C35",
"A  c #68441D",
"S  c #7F4F1E",
"D  c #7F501F",
"F  c #55422D",
"G  c #684827",
"H  c #734D22",
"J  c #785127",
"K  c #624933",
"L  c #7C403A",
"P  c #6B5337",
"I  c #775636",
"U  c #7B5935",
"Y  c #7B5C3A",
"T  c #795D41",
"R  c #82291D",
"E  c #842E22",
"W  c #8B2C22",
"Q  c #922E21",
"!  c #863125",
"~  c #873529",
"^  c #8B352B",
"/  c #893A2E",
"(  c #963529",
")  c #94372B",
"_  c #8A3C32",
"`  c #903930",
"'  c #AA382A",
"]  c #C83F2E",
"[  c #804F1E",
"{  c #825423",
"}  c #855927",
"|  c #885C26",
" . c #845B2C",
".. c #89443C",
"X. c #974136",
"o. c #9A4439",
"O. c #855E33",
"+. c #805C3B",
"@. c #A94438",
"#. c #B84336",
"$. c #94612C",
"%. c #876037",
"&. c #8B6236",
"*. c #976734",
"=. c #9A6A39",
"-. c #A46C2B",
";. c #A46F31",
":. c #A77239",
">. c #B67A3A",
",. c #D0402F",
"<. c #DB402D",
"1. c #C14031",
"2. c #CD4636",
"3. c #D24534",
"4. c #DC4533",
"5. c #D54836",
"6. c #DE4836",
"7. c #D24C3B",
"8. c #DE4C3B",
"9. c #E14A36",
"0. c #E24E3B",
"q. c #E2503F",
"w. c #E9513E",
"e. c #974B43",
"r. c #A55147",
"t. c #8C6A42",
"y. c #957145",
"u. c #997142",
"i. c #95734B",
"p. c #A57949",
"a. c #BD6157",
"s. c #C54E40",
"d. c #C7574A",
"f. c #D65342",
"g. c #D75748",
"h. c #DA5B4C",
"j. c #C85E53",
"k. c #D85F50",
"l. c #E45442",
"z. c #E85846",
"x. c #E55B4B",
"c. c #EA5E4C",
"v. c #D36154",
"b. c #DC6254",
"n. c #DB6759",
"m. c #D8685C",
"M. c #E9614F",
"N. c #F0624F",
"B. c #E36354",
"V. c #E96554",
"C. c #EB6857",
"Z. c #E2695B",
"A. c #EC6B5B",
"S. c #EC6F60",
"D. c #EC7263",
"F. c #E7766A",
"G. c #E77C71",
"H. c #BE813D",
"J. c #D58C3B",
"K. c #BB8343",
"L. c #B4834C",
"P. c #AA8355",
"I. c #B38757",
"U. c #C68B44",
"Y. c #C98A43",
"T. c #CF8F48",
"R. c #CC914E",
"E. c #D1934E",
"W. c #DD9A4D",
"Q. c #CD9559",
"!. c #D79A52",
"~. c #DE9E52",
"^. c #D2985C",
"/. c #E49944",
"(. c #EB9D43",
"). c #E39C4B",
"_. c #E59F53",
"`. c #DEA059",
"'. c #E9A04A",
"]. c #EDA14D",
"[. c #F1A64D",
"{. c #F3A94F",
"}. c #E8A557",
"|. c #EDA454",
" X c #E3A358",
".X c #F0A753",
"XX c #F2AA53",
"oX c #F2AD5B",
"OX c #F5B25F",
"+X c #E48077",
"@X c #DBA265",
"#X c #DCA46A",
"$X c #E7AB65",
"%X c #ECAD63",
"&X c #F1AD62",
"*X c #F5B465",
"=X c #F4B56B",
"-X c #F7B76A",
";X c #E4AE74",
":X c #E1AE79",
">X c #E6B075",
",X c #EBB373",
"<X c #EBB77C",
"1X c #F3B674",
"2X c #F5B973",
"3X c #F0B778",
"4X c #F5BB7C",
"5X c #EBB882",
"6X c #F6BE83",
"7X c #F8BE82",
/* pixels */
"                                                                                                                                ",
"                                                                                                                                ",
"                                                                                                                                ",
"                                                                                                                                ",
"                                                                                                                                ",
"                                                                                                                                ",
"                                                                                                                                ",
"                                                                                                                                ",
"                                                                                                                                ",
"                                                                                                                                ",
"                                                                                                                                ",
"                                                                                                                                ",
"                                                                                                                                ",
"                                                                                                                                ",
"                                                                                                                                ",
"                                                                                                                                ",
"                                                                                                                                ",
"              $ 8 8 8 8 8 8 , q $         . , 8 8 8 q @         . 7 8 q $           7 8 q %   % 8 q q w w w w w w w w w .       ",
"              +././.).).)._._.}.I         & U.'.'. X$XK         3 !. X$XT         % R.$X,Xt.  U %X}.%X,X3X3X<X<X<X5X6X:Xt       ",
"          > k >.|.>.$.$.$.$.$.*.c     . e H  X~.;.>.&Xi.k @     4 `.*X=XI.v %   e J $X2X7Xi.  %.-X2X<XL.u.u.u.u.u.u.y.t.&       ",
"          K '.'.}.c                   X K..XoXL.. v XXoX$Xh     9 `.XXOX=X3XF . K.*X=X2X6Xi.  %.*X2X:X0                         ",
"      % S :.].>.A %                 g | W._. .g   > A J.*Xp.P X 4 ~.oXoX%X1XL.%.`.-X,X2X6Xi.  %.*X-X:X0                         ",
"      c ).(.].K       .     .       =.{..XQ.&         O.&X*X#X3 > ~.oXoX%XoX*X-X%XoX*X2X7Xi.  %.-X2X:Xt   .   . .               ",
"      c ).(.(.K     X | ;.;.;.:.v   =..X.X^.&         O.&X&X#X3 9 `.oX*Xp.g H.%XP A `.2X6Xi.  %.-X-X<XI.P.P.P.P.P.P.t           ",
"      y /.(.].G     + >./.[..X&XY   =.{..X^.0 X O O X *.oX&X@X3 > `.oX*XY   =.$Xw % !.2X4Xi.  %.-X=X1X;X;X;X>X>X>X>XF           ",
"      c /.(._.K       ; k /.|.&XI   =.{.|.oXR.U.U.U.U.~.oX&X@X3 3 W.oX*XY   =.%Xe % !.=X4Xi.  O.-X-X>Xv , 7 , , , , X           ",
"      q >.J._.T % .     5 W._.&XU   =.].|.}.T.U.Y.Y.J.W.oX&X@X3 9  XoX=XY   J K.> % !.=X4Xi.  &.*X-X:X0                         ",
"        o J [.).E.e     4 )..XoXU   =.{.|.^.q O O O O &.XX%X@X3 > W.XX=XT   X O   % !.*X2Xy.  &.*X1X:X0                         ",
"          s -.J.|.U s s H ).|.&XI   =.[.XXQ.%         O.XXoX@X3 4 W.oX*XT         > !.OX2Xy.  %.*X-X<XP h j j j j j g y X       ",
"            . &.[.].(.(.'.]..XoXU   *.[.XX^.&         %.XXoX`.> > ).oX=XT         ; !.OX-Xy.  %.OX-X2X2X2X4X4X4X5X6X6X5Xt       ",
"              s [ [ S S [ D { { e   g { { G o         s { } H O @ S }  .s         X H }  .j   s | | |  . . .%. .%.O.O.U %       ",
"                                                                                                                                ",
"                                                                                                                                ",
"          < R E R R R E E E x       a R E N X         i W ! B o O z E E ! ~ ~ ~ ~ _ _ _ ..f   i ! ~ / / / / / _ / ..4           ",
"          N 0.9.6.6.6.4.6.l.e.o     ` l.z.j.&         V z.V.v.; * f.l.c.x.x.x.B.B.B.B.B.B._   V N.N.A.C.Z.B.B.B.A.+XC           ",
"      < ) 1.8.^ - - - - a 5.g.' f   ^ l.z.j.&         V z.x.v.; ; f.l.c.o.1 1 1 1 1 1 1 1 *   V M.V.Z.f 1 1 1 1 ) D.m.r.2       ",
"      6 8.4.0.m         = 2.l.x.Z   ^ 0.l.d.&         V x.x.v.; ; 7.l.c.L                     V N.M.m.2 .       m S.G.G.r       ",
"      6 5.9.8.m         = 5.l.x.B   ^ w.l.d.#         V l.x.k.* ; 7.l.c.L                     V c.V.m.2         m S.F.G.6       ",
"      r 7.4.8.m         : 2.l.x.B   ^ 0.l.d.d #   . = ) l.x.k.* ; 7.l.V.e.< : : : : : *       V c.M.m.4     . = ~ A.F.F.6       ",
"      6 5.4.0.M         < ] f.z.B   Q w.0.l.g.o.  f 5.q.l.x.g.; * f.l.x.B.h.b.b.b.b.n.r..     V N.M.m.4     5 h.B.A.A.F.6       ",
"      6 5.<.9.M         : 5.l.g.B   a Q 3.0.l.d.p ^ q.l.l.#.E o * 7.l.x.s.) ) ) ) ) ) n .     V x.V.Z.B f f ~ C.d.) ) / #       ",
"      6 5.9.0.M         2 2.l.l.B     . ' w.0.l.l.8.l.l.g.i     ; f.l.c.Z                     V M.V.A.C.V.C.B.D.e.              ",
"      6 4.] 8.M         = 2.l.l.B       p z 5.0.l.l.l.@.l +     * 7.q.c.Z                     V c.M.B.~ ! h.C.A.a.B 2           ",
"      5 3.4.0.M         < 5.8.8.B         + 1.9.8.l.l.m         2 7.l.c...          .         V c.M.h.; * 7.c.C.D.G.b           ",
"      . u W 0.#.Q Q Q Q ' 8.#.p *           1 z 8.@.p #         * 7.l.c.d.X.X.X.X.X.o.o.o.x   V z.M.b.:   u E c.C.D.a.e.;       ",
"          a ] ] ] ] 3.,.] 3._                 < 2.~             ; 1.3.7.7.f.f.f.f.h.h.h.k./   n 8.7.7.;     5 7.f.g.h.v.4       ",
"          o = = = = = = = = +                 . * o             . * = = = = = = = = = = = o   o = ; %       . = = = = * .       ",
"                                                                                                                                ",
"                                                                                                                                ",
"                                                                                                                                ",
"                                                                                                                                ",
"                                                                                                                                ",
"                                                                                                                                ",
"                                                                                                                                ",
"                                                                                                                                ",
"                                                                                                                                ",
"                                                                                                                                ",
"                                                                                                                                ",
"                                                                                                                                ",
"                                                                                                                                ",
"                                                                                                                                ",
"                                                                                                                                ",
"                                                                                                                                ",
"                                                                                                                                "
};
