/* XPM */
static char *_5[] = {
/* columns rows colors chars-per-pixel */
"64 64 240 2 ",
"   c #000000",
".  c #0A0402",
"X  c #0E0A04",
"o  c #120503",
"O  c #1B0603",
"+  c #140C04",
"@  c #1C0A06",
"#  c #140B08",
"$  c #1B0B0A",
"%  c #1C1206",
"&  c #171008",
"*  c #1B130C",
"=  c #220603",
"-  c #230A05",
";  c #2A0B06",
":  c #230D0A",
">  c #2C0D09",
",  c #390D07",
"<  c #231606",
"1  c #271A09",
"2  c #341509",
"3  c #3B120C",
"4  c #2E1310",
"5  c #241B12",
"6  c #361713",
"7  c #33220C",
"8  c #3B260C",
"9  c #2F2113",
"0  c #362515",
"q  c #400D07",
"w  c #44120B",
"e  c #4C140B",
"r  c #52140A",
"t  c #5A1309",
"y  c #441611",
"u  c #591B13",
"i  c #63160A",
"p  c #6C170B",
"a  c #771B0C",
"s  c #691C12",
"d  c #781B13",
"f  c #442C0B",
"g  c #4B2E0A",
"h  c #4B310C",
"j  c #5A380D",
"k  c #432C13",
"l  c #552D12",
"z  c #4B3414",
"x  c #5D3B19",
"c  c #6D2217",
"v  c #75251A",
"b  c #573626",
"n  c #7B2920",
"m  c #5C4016",
"M  c #6A430E",
"N  c #69471B",
"B  c #774B13",
"V  c #744B14",
"C  c #704821",
"Z  c #785325",
"A  c #715843",
"S  c #851E0D",
"D  c #95180F",
"F  c #8A200E",
"G  c #96220F",
"H  c #83261B",
"J  c #8B2B1D",
"K  c #97271A",
"L  c #9D301F",
"P  c #A92713",
"I  c #B62916",
"U  c #AC311F",
"Y  c #B9321E",
"T  c #862C22",
"R  c #8B2C23",
"E  c #952C22",
"W  c #8A3126",
"Q  c #993529",
"!  c #A12A24",
"~  c #A63425",
"^  c #AC3425",
"/  c #A9372A",
"(  c #B63827",
")  c #BC3C2C",
"_  c #A53932",
"`  c #C52318",
"'  c #C93117",
"]  c #D8351B",
"[  c #C82F23",
"{  c #C43D2A",
"}  c #CC3828",
"|  c #D23B24",
" . c #DB3A24",
".. c #D03628",
"X. c #D53D2D",
"o. c #DA3E2B",
"O. c #D63F30",
"+. c #E43E23",
"@. c #8E4815",
"#. c #855314",
"$. c #995E15",
"%. c #A74A1D",
"&. c #BC471D",
"*. c #BD581B",
"=. c #996216",
"-. c #A66816",
";. c #BB7819",
":. c #954C25",
">. c #9D4821",
",. c #875827",
"<. c #86542A",
"1. c #AD4F25",
"2. c #BB4627",
"3. c #AD532B",
"4. c #B04537",
"5. c #BC5B33",
"6. c #8D6225",
"7. c #976829",
"8. c #9C7030",
"9. c #A46B2B",
"0. c #A4742C",
"q. c #B67928",
"w. c #AB6B37",
"e. c #BB6535",
"r. c #A97735",
"t. c #B57837",
"y. c #C44614",
"u. c #E45A1B",
"i. c #C4791A",
"p. c #E6611D",
"a. c #E8631F",
"s. c #E3701F",
"d. c #C2402D",
"f. c #CC412C",
"g. c #D84027",
"h. c #D4422B",
"j. c #DB422D",
"k. c #C34838",
"l. c #D54232",
"z. c #DC4432",
"x. c #D54A35",
"c. c #DC4A35",
"v. c #DC4B3B",
"b. c #D9533F",
"n. c #E5442A",
"m. c #E3452C",
"M. c #E9472C",
"N. c #E5482F",
"B. c #E14731",
"V. c #E34A34",
"C. c #E94D34",
"Z. c #E34E3A",
"A. c #E84F38",
"S. c #E95037",
"D. c #E5523D",
"F. c #EA543D",
"G. c #CD7A3A",
"H. c #E56522",
"J. c #E26F28",
"K. c #E7762A",
"L. c #E97B33",
"P. c #B34F47",
"I. c #AC7746",
"U. c #B77C51",
"Y. c #CC4D42",
"T. c #D54B40",
"R. c #C85348",
"E. c #DE5344",
"W. c #D8574C",
"Q. c #C55C52",
"!. c #E45543",
"~. c #E85641",
"^. c #E85B47",
"/. c #EB5B46",
"(. c #E45B4A",
"). c #E05E51",
"_. c #C4635A",
"`. c #C66A61",
"'. c #E27A71",
"]. c #B8812E",
"[. c #BA8433",
"{. c #B98639",
"}. c #CE811A",
"|. c #D78B1F",
" X c #D88624",
".X c #C58638",
"XX c #D78B36",
"oX c #CE933D",
"OX c #D49437",
"+X c #E68729",
"@X c #E99829",
"#X c #E98A39",
"$X c #E99738",
"%X c #EA9B3D",
"&X c #F39C37",
"*X c #EDA236",
"=X c #F3A333",
"-X c #F2A33D",
";X c #F3A93D",
":X c #BB8644",
">X c #CB8944",
",X c #CB944A",
"<X c #DA9842",
"1X c #D68C55",
"2X c #EA9443",
"3X c #EB9C43",
"4X c #ED914A",
"5X c #EA984B",
"6X c #E89A55",
"7X c #DDA14B",
"8X c #DFA552",
"9X c #EEA444",
"0X c #E4A448",
"qX c #EDA34B",
"wX c #EEAA49",
"eX c #F2A443",
"rX c #F3AB44",
"tX c #F1A64A",
"yX c #F2AC4C",
"uX c #F4B04E",
"iX c #EDA353",
"pX c #ECA45B",
"aX c #EEAA5D",
"sX c #F0A651",
"dX c #F2AD53",
"fX c #F2AD5B",
"gX c #EFB25A",
"hX c #F4B154",
"jX c #F5B45B",
"kX c #CD9466",
"lX c #E39A6E",
"zX c #D0A078",
"xX c #ECA865",
"cX c #F1AD63",
"vX c #F2AF6B",
"bX c #F3B464",
"nX c #F7B967",
"mX c #EEAB7B",
"MX c #D0A481",
"NX c #EFB285",
/* pixels */
"                                                                                                                                ",
"                                                                                                                                ",
"                                                                                                                                ",
"                                                                                                                                ",
"                                                                                                                                ",
"                                                                                                                                ",
"                                                                                                                                ",
"                                                                                                                                ",
"                                                                                                                                ",
"                                                                                                                                ",
"                                                                                                                                ",
"                                                                                                              .                 ",
"                                                                                                              X 1 f 8 .         ",
"                                                                                                    + 1 h M =.}.|.@X@XZ         ",
"                                                                                            % h V =.;.|.@X=X;XuXhXjXnX,X#       ",
"                                                                                  1 h B M . ,.$X=X;XuXjXjXnXnXjX8X{.8.N .       ",
"                                                                  .   .         + :X@X*XwXZ :.L.gXnXbX8X{.8.Z z 1 +             ",
"                                                                8 B =.-.7     + 8 1XbXnXnX:X>.H.dXhX8Xz X                       ",
"                                                  & 1         . :XwX-XdX,Xh   ,. X#XaXjXjX:X>.p.uXuX7X7 & 7 M #.=.8             ",
"                                          + j B -.i. XV X     . U.xXbXbXjX$XZ 3.K.nXjXhXhX{.>.p.wXuXrX].}.@X@X=XrX,X5           ",
"                            . & o         b pX*XeXsXfXaX=.%   . I.4XiXdXjXbXqXJ.L.dXhXyXuX{.$.u.rXuXuXrXuXjXjXjXhX7X9           ",
"                . X & 8 j #.-.i.=.*   . 2 6.mXcXcXaXiXjXdXr.7 . I.L.wXdXuXuXhXaXfXhXyXhXuX{.1.u.wXuXuXuX0X,Xr.6.m 7 X           ",
"              9 #.-.i. X@X$X9XwXjX,.  5 >X+X6XsX{.>.J.qXgXjXXXz 3.J.wXdXyXyXyXdXOXXX$XwXrX{.>.p.wXuX0XZ 7 %                     ",
"              A vX%XtXfXcXfXaX6X,XC $ x lXxXaXyX6.. B 5X3XdXbXI.3.H.wXyX<Xe.H.eX7.&.K.rXrX].>.p.yXuX*X5   X 1 g V =.=.<         ",
"          # x t.NXpX6X>X0.,.x 7 & # I. X4XpX<XN *   5 1X5XhXhX{.3.H.rXtXoX@.u.3X7.2.K.rXrX[.>.u.wXyX0X=.=.i. X@X=X=XuXr.X       ",
"          k mX$X6XtX7.+ .         # kXxXfXsX{.#   X k 1X5XdXdXr.1.H.tXtXoXl y.&X7.i.+XwXrX].1.u.rXyXrX=X;XrXuXhXjXhXwX{.X       ",
"      . 8 <.NXpXqX<XN X 2 g V $.M * U.4XiXyXOXB $.i.K.4X5XyXuXt.1.H.eXrXOX% 2 N 8 _.#XrX;X].:.a.rXrXuXuXuXrXOX.X7.V h <         ",
"      * kX$X6XiX.X9 & w. X+X@X&XqXZ P.K.qXyXtX&X&XyXsXsXdXwXrXr.1.u.eXrXOX&     # G.$X-X;X[.f y.*XOX].7.N f < + o               ",
"      * MXvXqXqXr.. X U.6XpXfXaXfXr.5.H.qXqXsXgXfXiX<X5X3XeXyXr.1.p.-XrXOX&     . N XX%XOX6.. 1 8 * X O , r a P I r             ",
"      * zXxX3X9Xr..   0 e.5X3XqXqXr.5.H.qXqX3X7.N k k 1X2X9XrX0.>.H.-X;XOX&       . k 8 % . o , r F P ' ] n.M.M.F.b.c .         ",
"      * zXiX%X3Xt.. .   k 6X5XqXqXr.5.H.9XtX.X+     * >X2X-XrX0.> %.XXq.Z +     . O , t r . v g.m.M.C.F./././.F.F.S.V.W .       ",
"      * kX6X%X3XOXB .   0 lX2XqXtX8.5.H.9X9X[.+     . x .XXXq.x   & % o = , i F P ' ] n.j.v H } ~.^.F.x.2.U H ) g.N.~.k.#       ",
"        b oX2X2XtXiX7.@.*.6X2XqXtX7.1.H.3X-X[.X         < * .   > i F P ' ] n.M.S.~./././.2.R [ V.C.j.r o . . ~ O.B.C.d.+       ",
"          7 U.2X3XiX&X&X3X5X5X9XtX6.@ @.9.,.z .     . , i F a + Q n.M.A.~./././.D.x.) L v 3 W O.B.M.h.>   O e ) z.M.N.d.#       ",
"            5 7.5X3XiXpXqX2X.X9.Z 8   X O o         $ Y.n.n.D.n E ..!.~.D.d.Q v e > o       W v.N.N.g.>   v  .j.Z.B.M.d.#       ",
"              X <.t.9.B z 1 # .   . u G I P ,       : Q.!.(././ K ` B.V.} ;       . .       W Z.m.V.h.3 ; E X.F.Z.j.| K X       ",
"                . + o = q p i .   X P.~.V.~.4..     : R.v.Z.D./ K ` N.V.f.> ; e a G P ,     R l.m.V.m.' '  .h.V.U w = X         ",
"          . : w p S I '  .+.B.R O . P.E.!.!.4.O     $ R.v.Z.A./ K ` V.V.j.' ] ] n.V.F.k.$   T ..m.N.N.S.F.~.F.N.| s .           ",
"          6 k. .+.V.Z.~.(.!.(.V.U 6 _ ..v.V.) o     : Q.v.V.V.~ K ` j.V.N.S.F.~./.F.c.( O   R l.m.N.m.m.j.m.m.n.V.D.J O         ",
"        . c '.W.(.!.v.d.) l.O.v.~.Q ! ` Z.Z.d.$   u P T.v.V.C.~ K ` N.V.V.c.d.~ H i 3 O     R z.j.N.o.s D  .m.m.m.N.C.Q .       ",
"      # 4.} ).T.{ s 3 $ 6 Y.O.Z.Z.Q ! ` B.V.z.P > _ o.E.Z.B.V.~ R Y o.V.h.e @ .       . .   R z.g.n.| ; = K [ +.n.n.m.( X       ",
"      $ `.).v.V.~ .     4 Y.O.V.Z.E ! ` B.V.Z.(.) I [ Z.V.o.J y E [ o.V.{ @ . O , i F P P - H ..n.n.o.;   O d ( K d r >         ",
"      $ _.(.c.z.~ .     4 Y.z.B.V.E d ` B.B.z.Z.V.z.z.V.C.{ o   Q O.V.V.g.G P ' ] +.M.C.F._ , P  .| U @     . o .               ",
"      # Q.W.z.B./ .     4 Y.z.v.V.R . p } X.z.B.Z.Z.V.B.^ s . . _ O.o.V.N.M.V.D.~.~.F.V.X.R . ; e > o .                         ",
"      # Q.E.z.z.~ .     4 R.z.B.B.J   . e ( o.B.B.B.V.z.3     . E O.B.V.V.A.V.l.( K c e ; X                                     ",
"      $ R.T.j.B.~ .     4 W.x.z.B.R       6 ^ O.j.B.{ J @       6 / } ( K s y : #                                               ",
"      # R.v.j.z.~ .   . 4 W.z.z.V.J         - R O.z.c             $ : .                                                         ",
"      + R.v.X.z.^ , e p K W.x.z.( u           o v / y                                                                           ",
"      o 4.Z.X.z.o.' ] +.B.v.V.) $               . .                                                                             ",
"        6 ^ z.X.B.Z.!.Z.v.O.{ T .                                                                                               ",
"          $ Q X.O.) ! H u 3 $ .                                                                                                 ",
"            o y 3 $ .                                                                                                           ",
"                                                                                                                                ",
"                                                                                                                                ",
"                                                                                                                                ",
"                                                                                                                                ",
"                                                                                                                                ",
"                                                                                                                                ",
"                                                                                                                                ",
"                                                                                                                                ",
"                                                                                                                                ",
"                                                                                                                                ",
"                                                                                                                                ",
"                                                                                                                                "
};
