/* XPM */
static char *_6[] = {
/* columns rows colors chars-per-pixel */
"64 64 181 2 ",
"   c #000000",
".  c #090704",
"X  c #0C0804",
"o  c #0C0A09",
"O  c #120D05",
"+  c #120F0B",
"@  c #181007",
"#  c #16110A",
"$  c #1C130A",
"%  c #151311",
"&  c #1A1714",
"*  c #1E1914",
"=  c #1E1C19",
"-  c #23190D",
";  c #2D1E0E",
":  c #301C0A",
">  c #241D17",
",  c #291E13",
"<  c #32210E",
"1  c #2E2116",
"2  c #24211E",
"3  c #312415",
"4  c #3B2816",
"5  c #36291D",
"6  c #3C2B1A",
"7  c #262220",
"8  c #292521",
"9  c #2D2925",
"0  c #302B26",
"q  c #332D29",
"w  c #37322D",
"e  c #3B352F",
"r  c #373330",
"t  c #3A3531",
"y  c #3E3833",
"u  c #402D1C",
"i  c #4A321D",
"p  c #583C1A",
"a  c #603F1D",
"s  c #463320",
"d  c #4E3722",
"f  c #563D22",
"g  c #583D23",
"h  c #453C35",
"j  c #443F39",
"k  c #62441E",
"l  c #5E4426",
"z  c #5D4629",
"x  c #46403B",
"c  c #4B433C",
"v  c #634322",
"b  c #684520",
"n  c #75593B",
"m  c #4E4741",
"M  c #544B44",
"N  c #57514C",
"B  c #5B524B",
"V  c #5F5851",
"C  c #645B52",
"Z  c #695E54",
"A  c #7F6243",
"S  c #696058",
"D  c #73675C",
"F  c #756A61",
"G  c #796E63",
"H  c #835424",
"J  c #8C5A26",
"K  c #855A2B",
"L  c #905E28",
"P  c #835F37",
"I  c #8E612E",
"U  c #95632D",
"Y  c #8D6334",
"T  c #8A663F",
"R  c #926534",
"E  c #9E6D35",
"W  c #946939",
"Q  c #AA743A",
"!  c #B37B3B",
"~  c #B97E39",
"^  c #9C7241",
"/  c #9E764A",
"(  c #997756",
")  c #A37847",
"_  c #AF7B42",
"`  c #B17E4C",
"'  c #A07951",
"]  c #A97E51",
"[  c #81756A",
"{  c #85796E",
"}  c #8B7C6F",
"|  c #857B72",
" . c #8B7E71",
".. c #B6823F",
"X. c #BD833D",
"o. c #C5853B",
"O. c #D38C3D",
"+. c #B78145",
"@. c #BD8545",
"#. c #B1824C",
"$. c #BB8448",
"%. c #BE8C4B",
"&. c #AD8356",
"*. c #B08356",
"=. c #BB8850",
"-. c #B38B5D",
";. c #8D8278",
":. c #918376",
">. c #92867A",
",. c #95887D",
"<. c #9B8A7C",
"1. c #A08E7E",
"2. c #C18645",
"3. c #C38942",
"4. c #C38A4A",
"5. c #D38D40",
"6. c #DA964A",
"7. c #C69559",
"8. c #C3945C",
"9. c #D59A54",
"0. c #D99B54",
"q. c #E69C46",
"w. c #E49D4C",
"e. c #E7A04F",
"r. c #EDA14A",
"t. c #F0A247",
"y. c #E3A154",
"u. c #ECA454",
"i. c #EDA856",
"p. c #EAA65C",
"a. c #F1A754",
"s. c #F2AA55",
"d. c #F1AD5C",
"f. c #F5B25F",
"g. c #C49667",
"h. c #CB9A61",
"j. c #D9A367",
"k. c #EAA964",
"l. c #E5AC6C",
"z. c #E9AC6A",
"x. c #F2AF63",
"c. c #F3B263",
"v. c #F9B461",
"b. c #F5B56B",
"n. c #F7B86D",
"m. c #E6AF73",
"M. c #E8AF70",
"N. c #E9B175",
"B. c #E6B178",
"V. c #F3B673",
"C. c #F7B971",
"Z. c #F8BA71",
"A. c #9B8E82",
"S. c #9E9084",
"D. c #A39384",
"F. c #A79789",
"G. c #AA998A",
"H. c #B19E8D",
"J. c #AD9F92",
"K. c #B3A394",
"L. c #B7A89B",
"P. c #BAA898",
"I. c #C1AD9C",
"U. c #C5B3A2",
"Y. c #CAB5A2",
"T. c #CDB8A6",
"R. c #D0BAA7",
"E. c #D3BEAB",
"W. c #CEBFB1",
"Q. c #D8C2AE",
"!. c #D7C3B1",
"~. c #DBC5B2",
"^. c #DDC9B6",
"/. c #DDCAB8",
"(. c #E0CAB6",
"). c #E2CDBA",
"_. c #E5D1BF",
"`. c #E6D3C2",
"'. c #E9D6C3",
"]. c #EBD8C6",
"[. c #ECDAC9",
/* pixels */
"                                                                                                                                ",
"                                                                                                                                ",
"                                                                                                                                ",
"                                                                                                                                ",
"                                                                                                                                ",
"                                                                                                                                ",
"                                                                                                                                ",
"                                                                                                                                ",
"                                                                                                                                ",
"                                                                                                                                ",
"                                                                                                                                ",
"                                                                                                                                ",
"                                                                                                                                ",
"                                                                                                                                ",
"                                                                                                                                ",
"                                                                                                                                ",
"                                                                                                                                ",
"                                                                                                                                ",
"                                                                                                                                ",
"                        . X X X X X X           . X X .           . . .         . X X     X X X X X X X X X .                   ",
"                      1 ! ~ X.X.~ @.+.5       3 ! X.X.#.3       6 ..%.n       . Y 4.#.* 6 +.%.%.7.7.8.8.8.g.-.*                 ",
"                    < K u.~ U U U U R ,     < I d.+.~ x.^ 3     d d.b.h.l O @ k 0.Z.B.3 l c.n.j.E W ^ ^ ^ E T %                 ",
"                  O ) w.6.s               O _ s.6.6 4 6.p.&.o   d i.d.c.m.6 l d.b.V.B.3 f x.Z.(                                 ",
"                , ~ q.4.4 .             3 ~ e.=.< . . ; @.k.=.1 d i.d.c.b.9.9.c.b.C.B.5 l b.Z.(                                 ",
"                5 w.r.` .   O p a p p + u u.s.] .     . +.c.M.6 i i.k.0.E y.0.E y.V.B.3 f c.C.-.z z z z z 3                     ",
"                5 w.t.` .   3 O.q.s.k.i 4 e.s.*.+ . X + +.d.l.6 i i.c./ o %.) X $.n.B.3 f c.b.N.l.l.l.l.M.A                     ",
"                5 w.t.` o   . : ! a.k.s 4 e.s.p.4.3.3.3.u.d.z.6 i i.c./ X %.) X @.b.B.3 f c.n.&.< < < < < #                     ",
"                # H 5.9.v $     E s.k.s 6 w.s.0.U I U U 6.d.z.6 i u.c./ . b p X %.c.m.3 g c.n.(                                 ",
"                    Y q.u.g X @ Q a.k.i 4 w.s.] .     . ! d.k.6 i u.c.'       o @.c.l.3 f c.Z.' O # O o O O X                   ",
"                    O v u.6.o.o.w.a.k.s u w.s.] .     . ! s.k.6 i a.f.(       . 2.v.z.3 f v.Z.M.7.h.h.7.h.h.-.>                 ",
"                      $ H J J J J L J - - H L g         k L K $ - J U f       . k U K # ; I U Y R W W W W W P #                 ",
"                                                                                                                                ",
"                                                                                                                                ",
"          . Z } } } } }  .c     N :. . . . . .:.| >       B ;.;.:.B         C >.;.;.>.>.>.>.{ &     m ,.>.;.>.>.>.,.A.9         ",
"        o e I.R.H.G.G.H.!.A.7 . D G.H.E.).(.I.G.F.9   . 0 K.^.P.^.L.q o   o G.].`.U.K.L.K.T.`.V %   C K.L./.[.[.!.L.L.t         ",
"        c T.~. .X . o * H.Q.P.>   X O S.^.~.c . o     w T.(.D.& D.).E.t   . G.`./.j o o . N `.`.|   . o o ,.[.`.V . .           ",
"        M ~.~.[         w c h o     . <.(.!.y       N G./.[ 0   0 G (.J.N o F.`./.r       m `.[.A.        ;.].`.N               ",
"        e D.R.D.q 0 0 q 9 &           <.(.!.y       <._./.j       h ^.].S.o G._./.r     = F `.].>.         .].`.N               ",
"          % G.Q.Y.Y.Y.T.E.G         . <.(.Q.y     . <.)./.c       j /.`.A.o F.`./.t   o D./.).`.;.        ;.].`.N               ",
"          . 0 h h h h M I.U.[ %       ,.^.!.y       <.)./.K.,.,.>.K./.`.A.o F._.).J.;.A.~.L.m m 9          .].`.N               ",
"        o q 0 &       + H.(.T.7     . ,.(.!.y     . ,.).(.I.F.G.G.P.)._.A.o F.`.).I.U.`.`.J.9 .            .`.`.N               ",
"        c Y.Q.G .     % K.^.U.2       <.^.Q.y       ,.).^.m . . . x ^._.A.o F.`./.y M /.).`.W.q           ;.].`.N               ",
"        % c I.Y.:.:.:.<.E.F.e .     . A.(.!.y     . <.)./.j       h ^.'.A.o G.`./.w + M U.].`.K.N         ;.].].N               ",
"          . D <.1.<.1.A.1.M           Z 1.<.8       C D.<.9       2 <.D.Z . F G.A.7   . G J.G.J.S         B F.D.t               ",
"            .   . .   . .               . .           . .           . .     . . .       . . o . .           . .                 ",
"                                                                                                                                ",
"                                                                                                                                ",
"                                                                                                                                ",
"                                                                                                                                ",
"                                                                                                                                ",
"                                                                                                                                ",
"                                                                                                                                ",
"                                                                                                                                ",
"                                                                                                                                ",
"                                                                                                                                ",
"                                                                                                                                ",
"                                                                                                                                ",
"                                                                                                                                ",
"                                                                                                                                ",
"                                                                                                                                ",
"                                                                                                                                ",
"                                                                                                                                ",
"                                                                                                                                ",
"                                                                                                                                "
};
