/* XPM */
static char *_8[] = {
/* columns rows colors chars-per-pixel */
"64 64 223 2 ",
"   c #000000",
".  c #080703",
"X  c #0A0905",
"o  c #0F0F09",
"O  c #100F07",
"+  c #141208",
"@  c #1D1A0C",
"#  c #1D1C11",
"$  c #211E0C",
"%  c #201F13",
"&  c #332A0F",
"*  c #393416",
"=  c #38341B",
"-  c #383621",
";  c #3C3A24",
":  c #4D3F16",
">  c #4C441C",
",  c #56491C",
"<  c #4B482A",
"1  c #534E25",
"2  c #595428",
"3  c #504E32",
"4  c #545231",
"5  c #5D5A34",
"6  c #645A26",
"7  c #725F21",
"8  c #625F37",
"9  c #69632B",
"0  c #7B6624",
"q  c #686438",
"w  c #7A7332",
"e  c #787446",
"r  c #927F31",
"t  c #C77509",
"y  c #D87502",
"u  c #E27E02",
"i  c #998A39",
"p  c #AE9133",
"a  c #B79937",
"s  c #D68204",
"d  c #D98703",
"f  c #DC8A04",
"g  c #DA9619",
"h  c #E58303",
"j  c #EA8500",
"k  c #EB8B01",
"l  c #E2830B",
"z  c #E68B0A",
"x  c #EB8E0A",
"c  c #E39204",
"v  c #ED9404",
"b  c #ED9B01",
"n  c #EB930B",
"m  c #ED9D0C",
"M  c #F09B06",
"N  c #E88C10",
"B  c #EC9412",
"V  c #EA9C17",
"C  c #F09713",
"Z  c #F39E14",
"A  c #EEA203",
"S  c #EFA806",
"D  c #EFA30C",
"F  c #F2A404",
"G  c #F1AC06",
"H  c #F1A50E",
"J  c #F1AC0D",
"K  c #F3B30C",
"L  c #ECA313",
"P  c #ECA41B",
"I  c #EDAB19",
"U  c #F3A315",
"Y  c #F1AB14",
"T  c #F6A419",
"R  c #F3AC1C",
"E  c #F3B314",
"W  c #F5BC14",
"Q  c #F4B41B",
"!  c #F8B31E",
"~  c #F5B91C",
"^  c #D89B2B",
"/  c #D49A32",
"(  c #DCA22B",
")  c #DFA82C",
"_  c #C0A33C",
"`  c #DEA933",
"'  c #DAB039",
"]  c #E6AC26",
"[  c #E9AA26",
"{  c #F0AE27",
"}  c #ECB326",
"|  c #EBB728",
" . c #EDB52C",
".. c #F5B423",
"X. c #F6B627",
"o. c #F4BB23",
"O. c #F9BA24",
"+. c #F3BB2B",
"@. c #F9BC29",
"#. c #E9B737",
"$. c #F1B532",
"%. c #F1BD35",
"&. c #F9BF31",
"*. c #F3BC3A",
"=. c #F7C71C",
"-. c #F6C224",
";. c #F7C826",
":. c #F9CB22",
">. c #F7C32A",
",. c #FAC32C",
"<. c #F9CC2C",
"1. c #FAD424",
"2. c #FAD42D",
"3. c #FBDB29",
"4. c #EEC23D",
"5. c #F3C333",
"6. c #FAC231",
"7. c #F7CA34",
"8. c #FAC932",
"9. c #F3C13D",
"0. c #FAC43A",
"q. c #F6CB3F",
"w. c #FACA3C",
"e. c #FAD535",
"r. c #F8DA37",
"t. c #FAD23A",
"y. c #FBDC3D",
"u. c #FCE02C",
"i. c #FCE639",
"p. c #FCE53C",
"a. c #928E56",
"s. c #989359",
"d. c #B6AB4A",
"f. c #BEB14D",
"g. c #AFAA67",
"h. c #B2AD69",
"j. c #B6B16B",
"k. c #BBB66E",
"l. c #CFB143",
"z. c #C7B54B",
"x. c #EABE41",
"c. c #F2BE43",
"v. c #C2BD72",
"b. c #DCCB58",
"n. c #ECC344",
"m. c #E0C74F",
"M. c #F6C644",
"N. c #F5CA43",
"B. c #FACA44",
"V. c #F4CD4B",
"C. c #FBCD4C",
"Z. c #FBD245",
"A. c #F5D14D",
"S. c #FCD24A",
"D. c #FADC4B",
"F. c #E3CD57",
"G. c #F5C756",
"H. c #FBCF57",
"J. c #F6D353",
"K. c #FCD354",
"L. c #FDDB54",
"P. c #F8D45A",
"I. c #FBDB5B",
"U. c #FAE143",
"Y. c #FDEB44",
"T. c #FDEB4B",
"R. c #FCE254",
"E. c #FDED55",
"W. c #FDE45D",
"Q. c #FEEA5F",
"!. c #FFF253",
"~. c #FEF25A",
"^. c #CEC97A",
"/. c #F2D761",
"(. c #FBD461",
"). c #F7DA62",
"_. c #FBDD64",
"`. c #FCDA6C",
"'. c #FCDD75",
"]. c #F9D778",
"[. c #EFE062",
"{. c #F2E261",
"}. c #FDE363",
"|. c #FEEB64",
" X c #FCE36D",
".X c #FEEE69",
"XX c #FFF463",
"oX c #FFF269",
"OX c #FCE574",
"+X c #FDEB71",
"@X c #FDE37B",
"#X c #FDEA7D",
"$X c #FFF674",
"%X c #FEF47B",
"&X c #FFF97D",
"*X c #DBD681",
"=X c #DED984",
"-X c #EDE78B",
";X c #FDE382",
":X c #FCEB83",
">X c #FCE48C",
",X c #F1EB8D",
"<X c #FEED8B",
"1X c #FEF485",
"2X c #FEF38D",
"3X c #FFF988",
"4X c #E6E294",
"5X c #F6EB90",
"6X c #FDEE91",
"7X c #F7F292",
"8X c #FDF594",
"9X c #FFF997",
"0X c #FEF49C",
"qX c #FFFB99",
"wX c #FFF5A2",
"eX c #FFFBA3",
"rX c #FFF7AB",
"tX c #FFF8AD",
"yX c #FFFAB3",
"uX c #FFFABA",
"iX c #FFFCC3",
"pX c #FFFDCB",
"aX c #FFFED5",
/* pixels */
"                                                                                                                                ",
"                                                                                                                                ",
"                                                                                                                                ",
"                                                                                                                                ",
"                                                                                                                                ",
"                                                                                                                                ",
"                                                                                                                                ",
"                                                                                                                                ",
"                                                                                                                                ",
"                                                    o % - 4 8 q e 5 3 - #                                                       ",
"                                              X - e j.^.,X8X9X9X9X9X8X-X*Xg.e = X                                               ",
"                                          + 5 j.-XqXqXqX9X0X9X9X9X9X0XqXqXqX9X-Xh.5 o                                           ",
"                                      o 4 k.7XqX9X9X9X9XqX9X9X9X8X9XqXqX9X9X9X9XqX7Xk.< .                                       ",
"                                    % s.,XqX9X9X9X9X2X:X X).J.J.J.J.).`.:X2X9XqX0XqXqX-Xs.#                                     ",
"                                  ; ^.qXqX9XqX9X:X).N.5.+.} } ] ] [ [ | +.n.P.#X8X9X9X9XqXv.-                                   ",
"                                3 =X0X9X9X9X:XJ.5.| ] ) ' ' #.' #.' ` ) ( ] } 5.J.#X9X9X9XqX*X<                                 ",
"                              4 4XeXeX0X8X).9.} ( ` #.J.{.+X+X+X|. X{.I.J.x.) ] } 5.).2X9X9XqX=X<                               ",
"                            ; =XeXeXeX0XI.+.( / n.W.+X%X1X%X%X$X+X$X+X X X|.W.A.#.] | V.:X9X9XqX*X-                             ",
"                          % ^.qXqXeX8X{.4./ ' U.!.XX$X$X%X%X$X%X1XXXE.E.E.E.E.E.T.q.} } N.:XqX9XqXv.#                           ",
"                        . s.qX9X9X<XP.4./ 5.i.p.T.~.XX%X3X3X2XuXiX8XD.y.y.y.D.p.p.i.i.| | N.:X9X9XqXa..                         ",
"                        3 ,X9X9X8XA.| / | r.r.p.T.~.$X3XqXeXpXaXiXpX:Xe.r.e.e.e.r.e.r.<.| o.A.7X9X9X,X<                         ",
"                      + v.9X9X9X}.| / ] r.2.r.Y.!.XX$X3XqXpXaXpXiXiXiXL.2.2.e.2.2.r.e.2.1.| +.).9X9XqXj.o                       ",
"                      5 7XqX9X:X5.( ) 1.3.u.i.Y.!.XX$X&XqXaXaXiXiXuXiX5X1.1.3.1.1.1.1.1.1.;.o.5.#X0X9X7X5                       ",
"                    o j.qX9X9XJ.] / :.1.1.u.i.Y.!.~.XX$XyXaXiXuXuXtXtXyXD.1.1.1.1.1.1.1.1.1.-.o.J.8X9XqXg..                     ",
"                    - ,X9X9X#X5.^ ] :.1.1.3.i.p.Y.Y.T.XXiXyXtXrXwX0X0XwX].J J E W =.:.1.1.:.-.~ 5.:X9X9X4X=                     ",
"                    e qX9X9X).| ^ ~ Q E K W =.2.y.R.Q.8XyXeXwX0X8X8X<X>X;X$.{ R Z b A S E Q o.o.o.).9X9X8Xe                     ",
"                  X k.qX9X7X9.^ g A b b Y q. X6XwXtXtXtX0X8X8X2X<X:X:X@X;X;X>X>X>X].G.{ b b A Y ~ N.2X9XqXg..                   ",
"                  # =X9X9XOXP t c b b { `.<X<X<X<X<X2X<X2X:X:X#X@X@X@XOX'.'.'.'.;X;X>X>XG.D b b D I OXqXqX^.#                   ",
"                  - ,X2X3XP.c t b b b M.'.OXOX#X#X:X:X:X#X#X#XOXOX'. X`.`.`.`.`.`.`.`.`./.L b b D D P.2X2X-X=                   ",
"                  4 1X1X1XV.f t b b b X.(.(._. XOX+XOXOX+X X X X_._._.(.(.(.(.(.(.(.H.(.#.v b b D D n.1X1X:X<                   ",
"                  q 1X1X1X*.s s b b b b *.K.I.I._.}.}.}.}._._.I.I.K.K.H.H.H.H.H.H.H.H.c.V b b b D D n.1X1X1X5                   ",
"                  q 1X1X1X%.s d b b b b m *.C.K.L.L.I.L.L.L.K.S.K.S.G.C.C.C.C.C.C.G.c.P b b b b D L %.1X1X1Xq                   ",
"                  9 1X3X1X%.s f b b b b b m { B.Z.S.S.S.S.Z.C.C.B.B.B.M.B.B.B.B.N.%.P A b b b b D D %.1X1X1Xq                   ",
"                  6 W.#X1X9.d f b b b b b b m { 0.w.w.w.w.w.w.0.0.0.0.0.0.0.0.0.%.I S F A A b b L Y 4.2X:X}.,                   ",
"                  , V.K. XM.c d b b b b b b b v { @.6.&.6.6.&.&.&.&.&.6.6.8.0.@.Y K K G G G A b Y L M.OXL.B.>                   ",
"                  & N.B.C.$.h s b b b b b b b b R @.@.@.@.@.@.@.@.@.@.@.,.,.8.,.E K K K K G G A Q V %.S.B.n.&                   ",
"                  $ ' S.S.*.h y j k v v M M M b ..@.@.@.@.@.@.@.@.@.@.@.,.,.8.8.Q W W W K J G b U x *.S.S.' +                   ",
"                  X a S.Z.B.B y u j j j j j k M ..O.X.O.@.@.@.@.O.O.,.,.,.8.8.8.o.Q W Q Q Y H U Z V B.S.S.p .                   ",
"                    0 S.S.C.[ u u j j j j j j k Z T Z T T T T { ! ! ! ! O.~ @.,.o.~ ~ ~ ~ E Y ! m { C.C.S.7                     ",
"                    * n.S.C.*.z h k j j j j j C Z Z T Z Z T Z C C Z ! ! ! O.@.,.X.o.O.O.O.~ ~ O.L 0.S.S.n.&                     ",
"                    X a S.S.S.P j v M M k k j v T Z T T Z C N u u x T ! O.O.,.8.+.o.>.>.:.:.8.Q o.Z.S.S.p .                     ",
"                      , S.S.S.9.x v F F F M v C T U Z B N l u j j x B U ..@.,.8.@.>.:.2.2.e.,...B.L.S.V.,                       ",
"                      O _ L.S.S.{ x m F F F F M B N l l l h k x j v v D P Q +.+.,.<.2.2.r.t.O.q.L.D.L.a o                       ",
"                        , A.L.L.J.V x U H F H F n z n m M M v v v b D E W ~ o.+.,.<.e.t.Z.>.7.R.L.L.V.>                         ",
"                        . i L.L.L.V.V v Z U U J H H J U U J D Y D Y Y E W ~ -.;.<.<.e.Z.>.7.R.W.L.L.r                           ",
"                          $ l.R.R.L.V.V v T U U Y Y Y Y Y I Y Y Y Y I E ~ ~ -.>.<.t.w.-.7.W.}.W.Q.z.$                           ",
"                            * m.W.W.W.V.P n U R R P R R R I R R R R R Q ~ ~ o.>.7.>.Q 7.R.Q.}..Xb.*                             ",
"                              , F.Q.W.Q.L. .n m R R R I R R R R R } R R ....@.o.Y Q q.W.}.W.Q.F.<                               ",
"                                1 b.Q.Q.W.W.V.[ m m Y ..............X.X...R D L +.S.Q.Q.W.Q.b.>                                 ",
"                                  : z.|.|.}.|.W.A.$.P m m L U U Y U L m m I %.A.}.}.Q.|.|.z.*                                   ",
"                                    $ i W.|.|.|.|.|.W.A.9.5.$.} } $.5.N.J.Q.|.|.|.|..X{.i @                                     ",
"                                      X 1 f.|.oX.X.XXX.XoX|.|.|.|.|..X.X|..X.X.XoX|.f.> .                                       ",
"                                          + 2 d.[.oXoXoXoXoXoX.XoX.X.XoXoXoXoX[.d.2 O                                           ",
"                                              X * w d.b.{.|.|.oX.XXX|.{.b.d.w * .                                               ",
"                                                    X @ = 1 9 9 9 6 1 * @ .                                                     ",
"                                                                                                                                ",
"                                                                                                                                ",
"                                                                                                                                ",
"                                                                                                                                ",
"                                                                                                                                ",
"                                                                                                                                ",
"                                                                                                                                ",
"                                                                                                                                ",
"                                                                                                                                "
};
