/* XPM */
static char *_9[] = {
/* columns rows colors chars-per-pixel */
"64 64 224 2 ",
"   c #000000",
".  c #0B0A05",
"X  c #0E0E08",
"o  c #100E06",
"O  c #141107",
"+  c #14130B",
"@  c #1B190C",
"#  c #1D1C11",
"$  c #211F0E",
"%  c #2A240D",
"&  c #30280E",
"*  c #282614",
"=  c #332E15",
"-  c #353216",
";  c #393519",
":  c #3B3A23",
">  c #453D18",
",  c #4B441C",
"<  c #56471A",
"1  c #66541E",
"2  c #48462A",
"3  c #514E2D",
"4  c #585428",
"5  c #545232",
"6  c #5E5A34",
"7  c #625D34",
"8  c #7A6D2C",
"9  c #676339",
"0  c #7C7231",
"q  c #6B6842",
"w  c #726F43",
"e  c #7B7748",
"r  c #85742D",
"t  c #C16E0A",
"y  c #CA7808",
"u  c #D87802",
"i  c #E17E02",
"p  c #968D3D",
"a  c #A88B31",
"s  c #AD9436",
"d  c #B7A13F",
"f  c #D68304",
"g  c #DA8703",
"h  c #DC8A04",
"j  c #D89115",
"k  c #E48304",
"l  c #EA8500",
"z  c #EB8B02",
"x  c #E3840C",
"c  c #E68B0D",
"v  c #EA8E0C",
"b  c #E39204",
"n  c #ED9303",
"m  c #ED9B01",
"M  c #EB940C",
"N  c #EE9C0A",
"B  c #F19D00",
"V  c #F09D0A",
"C  c #EC9413",
"Z  c #EA9F13",
"A  c #EC9D19",
"S  c #F39E13",
"D  c #EEA202",
"F  c #EFA30C",
"G  c #F2A303",
"H  c #F0AA04",
"J  c #F1A30C",
"K  c #F1AC0B",
"L  c #F3B40C",
"P  c #F4BB0F",
"I  c #EDA314",
"U  c #EDAA15",
"Y  c #ECA61E",
"T  c #F3A414",
"R  c #F1AA15",
"E  c #F6A519",
"W  c #F3AD1C",
"Q  c #F3B314",
"!  c #F5BB15",
"~  c #F4B41C",
"^  c #F8B21D",
"/  c #F5BB1C",
"(  c #D5982C",
")  c #D99D2B",
"_  c #D29931",
"`  c #DEA42A",
"'  c #DAAA36",
"]  c #D7B23E",
"[  c #E1A627",
"{  c #E5AB26",
"}  c #E7AB26",
"|  c #EDAC28",
" . c #E8AC2C",
".. c #EBB326",
"X. c #EFB228",
"o. c #ECBB2B",
"O. c #F5B523",
"+. c #F8B523",
"@. c #F4BC23",
"#. c #F9BA25",
"$. c #F1B22D",
"%. c #F4BC2B",
"&. c #F9BC2A",
"*. c #E9B637",
"=. c #ECBC3C",
"-. c #F3B731",
";. c #F1BC35",
":. c #F1BB3B",
">. c #F8CA1E",
",. c #F6C224",
"<. c #F7C626",
"1. c #F9CD24",
"2. c #FAC32C",
"3. c #F9CB2C",
"4. c #FAD524",
"5. c #FAD42D",
"6. c #FBDA28",
"7. c #EDC631",
"8. c #F4C333",
"9. c #FAC330",
"0. c #FACA33",
"q. c #F3C23C",
"w. c #FAC439",
"e. c #F6CD3B",
"r. c #FACA3B",
"t. c #F9D334",
"y. c #F9DA35",
"u. c #FAD43C",
"i. c #FADA3A",
"p. c #FCE12D",
"a. c #FCE337",
"s. c #FCE43B",
"d. c #85824E",
"f. c #8C8852",
"g. c #9A965B",
"h. c #A69942",
"j. c #B2A244",
"k. c #AAA664",
"l. c #B8B36C",
"z. c #B8B46D",
"x. c #C8B74D",
"c. c #C7B751",
"v. c #D1BC50",
"b. c #E5BD43",
"n. c #DBCA56",
"m. c #EBC143",
"M. c #EAC84A",
"N. c #F3C543",
"B. c #F9C642",
"V. c #F4CA44",
"C. c #FACB44",
"Z. c #F3C549",
"A. c #F3CD49",
"S. c #FBCC4C",
"D. c #FBD244",
"F. c #F6D24E",
"G. c #FCD24B",
"H. c #FAD84B",
"J. c #FBCF55",
"K. c #F5CB5B",
"L. c #E3D45B",
"P. c #F6D253",
"I. c #FBD453",
"U. c #FCDB54",
"Y. c #F5D55B",
"T. c #FBD45E",
"R. c #F7D95D",
"E. c #FBDC5A",
"W. c #FEEA44",
"Q. c #FCE749",
"!. c #FDE257",
"~. c #FDEC51",
"^. c #FEE45D",
"/. c #FEF257",
"(. c #C8C376",
"). c #CEC97A",
"_. c #D2CC7C",
"`. c #D7D17E",
"'. c #F3D761",
"]. c #F7D566",
"[. c #FCDC62",
"{. c #FCDA6A",
"}. c #FCDD74",
"|. c #F3E363",
" X c #FDE462",
".X c #FEEB64",
"XX c #FDE46C",
"oX c #FEEE69",
"OX c #FFF462",
"+X c #FFF26A",
"@X c #F7E071",
"#X c #FCE473",
"$X c #FDEB75",
"%X c #FBE57C",
"&X c #FDEA7C",
"*X c #FEF474",
"=X c #FEF57C",
"-X c #FFF87C",
";X c #DBD682",
":X c #EBE58B",
">X c #EFE98D",
",X c #FDE483",
"<X c #FDEC84",
"1X c #F7E78A",
"2X c #FDEE8A",
"3X c #FEF485",
"4X c #FFF887",
"5X c #FEF28B",
"6X c #EEEA9A",
"7X c #F8EB95",
"8X c #F7F192",
"9X c #FDF593",
"0X c #FFF896",
"qX c #FEF39A",
"wX c #FFFB99",
"eX c #FFF6A4",
"rX c #FFFBA3",
"tX c #FFF7AA",
"yX c #FFF9AC",
"uX c #FFFAB4",
"iX c #FFFAB8",
"pX c #FFFCC3",
"aX c #FFFDCD",
"sX c #FFFED6",
/* pixels */
"                                                                                                                                ",
"                                                                                                                                ",
"                                                                                                                                ",
"                                                                                                                                ",
"                                                                                                                                ",
"                                                                                                                                ",
"                                                                                                                                ",
"                                                                                                                                ",
"                                                                                                                                ",
"                                                                                                                                ",
"                                                                                                                                ",
"                                                                                                                                ",
"                                                                                                                                ",
"                                                                                                                                ",
"                                                                                                                                ",
"                                                    + ; 5 w d.f.f.d.w 5 : X                                                     ",
"                                              # 5 g._.>X9XwX0XwXwXwX0X9X:X).g.3 #                                               ",
"                                          * e ).8X0XwX0X0X0X0X0X0X0X0X0X0XwX0X9X).e #                                           ",
"                                      X w `.wXwX0X0XwXwX0X0X9X9X9X9X9X0XwX0X0X0XqX0X;X9 X                                       ",
"                                    ; l.9XwX0XqX0X0X2X#XR.P.F.e.V.A.P.'.#X<X0XwX0X0XwX8Xl.-                                     ",
"                                . 5 ;X0X0X0X0X9X#XP.8.,.o.{ { { ` ` { { o.8.P.@X5XwX0X0XwX`.3                                   ",
"                                q 6XrX0X0X9X#XA.7...` ' ] *.m.m.q.=.*.' ` ` } %.A.@X9XwX0XwX:X9                                 ",
"                              q 6XyXrXrX5XY.8.} ` ' M.R..X$X$X$X$XXXXX|.Y.M.*.` } 7.P.2X0X0XwX>X9                               ",
"                            5 :XwXrXrX9XP...( ' A.^.$X=X=X3X=X*X*X$XoX.XoXoX.XH.;.} ..N.%X0X0XwX:X2                             ",
"                          = ;XwXwXrX2XR.=._ *.W././.+X-X4X-X-X3X4X.X~.~.~.~.~.~.~.i.o...7.%XwX0XqX;X*                           ",
"                        X k.wXwXwX<XF.=._ 7.s.W.~./.+X-X4X4X0XpXpXeXU.i.u.i.i.s.s.W.y.o.o.q.%X0X9XwXk..                         ",
"                        9 8X0X0X5XA.} _ 7.t.y.W././.*X4XwXyXaXaXpXaX2Xt.t.u.t.t.t.t.i.5.o...V.5XwX0X8X6                         ",
"                      # ).wX0X9XR...( o.5.5.a.W./.OX*X4XwXaXsXaXpXpXpX^.5.5.5.5.5.5.5.5.5.@.@.Y.9X0XwX(.#                       ",
"                      q 0X0X0X&X8.) ` 4.4.p.a.W././.*X-XwXsXaXaXpXiXpXqX5.4.4.4.4.4.4.4.4.1./ 8.%X0X0X9X9                       ",
"                    X (.0X0X9XF.} ) 1.4.4.p.s.W././.OX+XuXaXpXiXuXtXtXuX!.>.4.4.4.4.4.4.4.4.,.@.F.8X0XwXz.X                     ",
"                    2 >X0X0X&X8.) ..<.1.4.6.6.a.W.W.W..XpXuXyXrXeXqX7XqX}.J H K Q ! >.1.1.1.,.@.7.%X0X0X>X:                     ",
"                    d.0X0X0XR.} ) / Q K L P 1.t.Q.|.$XqXuXrXqXqX7X2X2X2X,XZ.=. .U Z m D K Q / @.@.Y.0X0XwXe                     ",
"                  . z.wX0X5Xm.j j B m m ~ I.%XqXeXyXyXrX0X9X9X2X2X<X,X,X%X,X,X7X7X1X].b.C n m J ~ q.5X0XwXz..                   ",
"                  * :XwX9X}.I t n m m $.}.,X<X2X2X5X2X5X2X<X<X&X&X#X#X}.}.}.}.}.}.}.,X1XK.S m m F U }.9X0X;X#                   ",
"                  : >X5X4XP.b y m m m Z.{.}.#X$X&X&X&X&X&X$X$X#X#X{.{.{.{.{.{.{.{.{.].{.K.S n m F F Y.4X4X>X:                   ",
"                  6 3X3X3XM.h y m m m W T.[.[.XXXX#X#X#XXXXXXX{.[.[.[.[.T.T.T.T.T.T.T.T.-.V m m F F Z.3X3X<X3                   ",
"                  9 4X3X3X=.f f m m m D $.P.T.E.E.[. X X[.E.[.E.T.].I.J.I.J.J.J.J.J.J.b.Z m m m F F =.3X3X3X7                   ",
"                  9 3X4X3X;.f g m m m m N $.S.F.U.U.U.T.U.U.U.G.G.S.S.S.S.S.S.S.S.S.:.Z m m m m F I ;.3X5X3X9                   ",
"                  7 3X3X3X;.g h m m m m m N | w.C.G.G.G.G.C.C.S.B.B.B.B.C.C.B.B.C.;.I D m m m m F R ;.3X4X3X7                   ",
"                  1 E.$X3Xq.h h m m m m m m N } 9.w.r.0.r.r.w.B.w.w.w.w.:.w.w.w.o.U H H D D m m R F m.3X&XE.<                   ",
"                  < C.G.[.N.h h m m m m m m m m | &.&.w.&.&.&.&.&.&.&.w.9.9.0.&.R K L H H H G m ~ T Z.XXI.C.>                   ",
"                  & m.G.G.$.k u n m m m m m m m E &.&.&.&.&.&.&.&.&.&.2.2.2.0.2.Q P L P L L H D W M ;.G.G.m.&                   ",
"                  @ ] G.S.:.v u l z z n m n m m +.&.&.&.&.&.&.&.#.&.&.2.2.0.0.0./ ! ! ! ! K H N I v q.G.G.' @                   ",
"                  . a G.G.C.C u k l l l l z z M E +.+.$.&.&.&.+.&.&.#.2.2.3.2.3.@.! ~ ~ Q R J R N A C.S.G.a                     ",
"                    8 G.G.S.| i i l l l l l l z E S E E E E E E E ^ ^ ^ ^ #.#.2.O.~ / @.^ ~ Q ^ V $.S.G.C.1                     ",
"                    % =.G.G.:.v l z z l l l l v S S S E S S S C v T E ^ ^ #.&.2.%.@.@.#.,./ #.^ R B.G.G.b.%                     ",
"                      a G.G.S.| z n G B n l l v E E S S S C x x k v T +.#.#.2.0.&.@.<.<.1.1.0.W %.G.G.G.a                       ",
"                      < A.G.G.B.C n G G G B B V S E S C c x k l l v M I ^ 2.2.0.%.3.3.5.4.u.2.@.H.G.G.A.>                       ",
"                      . s U.G.H.-.z V J G G G N M c h x k z z l l n n J U ..X.%.2.3.5.t.u.e.,.A.U.H.U.s .                       ",
"                        > M.U.U.F.| v V J J J J M M C N V N N N V V K L ! / @.,.2.5.5.u.D.,.u.!.U.U.M.-                         ",
"                        . r U.U.U.F.Y M T T J R T K R J F R T K J R Q Q ~ / ,.<.3.0.u.D.<.e.!.!.U.U.r                           ",
"                          O j.!.U.U.F.Y M T R T U W R R W R R U R R R ~ ~ / ,.,.3.u.0./ e.^..X^. Xd o                           ",
"                            & v.!.!.!.I.| M S W W T W W W W W W W W ~ W O.~ @.3.0./ ~ u.^.^. XXXc.%                             ",
"                              - n.^.^.^.U.q.Z M T W W W U W W | W W W | W #.%.^ K ..A.^.^.^.^.n.-                               ",
"                                ; v..X^. X^.U.o.I N I W O.X.#.#.O.%.#.O.O.T N U 8.!.^..X^..Xx.-                                 ",
"                                  % j. X.X.X.X^.R.q.| F N N N T T I N N I ..N.!. X X.X.X Xh.%                                   ",
"                                    O 0 L.+X+X.X.X.X.XE.F.V.8.;.;.8.V.F.!..X.X.X.X.XoXL.8 .                                     ",
"                                        - h.|.+X+X+X.X+X.XoXoXoX.XoXoXoXoXoX.X+X+X|.h.=                                         ",
"                                          . ; p n.+X+X+X+X+X+X+XoX+X+XoX+X+XoXn.p >                                             ",
"                                                $ 4 h.j.L.|.|.+X.X|.|.L.j.p 4 #                                                 ",
"                                                      . % - ; , , , - % +                                                       ",
"                                                                                                                                ",
"                                                                                                                                ",
"                                                                                                                                "
};
