/* XPM */
static char *_[] = {
/* columns rows colors chars-per-pixel */
"64 64 237 2 ",
"   c #000000",
".  c #090606",
"X  c #0E0807",
"o  c #0D0B0B",
"O  c #140C0A",
"+  c #1A0D0B",
"@  c #15100F",
"#  c #1C100D",
"$  c #121212",
"%  c #1C1615",
"&  c #1C1817",
"*  c #1C1C1C",
"=  c #27120D",
"-  c #261917",
";  c #391B16",
":  c #2A211F",
">  c #34221D",
",  c #242322",
"<  c #2C2624",
"1  c #2D2B2B",
"2  c #382C2B",
"3  c #343333",
"4  c #393533",
"5  c #3D3836",
"6  c #3D3B3B",
"7  c #491B12",
"8  c #77150F",
"9  c #4D251A",
"0  c #5B2A1D",
"q  c #702A1B",
"w  c #442D28",
"e  c #50342E",
"r  c #473734",
"t  c #413D3C",
"y  c #573632",
"u  c #6C2F25",
"i  c #7C3428",
"p  c #6A3D36",
"a  c #59413D",
"s  c #454443",
"d  c #4A4645",
"f  c #4C4A49",
"g  c #504E4E",
"h  c #595757",
"j  c #664A44",
"k  c #71534D",
"l  c #675B58",
"z  c #7B5954",
"x  c #7F6158",
"c  c #626161",
"v  c #6B6868",
"b  c #777677",
"n  c #870704",
"m  c #820E09",
"M  c #960906",
"N  c #910E0B",
"B  c #84100B",
"V  c #991109",
"C  c #861C10",
"Z  c #9A1914",
"A  c #A40E05",
"S  c #88251B",
"D  c #992717",
"F  c #89331E",
"G  c #A72716",
"H  c #B52C17",
"J  c #A8341E",
"K  c #B6361C",
"L  c #842D23",
"P  c #863629",
"I  c #953528",
"U  c #963728",
"Y  c #A33824",
"T  c #AB372B",
"R  c #B53927",
"E  c #CC1F0A",
"W  c #D11E0A",
"Q  c #CF210B",
"!  c #D1210B",
"~  c #D7260D",
"^  c #DC290E",
"/  c #CA2A16",
"(  c #D42B11",
")  c #D32C13",
"_  c #C9351D",
"`  c #D23316",
"'  c #DB3512",
"]  c #DC3B16",
"[  c #D23219",
"{  c #D53B1E",
"}  c #DC3D1B",
"|  c #E2240A",
" . c #E42A0E",
".. c #E42E12",
"X. c #E63616",
"o. c #F03E18",
"O. c #C73B26",
"+. c #D43C22",
"@. c #D93B22",
"#. c #E03D22",
"$. c #8B493F",
"%. c #954335",
"&. c #B54129",
"*. c #A44936",
"=. c #B64B38",
"-. c #B45538",
";. c #DC441E",
":. c #E2441B",
">. c #E7491A",
",. c #E54A1D",
"<. c #EA531D",
"1. c #C84527",
"2. c #D64225",
"3. c #DA4423",
"4. c #DD4A26",
"5. c #D5452B",
"6. c #D94729",
"7. c #D74A2B",
"8. c #DC4B2B",
"9. c #DE512C",
"0. c #C94B37",
"q. c #D54B33",
"w. c #D64C35",
"e. c #C75439",
"r. c #DB5636",
"t. c #D5523D",
"y. c #E14421",
"u. c #E44C22",
"i. c #E54A27",
"p. c #E65225",
"a. c #E95525",
"s. c #EC5B25",
"d. c #E4542B",
"f. c #E85729",
"g. c #E5582E",
"h. c #E95B2C",
"j. c #F25125",
"k. c #E35A34",
"l. c #E35A37",
"z. c #EA5D32",
"x. c #ED622C",
"c. c #EB6234",
"v. c #EF6B37",
"b. c #EB6639",
"n. c #EC6A3D",
"m. c #F16B35",
"M. c #F3733B",
"N. c #F4783C",
"B. c #8A564B",
"V. c #855A55",
"C. c #B6574B",
"Z. c #B1574E",
"A. c #B95F53",
"S. c #956353",
"D. c #A96554",
"F. c #BB6759",
"G. c #986A62",
"H. c #987267",
"J. c #877873",
"K. c #A66D65",
"L. c #B96D64",
"P. c #A6766A",
"I. c #B8776B",
"U. c #BE7970",
"Y. c #C65848",
"T. c #D45542",
"R. c #D65944",
"E. c #D95A45",
"W. c #D65C4A",
"Q. c #CE624B",
"!. c #D8654A",
"~. c #C46658",
"^. c #D66454",
"/. c #D96757",
"(. c #D96B5C",
"). c #D87357",
"_. c #E76945",
"`. c #EC6D42",
"'. c #ED7146",
"]. c #EA774D",
"[. c #ED754C",
"{. c #F37A45",
"}. c #E57654",
"|. c #EE7A53",
" X c #EC7E5A",
".X c #F07750",
"XX c #F07E56",
"oX c #D86E60",
"OX c #C97966",
"+X c #DA7768",
"@X c #C17B73",
"#X c #DF7D70",
"$X c #EB7F61",
"%X c #8A817F",
"&X c #B6897A",
"*X c #EF815C",
"=X c #F48454",
"-X c #F4875A",
";X c #F48A5C",
":X c #DF8364",
">X c #C6847B",
",X c #D98478",
"<X c #EF8562",
"1X c #E78C6A",
"2X c #F08763",
"3X c #F28C66",
"4X c #F08C6B",
"5X c #F4926C",
"6X c #E08276",
"7X c #E99578",
"8X c #F29473",
"9X c #F49976",
"0X c #F29679",
"qX c #F49B7C",
"wX c #F9A07E",
"eX c #868585",
"rX c #8B8A8A",
"tX c #989899",
"yX c #B8968F",
"uX c #ABA5A4",
"iX c #BAA9A5",
"pX c #B9BABB",
"aX c #CD9187",
"sX c #CA988B",
"dX c #E89C85",
"fX c #F39D82",
"gX c #F4A186",
"hX c #F4A38A",
"jX c #F8A78A",
"kX c #EDAA93",
"lX c #E7AB98",
"zX c #F6AC95",
"xX c #F4B19D",
"cX c #F9B29A",
"vX c #C2BAB9",
"bX c #F5B3A1",
"nX c #CBC8C8",
/* pixels */
"                                                                                                                                ",
"                                                                                                                                ",
"                                                                                                                                ",
"                                                                                                                                ",
"                                                                                                                                ",
"                                                                                                                                ",
"                                                                                                                                ",
"                                                                                                                                ",
"                                                                                                                                ",
"                                        .                                             .                                         ",
"                                  . $ 3 s o                                         . , 1 * .                                   ",
"                                o , 6 v 3                                             & 4 s s $                                 ",
"                              o 1 4 v v $                                             o 2 r c c $                               ",
"                              1 4 f b f                                                 < 4 f rXh                               ",
"                            $ s t h rX6               . $ - 2 e e 2 > O                 1 r t J.rX&                             ",
"                            , g t h tXh     . o   o w B.~.).}..X X X:XOXS.e O   o o     4 d t b tX3                             ",
"                            , s 4 g rXb 1 $ c eXg D.}._.z.a.s.s.s.x.c.M.=X3XI.j %Xc $ * 4 4 6 b rX3                             ",
"                            , 6 1 6 h v s f rXyX/.l.y.>.>.>.<.s.s.x.x.v.M.N.=X3XD.v h 1 , 3 f b b ,                             ",
"                            $ 6 , 1 6 s 1 f iX!.@.:.:.>.>.>.s.s.x.x.v.M.{.=X=X-X].P.rXs 6 d c v c $                             ",
"                              5 1 - < 1 s %XoX{ ] :.>.,.a.s.s.x.x.m.'.|.;X4XqXqX9X7XiXtXh c v l s .                             ",
"                              & s - & 3 rXP.q.@.3.d.d.d.f.f.h.c.c.n.{.*X3X0XhXkXjXqX&XnXeXc h h *                               ",
"                                1 s , b z &.t.8.9.k.l.d.g.g.x.x.c.n.'.*X3X9XhXxXxXjX*XyXpXh h 3                                 ",
"                                  3 v %X%.E.T.w.r.l.r.g.g.f.h.c.c.n.'.].2X7XhXxXxXzX9X:XvXrX6 .                                 ",
"                                  * uXK.T.(.r.w.r.r.l.g.f.f.g.x.c.v.'.].*X8XfXzXxXkXkX1X>XuX*                                   ",
"                                  * uXOX~.~.T.w.w.l.9.d.a.d.x.g.c.c.`.].*X4XqXkXzXkXdXhX7XuX,                                   ",
"                                    4 >XoXP I R q.l.d.d.9.a.f.x.c.c.n.].*X4X0XfXdXaX@XdXlXr                                     ",
"                                    : #X+XT i L P Y 5.d.p.a.9.x.h.c.n.]. X<X+X@XaXyXOXjXlXw                                     ",
"                                    w aXoXY.D L P i S Y 7.a.s.g.c.c.n._.W.A.@X&X>XL.7XgXbXd                                     ",
"                                    y aX/.E.O.L L L q q C R s.x.z.c.q.=.A.L.U.U.D.OXjXwXcXk                                     ",
"                                    k ,X/.t.w.H S L L S C 8 D d.z.1.T Z.A.L.U.D.F.hXfXqXzXx                                     ",
"                                    k #X^.T.6.6.K G D D D C C 9.g.K T =.C.~.F.~.dXjXqX9XjXH.                                    ",
"                                    V.#XE.w.6.6.i.5.2.2.3.;.4.h.h.g.l._._.$X2X7XhXhXqX9XjXG.                                    ",
"                                    V.#XW.w.6.6.8.4.4.,.,.p.a.f.h.z.b.`..X2X4X0XfXhXfX5XjXH.                                    ",
"                                  . V.+XW.q.6.6.4.3.,.,.,.p.a.f.h.h.c.`.|. X2X8XfXhXqX5XjXP.                                    ",
"                                  X K.+XE.q.5.6.;.` ] ;.,.u.a.a.f.h.c.`.[. X_.}.fXfXqX5XqX>Xo                                   ",
"                7 u 0 - o       . y #X(.T.q.5.8.{ V G ` :.,.,.>.,.a.h.n._.0.J O.qXjX9X5X9XzXj .       o = 9 q 9                 ",
"              - 1.`.<X!.=.%.i i I t./.W.t.q.5.8.3.M 8 8 G H H D D G H K Y S Z / 9XhX9X3X5XjX4X=.%.i %.&.2.y.z.1X>               ",
"              = 1.4.*X3Xb.j.X.X.~ ) @.@.q.q.5.8.d.A n 8 m m m m B B m 8 m m M +.fXgX9X3X;X3X4Xj.o.o.X. ...' a.).>               ",
"              X %.} p.[.[.l.#.} @.[ Q ~ [ +.2.6.h.H M M n N N N N N N M M n A _.gXgX9X;X{.=X$Xi... . . .^ ' i.-.o               ",
"                > C.+.y.z.z.i.i.@.+.W ! ! [ +.+.d.8.V M Z Z G O.O.T G Z M M O.2XhXfX9X=XN.M.`.o... .| ^ ^ } !.9                 ",
"                  y Y.@.X.i.#.#.@./ W W ) [ +.+.8.k.O.H H 1.p.h.n.'.!.0.R 1.[.8XfXfXfX-XN.m.b.X.| | | ^ } E.p                   ",
"                  . y Y.+.` ( ( ) Q W Q ) [ +.+.8.d.h.d.d.f.h.h.z.`.[.-X X X2XfXfXhX0X-XN.m.z...| | ..#.!.p .                   ",
"                      w Z.+.( W W E Q / [ +.+.5.8.d.d.d.d.f.f.z.z.n.'.|.*X<X4XqXhXgX0X2X{.m.z.X.| ..i.Y.e                       ",
"                        - k C.+./ / [ +.t.q.5.5.8.w.9.d.p.f.f.h.z.b.`.|.<X2X0XfXhXhX9X3X{.M.c.:.i.T.$.-                         ",
"                          . - p C.T.W./.W.w.5.5.8.9.k.d.a.a.f.h.c.c.`.|. X4X7XfXhXhXqX3X=X=XXXQ.p ; .                           ",
"                                < U.#X(.W.q.5.5.8.9.9.d.d.g.h.c.c.c.`.|.-X4X0XfXhXhXqX3X3XwX,X> .                               ",
"                                  V.6XoXW.w.5.5.8.8.9.d.p.d.g.h.c.n.`.|.<X4X0XfXhXhXfX8X9XzXP.                                  ",
"                                  V.#X(.W.w.5.8.8.8.d.8.d.a.f.h.c.c.`.|.<X4X0XfXhXhXgX9X9XzXH.                                  ",
"                                  G.#X(.T.q.6.6.6.i.8.d.p.p.g.h.z.b.`.|.2X4X0XfXhXhXwX9X9XzX&XX                                 ",
"                                $ I.#X(.T.q.5.3.6.4.4.d.u.p.a.f.z.c.`.|.<X4X7XfXhXzXgX9X9XjXsX$                                 ",
"                                - @X+X/.T.5.+.5.4.4.3.u.u.u.a.f.h.c.`.[.2X4X8XqXhXhXgXqX9XqXlX:                                 ",
"                                w ,XoX/.T.5.5.5.3.3.3.3.u.,.p.a.g.c.`.[.<X2X7XqXqXhXgXqX9XwXlXa                                 ",
"                                y aX(.W.w.2.2.2.3.3.;.:.:.,.p.a.h.c.n.].*X2X4X0XqXhXhXqX9XqXcXl                                 ",
"                                z ,X(.E.q.2.{ } } } ;.;.:.,.,.a.a.h.b.[.*X2X4X0X7XgXhXqX9X9XcXH.                                ",
"                                G.#X^.0.2.+.{ { { ' ' ] ] >.,.>.,.u.c.'.|.|.;X1X9XqXqXqX9X9XkX&X.                               ",
"                              O I.oXR.q.{ [ ` ` ' ' _ ` ' :.u.&.J } a.n.`.r.b.*X8X7XqXqX9X9XfXsX$                               ",
"                              % @X^.t.+.[ _ [ ) X.Y 7 7 J 2.F O X q 2.1.0 > J c.=X-XXX3X9X8X9XdX-                               ",
"                              % OXT.+._ _ P q J F #     + =         = +     + F -.i P r.2X5X5XdX<                               ",
"                              % F.t.0.+.I X   X .                               X   . P b.-X X1X:                               ",
"                              $ C.0.u 0 +                                             O 0 u e.).%                               ",
"                              . P I o                                                     X P *..                               ",
"                                + +                                                         $ +                                 ",
"                                                                                                                                ",
"                                                                                                                                "
};
