/* XPM */
static char *_[] = {
/* columns rows colors chars-per-pixel */
"64 64 150 2 ",
"   c #000000",
".  c #0C0305",
"X  c #110507",
"o  c #140609",
"O  c #1B070B",
"+  c #1B080C",
"@  c #181818",
"#  c #230A0F",
"$  c #260B10",
"%  c #2A0C12",
"&  c #310E15",
"*  c #390E17",
"=  c #351016",
"-  c #3B1219",
";  c #2C2C2C",
":  c #3B3B3B",
">  c #400F1A",
",  c #43141C",
"<  c #49151E",
"1  c #4D1620",
"2  c #4E1821",
"3  c #531522",
"4  c #5C1625",
"5  c #521923",
"6  c #5B1C27",
"7  c #551D28",
"8  c #611727",
"9  c #641D2B",
"0  c #6C1B2D",
"q  c #721C2F",
"w  c #6E1C31",
"e  c #741C31",
"r  c #7B1C34",
"t  c #5B363F",
"y  c #63222F",
"u  c #6B202D",
"i  c #6B2331",
"p  c #6E2B3C",
"a  c #742332",
"s  c #7B2334",
"d  c #762B39",
"f  c #6C333D",
"g  c #663F49",
"h  c #474747",
"j  c #595959",
"k  c #7E4F5B",
"l  c #7E5761",
"z  c #6A6767",
"x  c #756266",
"c  c #707070",
"v  c #7F7074",
"b  c #797979",
"n  c #842437",
"m  c #872538",
"M  c #8C243A",
"N  c #852839",
"B  c #8C2A3B",
"V  c #94253D",
"C  c #99263F",
"Z  c #942A3E",
"A  c #99283F",
"S  c #9D2740",
"D  c #962D40",
"F  c #9C2B41",
"G  c #873142",
"H  c #8D3141",
"J  c #9E3043",
"K  c #A42743",
"L  c #A42B44",
"P  c #AB2A46",
"I  c #B32B49",
"U  c #BE2E4E",
"Y  c #A33145",
"T  c #A83247",
"R  c #A5364A",
"E  c #AC3349",
"W  c #B4364C",
"Q  c #B9364E",
"!  c #B9384F",
"~  c #BE3951",
"^  c #C12E4F",
"/  c #C32F50",
"(  c #C43B53",
")  c #CB3D56",
"_  c #CF3F58",
"`  c #D13F59",
"'  c #8D535D",
"]  c #A74B5B",
"[  c #B54459",
"{  c #8B5A63",
"}  c #9A5460",
"|  c #B14F60",
" . c #BE4C61",
".. c #AB5967",
"X. c #A45E6A",
"o. c #BC5A6B",
"O. c #936D75",
"+. c #BF6272",
"@. c #A9707A",
"#. c #D4415A",
"$. c #DC435D",
"%. c #E0445F",
"&. c #CA4E64",
"*. c #DC4661",
"=. c #D44962",
"-. c #DE5772",
";. c #E54561",
":. c #EA4763",
">. c #ED4865",
",. c #F24967",
"<. c #F54B68",
"1. c #FE4D6D",
"2. c #FF506F",
"3. c #FF5372",
"4. c #FD5B7A",
"5. c #FC607F",
"6. c #B07781",
"7. c #FE6382",
"8. c #858484",
"9. c #898182",
"0. c #998387",
"q. c #8E9090",
"w. c #9C9496",
"e. c #9B9B9B",
"r. c #B0848C",
"t. c #A69599",
"y. c #AC969B",
"u. c #BA9A9F",
"i. c #B19CA0",
"p. c #A5A7A6",
"a. c #ACACAC",
"s. c #BFA3A8",
"d. c #B9AFB2",
"f. c #B3B4B4",
"g. c #BCB2B4",
"h. c #BDBDBD",
"j. c #C0A7AB",
"k. c #CBB7BA",
"l. c #C5C2C3",
"z. c #CCC6C7",
"x. c #CCCCCC",
"c. c #D3CBCC",
"v. c #D5D4D4",
"b. c #DBDCDC",
"n. c #E2E1E1",
"m. c #EBECEC",
"M. c #EFF0F0",
"N. c #F2F4F3",
"B. c #F7F8F8",
"V. c #FEFEFE",
/* pixels */
"                                                                                                                                ",
"                                                                                                                                ",
"                                                                                                                                ",
"                                                                                                                                ",
"                                                                                                                                ",
"                                                                                                                                ",
"                                                                                                                                ",
"                                                                                                                                ",
"                                                                                                                                ",
"                                                                                                                                ",
"                                                                                                                                ",
"                                                                                                                                ",
"                                                                                                                                ",
"                                                                  . $ =                                                         ",
"                                                              = a ! ;.9       $ =                                               ",
"                                                          $ J :.1.1.#.o       s #.&                                             ",
"                                # a 5 =                 $ ) 1.1.1.1.N         Y 1.! o                                           ",
"                            . % s T T Y B .             J 1.1.;.<.,.-       o #.1.4.d                                           ",
"                          $ Y :.:.%.E E ( +           + $.1.#.n :.( .       - >.1.3.=.#                                         ",
"                        5 $.,.( W >.<.1.:.&         o 9 ;.;.A F <.N         s 1.1.2.5.7                                         ",
"                    . u >._ F P V :.#.F >.y         # $.1.Q K E 1.2       . ( ! ` 1.7.N                                         ",
"                    a ;.W C U P Q %.Z C ( #.o       . ( 1.K I Q ;.#       , :.B E 1.7.G                                         ",
"                  6 %.L P ^ U F $.F I U Z >.s         f #.Z V E E .       D ` V T 1.7.i                                         ",
"                & ( L P ^ ^ P Q E K ^ ^ K E >.6     @ h.0.E ) ) ! N 2 O $ $.P K Q 1.-.%                                         ",
"              . J T I U ^ U L ! S ^ ^ U U C ( >.u X z B.M.6.:.1.1.1.<.#.T F C A $.1.J .                                         ",
"              < L P / ^ ^ I L F I ^ ^ U U U V ( ` Z j.V.V.v.X.>.;.<.1.1.1.:.L M %.:._ $                                         ",
"            . s S M e n P P Z P / ^ U ^ U ^ U V T $.k.V.x.c 8...Y ) 1.<.:.#.o.O.u.{ <                 y s - %                   ",
"            O 3 & .     & r n C S I ^ U U U U C #.W j.V.q.; b g.H [ o.' y.c.m.V.V.w..               2 *.#.J Y s o               ",
"                          # + . . % e U ^ ^ P Q ,.0 x B.h.h f.s.] z.q.z p.V.V.V.V.e.            & B >.$.J J J Y $               ",
"                                      4 I ^ F ;.<.s v h.m.m.h.&.+.M.j : b B.V.V.V.9.      . - A :.>.W M W ! W W #               ",
"                                        4 I L <.<.a d.b.f.f.O.&.| n.e.; a.V.V.V.m.} $ . 1 E ,.<.! C P L ( L M ;.N               ",
"                                        . 4 E 1.%.9 w.l.V.V.V.b.i.a.N.m.V.V.V.N.r.#.J #.<.,.( F K U ^ K ) F P W ( .             ",
"                                            Z 2./ 0 y g O.l.N.V.V.v.f.b.m.m.l.@.*.<.Q >.( F K U ^ U ^ F ! F U A #.$             ",
"                                            N 2.W e r r e w k t.v.B.m.x.h.a.t r E >.B S K U ^ ^ U ^ U L L I ^ K ( <             ",
"                                            y 1.~ w r r r r r q p l t.l.M.y.w e ( :.C ^ ^ ^ U ^ ^ U I A A U ^ I L 6             ",
"                                            = >.;.r r r e e e q r e q g 0.p 0 #.3.*.S / ^ ^ ^ ^ U U P n K ^ ^ ^ F 6             ",
"                                            . R 2.) r r ) :.W N D r e 9 9 0 I 1.7.[ m e 3 1 0 V U ^ V r U U ^ ^ F 2             ",
"                                        . $ 6 B *.2.*.E ) %.$.1.1.:.W D a H <.3.7.y .         . 3 P q V I P I ^ L =             ",
"                                      . s E s , 1 $.1.1.$.! ( #.:.<.,.` W >.2.7. .o               * , > # O % 8 M #             ",
"                                      . W -       % E <.1.1.:.) Q W W ) <.2.4.-.-                               O .             ",
"                                      X W %         . 2 T ;.1.2.2.1.1.2.7.5.) ,                                                 ",
"                                  $ y Y :.2               $ 9 D Q ` ` ) R y O                                                   ",
"                                o Y $.;.a X                       a 9 .                                                         ",
"                                . , N 5                           1 E .                                                         ",
"                                    . .                           o ! -                                                         ",
"                                                                    N B                                                         ",
"                                                                    - ( $                                                       ",
"                                                                    X ( ! =                                                     ",
"                                                                    + #.<.E o                                                   ",
"                                                                    . ! ~ Z O                                                   ",
"                                                                      5 y $                                                     ",
"                                                                                                                                ",
"                                                                                                                                ",
"                                                                                                                                ",
"                                                                                                                                ",
"                                                                                                                                ",
"                                                                                                                                ",
"                                                                                                                                ",
"                                                                                                                                ",
"                                                                                                                                ",
"                                                                                                                                ",
"                                                                                                                                ",
"                                                                                                                                ",
"                                                                                                                                "
};
