/* XPM */
static char *_[] = {
/* columns rows colors chars-per-pixel */
"64 64 150 2 ",
"   c #000000",
".  c #0C0305",
"X  c #080909",
"o  c #110507",
"O  c #150609",
"+  c #1A070B",
"@  c #1C080C",
"#  c #141414",
"$  c #220A0F",
"%  c #260B10",
"&  c #2B0D12",
"*  c #330E15",
"=  c #3A0E18",
"-  c #351017",
";  c #3C121A",
":  c #44141D",
">  c #4C1720",
",  c #4B1A23",
"<  c #521421",
"1  c #5D1626",
"2  c #531923",
"3  c #5B1B27",
"4  c #5E1C28",
"5  c #601B27",
"6  c #64172A",
"7  c #641C2A",
"8  c #6B1A2D",
"9  c #711D2F",
"0  c #6F1B30",
"q  c #731B31",
"w  c #7B1C34",
"e  c #6D212E",
"r  c #70222F",
"t  c #6C2335",
"y  c #682838",
"u  c #752332",
"i  c #7C2434",
"p  c #732937",
"a  c #782B3A",
"s  c #6C303F",
"d  c #7F3542",
"f  c #484647",
"g  c #7A4955",
"h  c #66555A",
"j  c #6E5259",
"k  c #745F64",
"l  c #7A5B63",
"z  c #666666",
"x  c #6D6D6D",
"c  c #7A6369",
"v  c #832537",
"b  c #862539",
"n  c #8B2339",
"m  c #85293A",
"M  c #8C2A3B",
"N  c #94273D",
"B  c #99263F",
"V  c #932B3E",
"C  c #98283F",
"Z  c #9C2740",
"A  c #962B40",
"S  c #9C2C41",
"D  c #8A3243",
"F  c #9E3043",
"G  c #A22742",
"H  c #A32A43",
"J  c #AB2B46",
"K  c #B32B49",
"L  c #BE2E4D",
"P  c #A63146",
"I  c #A93247",
"U  c #AC3349",
"Y  c #B4354C",
"T  c #BA374E",
"R  c #BA384F",
"E  c #BD3950",
"W  c #C12E4F",
"Q  c #C32F50",
"!  c #C43B53",
"~  c #CB3D56",
"^  c #CF3F58",
"/  c #D23F59",
"(  c #9E4353",
")  c #B24157",
"_  c #BE4358",
"`  c #845E68",
"'  c #9A5763",
"]  c #BE4F62",
"[  c #B45969",
"{  c #8D656C",
"}  c #9B666F",
"|  c #867D7F",
" . c #937278",
".. c #B46875",
"X. c #CC4058",
"o. c #C4485E",
"O. c #D5405A",
"+. c #DB425D",
"@. c #E0445F",
"#. c #C14D61",
"$. c #CA4861",
"%. c #DD4963",
"&. c #C05A6C",
"*. c #E44561",
"=. c #E94763",
"-. c #ED4865",
";. c #F24765",
":. c #F24966",
">. c #F54B69",
",. c #FD4D6C",
"<. c #E5516D",
"1. c #FF506F",
"2. c #E05974",
"3. c #F35977",
"4. c #FF5C7C",
"5. c #FE6483",
"6. c #808080",
"7. c #8B8C8C",
"8. c #918588",
"9. c #9B8C8F",
"0. c #939393",
"q. c #9A9B9B",
"w. c #AB8E93",
"e. c #A99296",
"r. c #A8959A",
"t. c #A0A0A0",
"y. c #ABA1A4",
"u. c #B1A8AA",
"i. c #AFB1B1",
"p. c #B4B4B4",
"a. c #BFB5B8",
"s. c #BCBCBC",
"d. c #C7A2A8",
"f. c #C2AEB1",
"g. c #C3B1B5",
"h. c #C9B2B6",
"j. c #CAB4B8",
"k. c #C2BEBF",
"l. c #C9B8BB",
"z. c #CCC3C4",
"x. c #CDCDCD",
"c. c #D9D6D7",
"v. c #DDDADB",
"b. c #E6E7E6",
"n. c #E7E8E8",
"m. c #ECECEC",
"M. c #EEF1F0",
"N. c #F2F2F2",
"B. c #F6F8F8",
"V. c #FEFEFE",
/* pixels */
"                                                                                                                                ",
"                                                                                                                                ",
"                                                                                                                                ",
"                                                                                                                                ",
"                                                                                                                                ",
"                                                                                                                                ",
"                                                                                                                                ",
"                                                                                                                                ",
"                                                                                                                                ",
"                                                                                                                                ",
"                                                                                                                                ",
"                                                                                                                                ",
"                                                                                                                                ",
"                                                                                                                                ",
"                                                                                                                                ",
"                                                                                                                                ",
"                                                                                                                                ",
"                                                                                                                                ",
"                                                                      o                                                         ",
"                                                              . & e P e       . .                                               ",
"                                                          . : Y =.,.=.-       e S o                                             ",
"                                . * @ o                 . M >.,.,.1.P         V ,.m .                                           ",
"                              . 3 U F i : .             r ,.1.,.,.,.2       . E ,.>.,                                           ",
"                          . 2 U ! R F P ! @           o ~ 1.-.H *.O.@       % *.,.4.) .                                         ",
"                        @ S >.=.+.,.@.*.+.$         . - @.>.H M >.F         3 ,.,.,.3.;                                         ",
"                      - ! :.Y C M *.:.~ :.,         $ ! ,.! G J ,.5       . P +.=.,.5.p                                         ",
"                    - O.O.Z J K H -.H n O.P .       @ O.,.I J Y -.-       % +.A Y ,.5.D                                         ",
"                  & ~ ! B L W Z O.Y H K S =.>         m ;.H G R X.o       u *.N U ,.5.a                                         ",
"                O U T G L W K I ! Z W W B ! O.%     X | ' N H I S * O   O ~ Y Z Y ,.3.:                                         ",
"                u T G W W W H ! C L W L L C +.! &   f N.x.[ >.,.>.-.~ M e R Z H ~ ,.U .                                         ",
"              & U H W L L L H P J W L W L K C =.! 5 e.V.V.z._ ,.>.,.,.,.:.E C N -.,.! %                                         ",
"              r H K J K W J S Z W L W L L L J C U X.j.V.m.q.| o.R O.,.,.,.:.! d [ ( m o               & & . .                   ",
"            @ q 6 * + @ 6 B M K L W Q L L L L Z ! O.g.V.q.f 7.e.M ! %.] ..w.h.c.M.8.o               $ ! ~ M m - .               ",
"            . O         . : : - = 6 G W Q Q K P =.q 8.V.q.# 7.l.( w.9.h i.V.V.V.V.t.          . . ; E >.U V F Y &               ",
"                          .         @ n L Q H O.,.i h c.N.x.v...[ N.z z 7.B.V.V.V.0.        . : U :.+.S P R R F @               ",
"                                      o n L Z >.>.u y.s.s.k. .O.&.m.x . 6.V.V.V.B.{ O   O 3 E >.*.U Z B ! P V *.3               ",
"                                        + n I ,.=.7 u.b.m.n.v.d.} s.b.i.m.V.V.V.g._ u i ~ ,.=.Y C K W H ~ Z Z ! U .             ",
"                                          + S 1.~ 8 j l a.N.V.V.N.s.x.V.V.V.B.f.#.:.E ,.=.U Z J L L W Z ! S L Z O.@             ",
"                                            M 1.T 0 0 q 0 g r.c.B.B.x.p.s.s.k A / :.S J Z J L Q W L L Z U H W Z ! ;             ",
"                                            u ,.T q w w w w q s ` y.v.b.m.s.y 6 S =.A K L L L L L W L S C L W J Y 2             ",
"                                            : ,.O.q w w q q q w w 9 s c s.g 6 P ,.*.Z L Q Q L L L W K M B W L L S 4             ",
"                                            O ! ,.P 8 q A E S 8 q q 9 t d 0 M :.4.$.Z G N n Z L W W G 9 K W L W Z 2             ",
"                                            @ m ,.>.Y V *.:.X.+.*.! b 8 8 u *.1.5.D = O .   o - n L v n W W W W H :             ",
"                                        : V I i M >.1.*.E R O.>.,.,.>./ A X.,.4.2.&             . 8 1 9 5 < 8 B H %             ",
"                                      . Y e .   . r *.,.,.=.! Y T E E T +.,.4.5.p                 . . .       o : O             ",
"                                      o U &         - F *.,.1.,.;.*.=.>.4.4.>.m .                                               ",
"                                  . $ 2 O.:           . & e U +.:.>.,.>.<.) > .                                                 ",
"                                . m O.-.! -                 . @ - m i : % .                                                     ",
"                                . i Y m O                         e V                                                           ",
"                                  . & O                           $ E $                                                         ",
"                                                                    F e                                                         ",
"                                                                    2 R .                                                       ",
"                                                                    @ ~ u .                                                     ",
"                                                                    O ^ ,.M .                                                   ",
"                                                                    O ~ X.U @                                                   ",
"                                                                      i S 2 .                                                   ",
"                                                                      . O                                                       ",
"                                                                                                                                ",
"                                                                                                                                ",
"                                                                                                                                ",
"                                                                                                                                ",
"                                                                                                                                ",
"                                                                                                                                ",
"                                                                                                                                "
};
