/* XPM */
static char *_[] = {
/* columns rows colors chars-per-pixel */
"64 64 109 2 ",
"   c #000000",
".  c #080507",
"X  c #0E0709",
"o  c #10070A",
"O  c #13090B",
"+  c #1C0B0E",
"@  c #210D11",
"#  c #2C0F13",
"$  c #2D1014",
"%  c #341215",
"&  c #381316",
"*  c #3D1418",
"=  c #1E1A2A",
"-  c #241C2A",
";  c #2D1C2A",
":  c #3A1D29",
">  c #24202E",
",  c #35303E",
"<  c #44151A",
"1  c #4B1719",
"2  c #4C191C",
"3  c #50171B",
"4  c #541A1D",
"5  c #5C1B1D",
"6  c #631C1D",
"7  c #6C1E1E",
"8  c #721F1F",
"9  c #7E211F",
"0  c #421F2A",
"q  c #6A1E20",
"w  c #44202A",
"e  c #48202A",
"r  c #51212A",
"t  c #4C2F3A",
"y  c #66242A",
"u  c #732223",
"i  c #7D2120",
"p  c #73262B",
"a  c #7C262A",
"s  c #3D3A47",
"d  c #7A6C74",
"f  c #832222",
"g  c #8B2423",
"h  c #80272A",
"j  c #84282B",
"k  c #952421",
"l  c #9A2521",
"z  c #922A2A",
"x  c #9B2B2A",
"c  c #A12722",
"v  c #A52824",
"b  c #A82925",
"n  c #A22C2A",
"m  c #B22C27",
"M  c #B42E2A",
"N  c #BB2F2A",
"B  c #A3342C",
"V  c #AD342C",
"C  c #A23F2E",
"Z  c #BF302B",
"A  c #B23B2E",
"S  c #BD3A2E",
"D  c #C02E2B",
"F  c #C0302B",
"G  c #C23B2D",
"H  c #A3402E",
"J  c #B95132",
"K  c #BE6336",
"L  c #C2442F",
"P  c #C2482F",
"I  c #C24730",
"U  c #C54E32",
"Y  c #C2433F",
"T  c #C55332",
"R  c #C95F35",
"E  c #C96235",
"W  c #CA6937",
"Q  c #C97239",
"!  c #CB7C3B",
"~  c #C24440",
"^  c #C94D49",
"/  c #C05B59",
"(  c #CD823C",
")  c #CD8B3E",
"_  c #CF9740",
"`  c #D19640",
"'  c #D19B41",
"]  c #D2A142",
"[  c #D1AA44",
"{  c #D3B146",
"}  c #D4BB48",
"|  c #D7C64A",
" . c #D8C74A",
".. c #D7CC4B",
"X. c #D8CF4C",
"o. c #D7D44D",
"O. c #D8D54D",
"+. c #D9DC4E",
"@. c #D9E04F",
"#. c #D9E250",
"$. c #7E7C84",
"%. c #97969E",
"&. c #9A9AA1",
"*. c #D7C3C4",
"=. c #E7E8EA",
"-. c #E8E9EA",
";. c #F7E3E2",
":. c #F8E5E4",
">. c white",
/* pixels */
"                                                                                                                                ",
"                                                                                                                                ",
"                                                                                                                                ",
"                                                                                                                                ",
"                                                                                                                                ",
"                                                                                                                                ",
"                                                                                                                                ",
"                                                        O % < 3 3 < % O                                                         ",
"                                                  . % u C K Q ` ` ! J H u $ .                                                   ",
"                                                @ a J ` | +.@.@.+.@.@...` J u @                                                 ",
"                                              < B ( o.#.#.#.@.@.@.#.#.#.#...` B *                                               ",
"                                            2 A ] #.#.O.} _ ! Q Q ! _ } O.+.o.' A < .                                           ",
"                                          & V ' #.@.[ E G F N D N D F G W [ +.@._ V %                                           ",
"                                        O z ( @...Q G D F F F F D D F D D G ! X.@.Q z O                                         ",
"                                        5 U .. .R D D D F F F F D D F F D D D E ..| I 4                                         ",
"                                      + x ` o.E D F D D F F F F D D F F D F F D W o.` k O                                       ",
"                                      0 G } ( F F F F z j Z F F F F F x h Z F F D ) { S *                                       ",
"                                      u T { L F F F x ; - a F Z F F x > = a F F D I { U q                                       ",
"                                    . g W ! D D F F y = = e Z F F F y = = w Z F F D ( R g .                                     ",
"                                    X k E T D D F M 0 = = - n F Z Z e = = ; n F F D T R g .                                     ",
"                                    X g P G D F F M : = - - n F F M : = - - z F F D G I f X                                     ",
"                                    X i m F F F F M t s > - x F F M t s > - x F F F F M i X                                     ",
"                                    . 8 c N F F D ~ *.=.$.; n F N Y *.-.$.; n F F F Z l 7 .                                     ",
"                                      5 l b F F D ^ :.>.%.0 M F D ^ ;.>.&.w M F F F b l 5                                       ",
"                                      & k l Z F Z F / d s u D F D F / d , a Z F F N l k &                                       ",
"                                      O f c Z F F F Z g a Z D F F F N g h Z F Z F N c f O                                       ",
"                                        1 l Z Z F F Z F F F F F F F F F F F F F F N l 1                                         ",
"                                        O f Z F Z F F F Z F F F F F F F F Z F F F Z i O                                         ",
"                                          & Z F F F F F Z x F F F F x Z F F F F F M &                                           ",
"                                          O n F F F Z F Z p z Z Z z p Z F F F F F n O                                           ",
"                                          O n F Z F Z F F n r e e r n F F F Z F F n O                                           ",
"                                          O n F F F F F Z F M z z M F F F Z F F F x O                                           ",
"                                          O x F F Z Z F F F F F F F F F F Z F F F x o                                           ",
"                                          o g Z m b m D F F F F F F F F F F M M N g o                                           ",
"                                          O 9 l l l N Z F F F N F F F F F F b l l 9 X                                           ",
"                                          o 9 k l l N F F F F F F F F F F D b k l i X                                           ",
"                                          O 9 l l g b F Z F F Z F Z Z Z Z F b k l 9 X                                           ",
"                                          . 7 l l 9 z F F Z F F Z Z Z Z F Z c l l 7 .                                           ",
"                                            @ 5 5 # f F Z N D F F Z M Z F M 4 5 5 +                                             ",
"                                              .   . 8 b b c N F F Z v v b l $   .                                               ",
"                                                  . 7 k k l m D F N l l k k $                                                   ",
"                                                  . 7 l l k l m M c l k k k $                                                   ",
"                                                  . 6 l l k k k l g f l k k #                                                   ",
"                                                    & g k 6 9 l k g 2 f k 6 X                                                   ",
"                                                      @ $ O 8 l l g @ + # X                                                     ",
"                                                            4 l l 8 X                                                           ",
"                                                            O < 3 @                                                             ",
"                                                                                                                                ",
"                                                                                                                                ",
"                                                                                                                                ",
"                                                                                                                                ",
"                                                                                                                                ",
"                                                                                                                                ",
"                                                                                                                                ",
"                                                                                                                                ",
"                                                                                                                                ",
"                                                                                                                                ",
"                                                                                                                                ",
"                                                                                                                                ",
"                                                                                                                                ",
"                                                                                                                                ",
"                                                                                                                                ",
"                                                                                                                                ",
"                                                                                                                                "
};
