/* XPM */
static char *_0[] = {
/* columns rows colors chars-per-pixel */
"64 64 189 2 ",
"   c #000000",
".  c #080702",
"X  c #0C0A04",
"o  c #110E04",
"O  c #131005",
"+  c #1E1706",
"@  c #141109",
"#  c #1A160A",
"$  c #1D190B",
"%  c #231A04",
"&  c #231D0A",
"*  c #231F12",
"=  c #2D2206",
"-  c #2A220B",
";  c #31270B",
":  c #35290A",
">  c #3C2E09",
",  c #2B2615",
"<  c #2E2914",
"1  c #342D14",
"2  c #332D1A",
"3  c #3D3211",
"4  c #38321A",
"5  c #4A390E",
"6  c #433814",
"7  c #4E3E12",
"8  c #41391C",
"9  c #453E23",
"0  c #473B35",
"q  c #483D37",
"w  c #4A3F38",
"e  c #57420C",
"r  c #4C411B",
"t  c #524113",
"y  c #584715",
"u  c #5C4A19",
"i  c #634B0D",
"p  c #634E14",
"a  c #6B561B",
"s  c #6C581F",
"d  c #745C1C",
"f  c #77601F",
"g  c #7E641D",
"h  c #4D4426",
"j  c #564A20",
"k  c #564D2B",
"l  c #4C4039",
"z  c #51453C",
"x  c #5E5537",
"c  c #6F5D23",
"v  c #62552A",
"b  c #685C33",
"n  c #776326",
"m  c #6C6136",
"M  c #7B6C34",
"N  c #776A3B",
"B  c #7E703B",
"V  c #584B40",
"C  c #5D5042",
"Z  c #635649",
"A  c #675A48",
"S  c #76674D",
"D  c #796A51",
"F  c #81651C",
"G  c #84691F",
"H  c #967214",
"J  c #987416",
"K  c #826923",
"L  c #8B7127",
"P  c #987B29",
"I  c #85743A",
"U  c #897943",
"Y  c #837355",
"T  c #88785A",
"R  c #B2881C",
"E  c #BE911B",
"W  c #AA8726",
"Q  c #A28329",
"!  c #B58F28",
"~  c #BA9125",
"^  c #A38632",
"/  c #A48B3B",
"(  c #B59637",
")  c #D7A41E",
"_  c #E1AA1C",
"`  c #F3B81D",
"'  c #C59B2B",
"]  c #D7A82A",
"[  c #C4A037",
"{  c #DCAF35",
"}  c #E1AE28",
"|  c #E8B328",
" . c #F6BC25",
".. c #FBBF23",
"X. c #E6B636",
"o. c #FFC01F",
"O. c #FFC224",
"+. c #FFC42B",
"@. c #FFC92E",
"#. c #FFC633",
"$. c #FFC935",
"%. c #F5C339",
"&. c #FFCA3C",
"*. c #9A8646",
"=. c #8F8253",
"-. c #9D8958",
";. c #A5904D",
":. c #B59B43",
">. c #B19E56",
",. c #B6A14F",
"<. c #B8A35D",
"1. c #928262",
"2. c #AA9968",
"3. c #AB9C79",
"4. c #BAA766",
"5. c #C3A442",
"6. c #D5B24A",
"7. c #CAB154",
"8. c #D6BC5A",
"9. c #E4BB48",
"0. c #C8B36A",
"q. c #D3BD78",
"w. c #EEC343",
"e. c #F9C542",
"r. c #FFCC43",
"t. c #FFCE4B",
"y. c #FFD043",
"u. c #FFD24C",
"i. c #E6C659",
"p. c #FFCF51",
"a. c #F2CD5C",
"s. c #FFD254",
"d. c #FFD956",
"f. c #FFD35C",
"g. c #FFDB5D",
"h. c #DEC464",
"j. c #DAC478",
"k. c #E0C667",
"l. c #E4C963",
"z. c #F5D466",
"x. c #FFD563",
"c. c #FFDA64",
"v. c #FFD66A",
"b. c #FFDA6C",
"n. c #E7CD79",
"m. c #FFDB73",
"M. c #F5D87A",
"N. c #FFDD7B",
"B. c #FFE16C",
"V. c #FFE173",
"C. c #FFE27C",
"Z. c #B8A984",
"A. c #C7B583",
"S. c #C9BA93",
"D. c #DDC683",
"F. c #DCC88B",
"G. c #E4CE8D",
"H. c #EAD381",
"J. c #EAD58C",
"K. c #FFDE84",
"L. c #F3DB8B",
"P. c #FDDF88",
"I. c #F1DC9A",
"U. c #FFE384",
"Y. c #F7E18F",
"T. c #FFE38B",
"R. c #FFE88C",
"E. c #F7E396",
"W. c #FFE493",
"Q. c #FFEA93",
"!. c #FFE69C",
"~. c #FFE99C",
"^. c #EAD8A4",
"/. c #F7E3A0",
"(. c #FFEAA3",
"). c #FFEBAB",
"_. c #FFEDB3",
"`. c #FFEFBC",
"'. c #FFF0B7",
"]. c #FFF0BC",
"[. c #FFEFC0",
"{. c #FFF1C4",
"}. c #FFF3CC",
"|. c #FFF4D3",
" X c #FFF7DC",
".X c #FFF8DF",
"XX c #FFF7E0",
"oX c #FFF9E5",
"OX c #FFF9E8",
/* pixels */
"                                                                                                                                ",
"                                                                                                                                ",
"                                                                                                                                ",
"                                                                                                                                ",
"                                                                                                                                ",
"                                                                                                                                ",
"                                                                                                                                ",
"                                                    . * 8 v B U U B m h < X                                                     ",
"                                                - m >.h.M.C.U.T.R.Q.Q.Y.H.0.U 4 o                                               ",
"                                            , *.h.C.C.U.R.Q.~.(.)._._.)._.).(.L.4.k X                                           ",
"                                        @ M k.C.C.U.U.R.W.(.)._.`.{.{.}.}.}.[.`.).Y.<.4                                         ",
"                                      , ,.V.C.C.C.R.T.~.(._.`.[.{.}.}.|.|.|. X|.}.].).H.m X                                     ",
"                                    r 8.V.C.C.C.R.T.~.(.)._.`.[.{.}.}.|.|.|. X.X.X.X}.].E.=.X                                   ",
"                                  8 h.V.V.C.U.U.U.R.~.(.)._._.[.[.}.}.}.}.|.|.XXoXOXoX}.].E.=.X                                 ",
"                                < 8.V.V.C.U.U.U.T.Q.(.(.).)._.`.`.{.}.|.|.|.|.XXOXOXOX.X|.].E.N                                 ",
"                              @ ,.V.V.V.C.R.U.R.W.~.(.)._._._._.`.[.}.|.|.|.|.XX.XOXOXoX.X}.'.H.9                               ",
"                              M B.V.V.C.U.U.R.T.Q.!.(.)._._._._._.`.}.}.|.|.|.|..XXX.X.X X|.{.).4.@                             ",
"                            1 l.V.V.V.C.C.R.R.W.W.~.~.(._._._._._.`.{.}.}.}.}.|.|.|.|. X|.}.{._.Q.b                             ",
"                            *.B.B.V.V.C.U.R.R.T.~.~.~.~.)._._._.`.`.].{.{.].{.}.}.}.}.}.}.}.[.`.).0.@                           ",
"                          < l.B.V.C.C.U.U.R.T.W.W.~.~.(.(._.)._._._.`.`.`.`.].}.}.{.{.{.{.}.}.[.).T.k                           ",
"                          B B.B.V.V.C.U.U.T.R.T.E.E.!.(.(.)._.).)._._._._.'.].{.].{.[.[.[.[.[.`.).Q.;..                         ",
"                        O 7.B.V.m.C.C.C.U.U.R.W.2.Y T 1.2./.(.(.(.(.).A.3.Z.Z.S.`.`.`.`.`.[.[.[.).~.j.*                         ",
"                        8 z.B.B.V.C.C.U.U.U.T.L.D w w q V F.(.(.(.~.I.A q q q Z ^.`.`.`.`.`.`.`.).(.R.k                         ",
"                        M B.b.V.V.C.C.C.U.R.U.P.D w w w z A.(.(.(.~.G.C q q q Z ^.)._._.`._._._.).(.Q.=.                        ",
"                      . ( B.B.B.m.C.C.C.U.U.U.K.Y 0 q q z q.~.~.!.(.G.Z q 0 0 A I.).(.).).).).).).(.~.4..                       ",
"                      # 8.B.b.B.B.V.V.N.C.C.U.U.4.q q q S L.W.~.!.~.E.T 0 q l 1.!.(.(.(.(.(.).).).(.(.j.$                       ",
"                      1 a.c.c.b.B.b.m.C.C.C.C.C.M.-.Z S q.T.T.W.W.~.~.D.S C Y G.!.(.!.!.!.(.).).).(.!.H.2                       ",
"                      j c.c.c.c.b.b.m.m.m.N.N.C.C.N.n.M.U.T.U.T.W.W.T.W.J.D.L.(.(.!.!.!.!./.(.).).).!.P.h                       ",
"                      n c.c.c.c.b.b.b.m.m.m.m.N.N.N.C.N.N.C.N.N.K.U.T.W.T.T.W.W.!.!.(.!.!././.).(.(.!.P.b                       ",
"                      I g.g.c.x.c.b.b.b.b.m.m.m.m.m.N.m.m.m.m.N.N.N.N.P.T.T.T.T.!.!.!.!.W.!.!.!.(.!.W.U.N                       ",
"                      / g.g.f.g.c.b.b.b.b.m.b.m.m.b.m.m.m.v.m.m.m.N.N.N.K.U.P.P.P.W.W.!.!.I.!.!.W.W.P.U.U                       ",
"                    . :.g.g.f.g.g.x.c.v.b.c.v.v.b.b.v.v.b.m.v.m.m.m.m.N.N.K.K.P.P.P.P.T.P.W.P.!.P.W.P.T.*.                      ",
"                    X ,.g.f.d.f.f.f.x.x.c.x.x.x.x.v.v.x.v.v.v.v.v.v.v.m.N.N.N.N.K.K.K.K.K.K.L.P.L.P.P.P.*.                      ",
"                    X 5.d.d.d.s.d.d.f.f.x.x.x.f.x.x.x.x.x.x.v.x.v.v.v.v.v.m.m.m.m.M.K.M.K.M.M.K.P.P.K.N.;.                      ",
"                    X 5.d.d.d.s.s.s.s.f.f.f.f.x.f.f.x.x.x.x.f.x.x.x.x.x.v.v.v.v.v.v.v.m.v.v.M.M.N.m.m.v.;.                      ",
"                    . [ d.s.s.d.s.s.s.s.s.f.f.f.f.f.s.f.x.f.f.f.f.x.x.x.x.x.x.v.v.v.v.x.v.v.v.v.v.v.f.s.^                       ",
"                    X [ d.u.d.u.u.s.t.u.p.p.p.s.s.s.s.s.p.p.s.p.p.f.f.f.f.f.x.x.x.x.f.x.x.x.x.x.p.f.s.u.P                       ",
"                    . ( u.u.u.u.u.u.t.t.p.p.p.s.p.p.p.p.p.p.p.p.p.p.p.p.p.p.p.p.f.f.p.f.f.f.p.p.p.t.t.u.P                       ",
"                    . ( u.y.u.y.r.u.t.t.t.r.t.p.t.t.t.p.p.t.t.t.p.t.p.t.t.p.9.f.p.p.s.p.p.t.t.r.e.t.t.y.L                       ",
"                      ^ y.y.y.&.&.&.r.r.r.r.r.r.r.r.r.r.r.r.r.r.t.e.t.r.r.t.e.e.t.r.p.t.e.e.r.r.e.t.t.u.n                       ",
"                      P y.y.&.&.&.&.&.&.&.r.&.r.&.r.&.&.r.r.r.r.e.r.r.e.e.&.e.&.r.e.r.r.r.r.&.e.r.&.r.y.s                       ",
"                      K y.&.&.$.#.$.&.$.&.&.&.&.&.&.&.&.&.&.e.&.r.r.&.&.&.&.&.&.&.&.&.&.&.&.&.&.&.&.r.r.y                       ",
"                      a &.&.&.$.#.#.#.$.$.$.#.#.#.#.#.$.#.&.#.&.&.#.&.#.&.&.&.#.&.#.#.#.#.#.#.#.&.&.&.&.6                       ",
"                      t r.&.&.&.#.#.#.#.+.+.+.+.O.+.+.O.+.+.#...#.#.#.#.&.#.#.#.#.#.+.#.#.#.#.#.$.$.&.X.;                       ",
"                      1 %.&.&.&.$.$.#.+.+.+.#.+.O.O.O.O.+.O.O.+.+...+.+.+.#.+.+.....+.+.#.+.+.+.@.+.$.{ +                       ",
"                      & { &.$.$.#.+.#.@.+.+.+.+.o.o.o._ _ O.O.O...+.O.O.O... .O.+.+.O.O.+.+.+...+.@.#.' o                       ",
"                      o [ &.&.&.] y e ] +.O.O.O.O.O.E = % J O.o.O...o.o._ i > H ..O.O...O.+.~ e W @.#.W                         ",
"                        W &.&. .t     y  .+.+.O.O.| >     % ) O.O...O.` e     o R O.+.+.+.} :   - X.&.G                         ",
"                        f r.&.! .     X W @.+.+.+.J .       i ..O.O.O.J .       : } #.@.%.p       W u.u                         ",
"                        3 w.w.7         ; ] $.#.| 3         . H +.@.| :           g &.r.Q .       r ( $                         ",
"                        . 6 3 .           - G P t .           o g W t             O c n +           X                           ",
"                                                    .                                                                           ",
"                          - v < X             . r U >.2.=.x 2 .                   4 B N h #                                     ",
"                          r x.n.<.&         - ( z.T.(.).(.).J.*.O               8 h.R.~./.q.b                                   ",
"                          & 6.V.a.3       X ! y.x.N.K.K.U.T.R.i.-               / b.N.W.W.C.9.-                                 ",
"                            1 c t X       X ~ &.r.u.u.p.t.%.{ f .               a 9.e.e.X.' a X                                 ",
"                                            & u n F g d p 5 +                     - 7 5 - X                                     ",
"                                                                                                                                ",
"                                                                                                                                ",
"                                                                                                                                ",
"                                                                                                                                ",
"                                                                                                                                ",
"                                                                                                                                ",
"                                                                                                                                "
};
