/* XPM */
static char *_1[] = {
/* columns rows colors chars-per-pixel */
"64 64 185 2 ",
"   c #000000",
".  c #080703",
"X  c #0C0A04",
"o  c #0F0E08",
"O  c #120F04",
"+  c #110F08",
"@  c #161105",
"#  c #1A1405",
"$  c #151209",
"%  c #19160A",
"&  c #1D190D",
"*  c #241C07",
"=  c #231D0B",
"-  c #2A2005",
";  c #26200D",
":  c #2C230A",
">  c #322709",
",  c #31270B",
"<  c #242012",
"1  c #2A2615",
"2  c #332D17",
"3  c #322D19",
"4  c #3D3314",
"5  c #36301A",
"6  c #3E371E",
"7  c #4F3C0A",
"8  c #4A3C14",
"9  c #443A19",
"0  c #443C22",
"q  c #473B36",
"w  c #4B3F38",
"e  c #58430D",
"r  c #584818",
"t  c #624A0D",
"y  c #624F19",
"u  c #675219",
"i  c #715711",
"p  c #7D6219",
"a  c #4C4423",
"s  c #584D27",
"d  c #52463D",
"f  c #5D5431",
"g  c #635525",
"h  c #6B5E30",
"j  c #786427",
"k  c #6D6038",
"l  c #766938",
"z  c #7F703F",
"x  c #5A4E41",
"c  c #5E5143",
"v  c #655848",
"b  c #7E7140",
"n  c #766854",
"m  c #7A6B50",
"M  c #7B6D59",
"N  c #896918",
"B  c #977111",
"V  c #876D23",
"C  c #8B7228",
"Z  c #977926",
"A  c #83743A",
"S  c #847646",
"D  c #907D46",
"F  c #897859",
"G  c #AA831B",
"H  c #B68A17",
"J  c #9C8234",
"K  c #958139",
"L  c #A38226",
"P  c #B48D23",
"I  c #BE9525",
"U  c #BC952A",
"Y  c #A68935",
"T  c #A9903D",
"R  c #BA9938",
"E  c #CF9D1E",
"W  c #D8A41C",
"Q  c #EAB11E",
"!  c #F4B91F",
"~  c #C79A29",
"^  c #CEA42C",
"/  c #D0A228",
"(  c #D9AB2F",
")  c #CCA431",
"_  c #D7AB35",
"`  c #DFB337",
"'  c #E7B124",
"]  c #F4BB26",
"[  c #E7B736",
"{  c #EBBB3A",
"}  c #FFC01F",
"|  c #FFC224",
" . c #FFC42C",
".. c #FFC632",
"X. c #FFC935",
"o. c #F6C439",
"O. c #FFCA3C",
"+. c #99874A",
"@. c #97845A",
"#. c #A28B42",
"$. c #AE9749",
"%. c #B89C43",
"&. c #A69558",
"*. c #BEA143",
"=. c #BDA755",
"-. c #948569",
";. c #AA976A",
":. c #B09D62",
">. c #B8A664",
",. c #B6A473",
"<. c #C4A441",
"1. c #CAAB49",
"2. c #C4AD59",
"3. c #D8BA5C",
"4. c #E8BD41",
"5. c #E3BF54",
"6. c #C3AF64",
"7. c #CBB66B",
"8. c #D2BB6C",
"9. c #CCB875",
"0. c #DFC35C",
"q. c #FFCC43",
"w. c #F4CD4D",
"e. c #FFCE4B",
"r. c #FFD144",
"t. c #FFD24C",
"y. c #E4C458",
"u. c #FFCF52",
"i. c #FFD254",
"p. c #FFD956",
"a. c #F5D25D",
"s. c #FFD35B",
"d. c #FFDA5E",
"f. c #D9C068",
"g. c #D8C16E",
"h. c #D8C275",
"j. c #E7CA67",
"k. c #ECD068",
"l. c #FFD564",
"z. c #FFDA64",
"x. c #FFD76B",
"c. c #F6DA6B",
"v. c #FFDA6C",
"b. c #E3CD7C",
"n. c #EFD370",
"m. c #FFDB73",
"M. c #FFDD7A",
"N. c #FFE16B",
"B. c #FFE173",
"V. c #FFE27C",
"C. c #DDC885",
"Z. c #E3CD8A",
"A. c #EBD588",
"S. c #F3DA85",
"D. c #FFDE83",
"F. c #FFDF88",
"G. c #EBD695",
"H. c #EFD994",
"J. c #EDD99B",
"K. c #F4DC92",
"L. c #FFE383",
"P. c #FFE38B",
"I. c #FFE88C",
"U. c #FFE593",
"Y. c #FFE994",
"T. c #F6E19E",
"R. c #FFE69B",
"E. c #FFE99D",
"W. c #E9D7A4",
"Q. c #FEE6A0",
"!. c #FFEAA3",
"~. c #F6E4AD",
"^. c #FFEBAB",
"/. c #F2E2B0",
"(. c #FFEDB3",
"). c #FFEFBB",
"_. c #FFF0BC",
"`. c #FFEFC0",
"'. c #FFF1C4",
"]. c #FFF2CB",
"[. c #FFF4D2",
"{. c #FFF6DA",
"}. c #FFF7E0",
"|. c #FFF8E4",
" X c #FFF9E8",
/* pixels */
"                                                                                                                                ",
"                                                                                                                                ",
"                                                                                                                                ",
"                                                                                                                                ",
"                                                          X @ % % $ X .                                                         ",
"                                                  X 5 h +.=.7.f.f.f.>.&.b a &                                                   ",
"                                            . = l =.n.V.L.I.I.Y.E.!.!.E.E.U.h.+.9 .                                             ",
"                                          & l f.V.V.V.I.I.E.!.^.(._._._._._.(.!.S.&.6 .                                         ",
"                                        a 2.B.V.V.V.P.Y.E.^.(.)._.'.].].[.[.[.]._.^.A.S $ .                                     ",
"                                    . l k.B.V.V.L.P.Y.Q.^.(.).).].].].[.[.[.[.{.[.]._.E.>.<                                     ",
"                                  X A c.V.V.V.V.I.I.Y.!.^.(.).'.'.].[.].].[.{.}.|.|.{._.^.g.2 .                                 ",
"                                . z N.B.B.V.L.L.L.Y.Q.Q.^.(.(.).'.].].[.[.[.{.}.|. X|.{.].^.7.1                                 ",
"                                g c.B.B.V.L.L.L.U.Y.!.^.^.(.(.)._.'.].[.[.[.{.}.|. X X|.{.].!.:.+                               ",
"                              2 j.B.B.V.L.L.I.P.U.Y.!.^.(.(.(.(._._.].].[.[.[.{.{.|.|.|.{.]._.Y.b                               ",
"                            X $.N.B.N.V.V.I.P.U.Y.Y.Q.^.(.(.(.(.(._.'.].[.[.].[.{.{.{.{.{.[.].^.C.3                             ",
"                            s c.N.B.V.V.L.P.P.Y.Y.E.Q.Q.^.(.(.(.(._.'.].].'.].].[.[.[.{.[.].'._.E.+.                            ",
"                          + =.N.N.V.V.V.L.P.P.I.Y.E.E.Q.^.(.(.(.(.)._.'.`.).'.].].].].].].].].`.!.b.1                           ",
"                          a c.B.N.V.V.L.L.I.P.Y.Y.E.Q.Q.^.^.^.(.(.(.).(.).).`.`.'.'.'.'.`.`.`.).^.I.z                           ",
"                          #.N.B.B.B.V.L.L.L.P.Y.Z.C.Z.Z.G.^.^.^.^.^.(.~./.~.(.).`.`.`.).`.`.`.).^.Y.6.X                         ",
"                        ; 0.N.B.B.V.V.V.L.L.P.P.F x c x n G.Q.!.Q.E.Q.-.v n M -./.).).).`.`.`.).(.E.S.5                         ",
"                        s c.v.B.B.B.V.V.L.L.I.S.n w w w x C.!.!.Q.E.G.v q q q c W.(.(.).).).).(.^.!.I.k                         ",
"                        K N.N.N.B.V.L.V.L.P.L.P.m w w w w 9.!.Q.!.E.A.d q q q v J.(.^.(.(.(.(.^.^.!.E.&.                        ",
"                      X 1.N.v.N.m.B.V.V.L.L.L.L.@.q w q x C.Y.E.E.Q.G.v q q w n T.!.!.^.^.^.^.^.^.!.E.7.o                       ",
"                      ; y.z.N.v.v.B.m.M.V.V.V.L.8.x q w @.K.U.R.Y.E.E.;.w q d ,.Q.Q.Q.E.Q.Q.^.^.^.!.E.b.<                       ",
"                      9 a.z.z.N.v.N.m.B.V.V.M.V.M.8.@.:.n.P.P.P.R.Y.R.K.;.F ,.T.R.R.Q.R.R.!.^.^.^.^.R.S.6                       ",
"                      g z.d.z.z.v.v.m.m.m.m.M.V.V.V.M.L.L.L.L.P.P.P.P.U.P.P.Y.Y.Q.Q.Q.R.R.Q.Q.^.^.!.R.F.s                       ",
"                      j d.z.z.z.z.v.v.m.m.m.m.m.M.V.M.M.M.M.M.M.M.L.L.P.F.P.P.U.Q.Q.Q.R.R.Q.Q.Q.!.Q.R.F.h                       ",
"                    . K d.d.s.z.z.v.v.v.v.m.m.m.m.m.m.m.m.m.m.m.M.M.D.D.F.P.F.P.F.U.R.T.U.R.R.R.R.U.U.F.S                       ",
"                      T z.d.s.z.z.z.v.v.v.v.v.m.m.v.v.v.m.v.v.m.M.M.M.M.D.D.D.P.F.K.K.U.R.Q.R.F.U.U.F.F.D                       ",
"                    . %.d.p.p.l.d.s.l.l.l.l.z.v.x.x.x.x.x.x.x.v.x.x.m.M.M.D.D.D.D.D.F.F.F.F.F.U.U.F.F.F.+.                      ",
"                    . *.d.p.p.p.p.s.s.l.l.z.l.l.l.l.z.l.x.x.x.l.x.x.x.x.m.M.m.M.D.D.D.D.D.D.D.F.F.D.F.D.#.                      ",
"                    X <.p.i.i.i.s.i.p.l.l.s.l.s.s.l.l.l.l.l.l.l.l.x.x.l.x.m.x.x.m.x.m.M.m.m.M.D.D.D.M.m.#.                      ",
"                    o *.p.p.p.i.i.i.i.i.s.s.s.l.s.s.s.s.l.s.s.s.s.l.l.l.l.x.x.x.x.x.x.x.x.m.x.x.m.x.x.l.Y                       ",
"                    o ) p.t.i.p.i.t.i.i.i.u.i.s.s.s.s.s.s.s.s.s.s.s.l.l.s.l.l.l.l.l.l.l.x.x.x.l.l.l.u.s.J                       ",
"                    X R t.t.t.t.t.t.t.e.e.u.u.u.u.u.u.u.u.u.u.u.u.u.s.u.u.s.u.s.l.s.s.s.s.s.s.u.u.u.u.u.Z                       ",
"                    . R t.t.t.t.t.e.e.e.e.e.e.e.e.u.e.u.u.e.e.e.u.e.u.u.5.u.u.u.u.s.u.u.5.s.u.u.u.q.u.q.Z                       ",
"                    . Y t.r.r.r.q.q.q.t.e.q.e.e.e.q.e.e.e.e.e.e.e.u.e.q.u.e.e.e.e.u.u.u.e.e.e.e.q.e.t.t.V                       ",
"                      Y r.r.O.O.O.O.O.q.q.q.q.q.q.q.q.q.q.q.q.q.q.q.q.q.q.q.q.4.q.q.e.4.q.q.q.q.q.q.q.q.j                       ",
"                      C r.O.O.X...O.O.O.O.O.O.O.q.q.q.O.O.q.q.q.q.q.q.q.q.O.O.O.O.q.O.q.O.O.O.O.q.q.q.e.y                       ",
"                      p O.O.O.X...X.X.O.O...O.O.O.] O.O.X.O.O.O.O.O.O.O.{ O.O.O.O.O.O.O...O.O.O.O.O.O.o.r                       ",
"                      r r.O.O.O...........X... . . ..... .......] ....O.X.O.X.X.X...........X...X.O.O.o.4                       ",
"                      8 O.O.O.O......... . . . .| | | |  . . . .O...] ....X... . . . .....X. ...X...X.[ =                       ",
"                      , { O.O.O.X..... . . . . .| } | | | | | |  .|  . . . . . . . .]  . . . .|  . ...( @                       ",
"                      # _ O.X.X.../ /  . . .|  .| } ! B B Q | | | } | ] | W H Q ] | | | |  .] W ]  ...U .                       ",
"                      . R O.X.O.L # @ G  . .| | | | N .   t ] | | ! } } H # . 7 Q |  .|  . .p X u o.X.Z                         ",
"                        Z O.O.( -     , '  . .| | E #     . H | | | } W -       p |  . ...P @   + ) r.p                         ",
"                        y r.r.N         p X. . . .i         , W |  .| i         O ~ ..X.( ,       C w.4                         ",
"                        & R R =         + B [ o.I &           e ' ..P @           8 ` 4.u         ; u .                         ",
"                          X X             . , 4 @             . , 8 #               ; ;                                         ",
"                            .                   . % 3 3 & .                         + o .                                       ",
"                          8 %.S 0 .           4 #.g.H.G.C.,.S 4                 X A 8.7.&.f +                                   ",
"                          9 a.P.k.4         u 4.v.P.R.E.E.!.!.3.=               j c.P.^.(.U.$.@                                 ",
"                          X J y.<.:       @ ^ O.i.x.x.m.x.v.v.1.#               T z.v.v.l.s._ =                                 ",
"                            . & $         . p _ { { { [ _ ~ N ,                 : Z ~ ~ L i =                                   ",
"                                              # : : : * @ X                       . X X                                         ",
"                                                                                                                                ",
"                                                                                                                                ",
"                                                                                                                                ",
"                                                                                                                                ",
"                                                                                                                                ",
"                                                                                                                                ",
"                                                                                                                                ",
"                                                                                                                                ",
"                                                                                                                                "
};
