/* XPM */
static char *_3[] = {
/* columns rows colors chars-per-pixel */
"64 64 129 2 ",
"   c #181F22",
".  c #1D2124",
"X  c #242024",
"o  c #2A2124",
"O  c #212629",
"+  c #242A2D",
"@  c #332427",
"#  c #272D31",
"$  c #282F32",
"%  c #293134",
"&  c #2E363A",
"*  c #2F383C",
"=  c #313A3E",
"-  c #5C2521",
";  c #642621",
":  c #6E2821",
">  c #782A22",
",  c #7B3B37",
"<  c #723D3D",
"1  c #5D4331",
"2  c #6A452E",
"3  c #70462C",
"4  c #78482B",
"5  c #6B493D",
"6  c #714638",
"7  c #7B553F",
"8  c #343E42",
"9  c #374146",
"0  c #384347",
"q  c #3A454A",
"w  c #3E494E",
"e  c #3F4B50",
"r  c #434645",
"t  c #4F454C",
"y  c #424D52",
"u  c #514C54",
"i  c #5D4B50",
"p  c #455157",
"a  c #475359",
"s  c #49555C",
"d  c #4B585F",
"f  c #52545A",
"g  c #59575D",
"h  c #575D5E",
"j  c #5B5B5A",
"k  c #634C45",
"l  c #66474B",
"z  c #6A4649",
"x  c #724546",
"c  c #6E5544",
"v  c #6C5648",
"b  c #775541",
"n  c #635A55",
"m  c #6A5B51",
"M  c #68585D",
"N  c #755357",
"B  c #7A5155",
"V  c #715459",
"C  c #69665F",
"Z  c #4E5C62",
"A  c #485D6D",
"S  c #515E65",
"D  c #526067",
"F  c #5C6364",
"G  c #536168",
"H  c #58676E",
"J  c #57686F",
"K  c #59686F",
"L  c #4D6474",
"P  c #5B6B72",
"I  c #546C7D",
"U  c #586E7E",
"Y  c #B03F19",
"T  c #802D22",
"R  c #823C36",
"E  c #8A3E34",
"W  c #8C3B3B",
"Q  c #943A3A",
"!  c #9B3939",
"~  c #B34019",
"^  c #AD4026",
"/  c #AB4D2C",
"(  c #B64326",
")  c #BE4727",
"_  c #AD572D",
"`  c #B4582B",
"'  c #BC5929",
"]  c #A05136",
"[  c #AA503E",
"{  c #B65937",
"}  c #BD5D35",
"|  c #B1503C",
" . c #BA6A37",
".. c #B4693A",
"X. c #C54B27",
"o. c #CF5720",
"O. c #C55928",
"+. c #D45820",
"@. c #D95920",
"#. c #D6502B",
"$. c #DC522A",
"%. c #E15529",
"&. c #C56B2E",
"*. c #CC6D2D",
"=. c #DC6620",
"-. c #D16C2D",
";. c #C46133",
":. c #CA6531",
">. c #C36A33",
",. c #E16820",
"<. c #F26429",
"1. c #F56829",
"2. c #965047",
"3. c #9D5044",
"4. c #A35041",
"5. c #946A4C",
"6. c #9E6C48",
"7. c #A56D45",
"8. c #F2832A",
"9. c #F78A29",
"0. c #F98E29",
"q. c #566F80",
"w. c #577082",
"e. c #5A7486",
"r. c #5B7588",
"t. c #5E798D",
"y. c #607787",
"u. c #617989",
"i. c #6C8BA2",
/* pixels */
"8 Z P P P P P q a P P P P P w p P P P P P a y P P P P P y y P P P P P s w P P P P P S 0 H P P P P G w H P P P P G 0 H P P P P P ",
"= p G G G D S 9 p G G G G D q w G G G G S y y G G G G G w q S G G G G y 8 S G G G S a 8 S G G G G d 0 S S G G G a 8 Z S G G G Z ",
"= a G G G G S 9 y G G G D D q w G S G S G y w S G G G G w q S G G G G y 0 S G G G G a 8 Z G S G G s 0 S G S G G s 8 S G G G G S ",
"8 a G G G G S 0 y G G G G D q w G G G G G y y S G G G G w w S S G G G y 0 S G G G G a 8 Z G G G G s 0 S G G G S s 8 Z G G G G Z ",
"= p Z Z Z a p 8 y Z Z Z a p 9 w S Z Z d a q w Z S Z d a 0 q Z S S d a w 8 Z Z Z Z a y 8 s S Z Z s y 8 a a Z Z S p 8 p a Z Z Z d ",
"* # + + + O O & $ + + + + + % % O + O O O % $ + + O O O % % O + O O O $ & + O + O O + & + O + O O # & O O + + O # & + O O + + + ",
"= & & & & = & = & & & & & & = = & * * * = = = * * = * * = * * * * * = * = * = & = & * = = * = & * = * & * = & & * = & & & * & & ",
"= Z P H H H H 0 p P H P H H w y P H H J H y y P H H H H y y H H H H H a 0 H J H H H d 0 G H H P H Z q H H J H P Z 8 G H P H H H ",
"8 a G S G S S 9 y G G D D S q w G G G G S y w S G S G S w 0 S G G G S y 9 S G G S G a 8 Z S G S S s 0 S S G G G a 8 Z G G G G Z ",
"= a G G G G S 0 y G D G G D q w G G S G S e y S G G G G w w G S G S G y 9 S G G G G a 8 S G G G G Z 0 S G G G G s 8 Z G G S G S ",
"= a S G G G S 0 p D D G D D q w S G G G G y e S G G S G w w S S G S G y 0 S G G G G a 8 S S G G G Z 0 S G G G G a 8 Z G G G G Z ",
"8 y Z Z d a y 8 y d Z d a p 9 w s Z Z s a 0 w Z Z Z a p 0 0 Z Z S s a w 8 s Z Z s a e 8 a Z Z s p e 8 y p Z Z Z p 8 y a s Z Z s ",
"* + O O O . O & $ O . O O . % % O O O X X $ $ O O O O . $ $ O O O O X # & O . O . O + % + . O O . + % O X . + . + & O O O O O O ",
"= 8 8 8 8 8 8 = = 8 8 8 8 8 = 8 8 8 8 8 8 8 = 8 8 8 8 8 8 = 8 8 8 8 8 8 = 8 8 8 8 8 8 8 8 8 8 8 8 8 8 8 8 8 8 8 8 = 8 8 8 8 8 8 ",
"= Z H H P H H 0 a P H P H H w y P J J P J y y P P P J J y w J P H J J a q H P P P P s 9 H J P H P Z 0 H P H H P d 8 S H P J H H ",
"= a G S g Z S 0 y D G G D S q w S S g S S e y S S G S S w w S S g S S y 9 Z S G S S a 8 Z S g S S s 9 Z S G G G a 8 Z S g G S Z ",
"= a G M ! f S 0 y D D G D D q e D m Q f D w e G G G G G w q S V Q Z G y 0 S G G S G a 8 Z N Q d G s 9 Z G G G G s 8 Z B W Z S S ",
"= a S 2.%.x Z 0 y D G G G D q e G 3.%.z D w e G G G G G e q S 4.$.l G y 9 S G G G G a 8 Z [ $.k G Z 9 G G G G G s 8 Z | #.i S S ",
"= y s { 0.E e 8 e s s s p y 8 q s } 0.R e 0 w a s s y y 8 0 f ;.9., e q 8 s s s a y w 8 u :.8.< e e 8 y y s s s y 8 t -.8.< s a ",
"= + X ^ 1.T   % # . . . . . % $ o ( <.> . $ $ . . . X . $ % o ) <.:   # % . . . .   + & o X.<.;   + % . . . . . + & @ X.%.- . . ",
"= 9 q _ @.4 9 8 8 0 0 0 0 0 = 8 r ` +.3 9 9 9 9 0 0 0 0 8 8 r ' +.2 9 = 8 9 0 0 0 0 8 8 r ' o.1 9 9 8 9 9 9 9 9 8 8 1 O.+.1 0 0 ",
"= d K ] ~ 6 G 0 a K K K H H w y H ] ~ 5 G e e J J J J H e w F _ Y z H a 0 H J H P H d 8 F / ~ k J Z q J J J H P Z 9 S _ ^ k J G ",
"= a G ..=.2.Z 9 y D D D D D q e F  .,.7 D w e G G G G S w 0 F  .=.b D y 0 S S G S G a 8 j >.=.c Z s 9 Z G G G S e 9 h *.=.v G Z ",
"= a G 5.*.m Z 9 p D D D D D 0 e D 5.*.n G w e G S G G G w q G 6.*.n G y 0 S G G G G a 8 Z 7.&.j G Z 9 D G G G G s 8 Z .. .j G D ",
"= a G F C D S 0 e D G G D D q e D F C D G w y D D D D D q q G F C D G y 0 S G G G G a 9 d F C D D s 0 D D G G G s 8 A F C G G Z ",
"= e a a a e e 8 w a a a y e 8 0 a a a y w 9 w a a a y y 9 9 a a a p w 9 9 p a a p w 0 9 p a a p w w 9 w w a a a e 8 w e p p a p ",
"8 . . . . .   & + . . . . . % $ . . . . . $ # . . . .   % % . . . . . + % . . . . . . & . . . . . . % . . . . . . & . . . . . . ",
"= * & & & & & * & & & & & & * * & & & & & & & & & & & & & & & & & & & & = & & & * * * & & & & & & * & & & & & & 8 & & & & & & & ",
"= s H G G H G 0 p H H G G G q e G G G H G p p G G G G H y q G H H G G p 0 G G G G H s 8 G G H G H d 0 G G H G H a 9 D G G J G D ",
"= a G G G D S 9 y D G G G G q w G G G D D w w G G G G D w q D G G G D p 9 D G G G G a 9 Z G G G G d q Z D G G G a 9 Z G G G G Z ",
"= a G G G D S 9 y D D G D D q e G D G D G w y G G G D G q q D D D D D y 9 D G G D G a 9 Z G G D G d 0 D D G D D s 9 Z G D G G D ",
"= s G G G G S 0 p D G G G G q e G G G G G w w G G G G G y q D G G G D p 9 D G G D G a 9 Z G G G G d 0 Z G G G D a 9 Z G G G D Z ",
"= a S S S s a 8 y S S S d s 0 w S S Z Z s w w S S S d a 0 w S S D d s w 9 Z D D d a y 8 d S S Z a p 9 p a S S S a 8 a s Z S S Z ",
"= $ + # # + + & % + # # + # % % # + # + + % % # + # + + % % + # + + + % & + + + + + $ & % + + + + $ & + + + + # % & + + + # # + ",
"= % $ % $ $ % = % % $ $ $ $ % & $ $ $ $ $ & & $ $ $ $ $ = & $ % % % % % & % % % % % % = % % % % % % & % % % % % % & % % % % % % ",
"8 d J H H H G 0 a J H H H H w y H H H H H y y H H H H H y w H J J H H p q G H J H H d 9 G H H H H S q G H H H H d 9 D H J H H G ",
"= a G G G S S 0 y G G G G S w w G G G G S y w G G G G S w 0 S G D D D p 0 Z D G D G a 8 S G G G D d 0 S D D G G a 8 Z D D D G S ",
"= a G D G G S 0 y G G G G S 0 y G S G G G w y S G G G G w w S G G D D y 0 D D G G G a 9 S G D D G a 0 S D G G G a 9 Z D D D D S ",
"8 a G G S G S 0 y S G G S G 0 w S G G G G e y S G S G G e q S S G G G p 0 D G G D G p 9 Z D D D G d 0 D G G G D a 9 S G G G D Z ",
"= y Z S S s a 8 y S S S d a 0 y Z S Z s s q w Z S S d a 0 q S S S d a q 9 d Z S d a y 8 d Z S d a p 9 p a S S Z a 8 p a Z Z S d ",
"= $ + + + + + % $ + + + + O % % # + + + O % % + + + + + % % + + + + + % & + + + + + # & + + + + + + & + + + + + % & + + + + + + ",
"= & & & & * * = * & * * * * * = & & * * * * = * & & & & = = & & & & & & = & & & & & & = & = = & & & = = & & = = & & & & & & & & ",
"= Z H H J H H 0 a P H P H H y y J P H J H y y J P H P H y w H P H H H p q H K K H H s 9 G H K H H S q G H H K K Z 8 D H P H H J ",
"= a G G G S S 0 y G S G S S 0 w S G S G S y y G S G S G w 0 S G G D D y 9 D G D D D a 8 S G G D D a 0 S D D D G a 9 Z D D D D Z ",
"= a G G G G S 0 y G G G G G q r G D G G S y y S G G G S e q S G G G D y 0 D D D D G a 9 h D D D D s 0 D D G D G a 9 S D D G G S ",
"= a G S S G S 8 y S G G G S q y S G D S G y y S S G G G w q S A D G D p 9 S D D D G s = Z D D D D d 0 D D D D D a 8 Z G D D D Z ",
"I e.u.u.u.u.u.U w.u.u.u.u.u.U w.u.u.u.u.u.U U y.u.u.u.u.q.U t.t.u.u.u.w.I y.u.u.u.u.y.I r.u.u.u.u.e.U y.u.u.u.y.e.U y.u.u.u.u.y.",
"i.i.i.i.i.i.i.i.i.i.i.i.i.i.i.i.i.i.i.i.i.i.i.i.i.i.i.i.i.i.i.i.i.i.i.i.i.i.i.i.i.i.i.i.i.i.i.i.i.i.i.i.i.i.i.i.i.i.i.i.i.i.i.i.",
"u.u.t.t.t.t.t.t.t.t.t.t.t.t.t.t.t.t.t.t.t.t.t.t.t.t.t.t.t.t.t.t.t.t.t.t.t.t.t.t.t.t.t.t.t.t.t.t.u.t.t.t.t.t.t.t.t.t.t.t.t.r.r.r.",
"r.r.r.r.r.r.e.r.r.r.r.r.e.r.r.r.r.r.e.r.r.r.e.r.r.r.r.r.r.e.r.r.e.r.r.r.e.r.r.r.r.r.r.r.r.e.r.r.e.e.w.e.e.e.e.r.r.r.e.r.r.I I I ",
"r.r.r.r.r.r.r.r.r.r.e.r.r.r.r.r.r.r.r.r.r.r.r.r.r.r.r.r.r.r.r.r.r.r.r.r.r.r.r.r.r.r.r.r.r.r.r.r.w.I I I I e.r.r.r.r.r.r.r.w.w.I ",
"r.r.r.r.r.r.r.r.r.e.q.e.r.r.r.r.r.r.r.r.r.r.r.r.r.r.r.r.r.r.r.r.r.r.r.r.r.r.r.r.r.r.e.e.r.r.r.r.e.w.e.e.e.e.r.r.r.r.r.r.r.r.r.r.",
"r.r.r.r.r.r.r.r.r.r.e.r.r.r.r.r.r.r.r.r.r.r.r.r.r.r.r.r.r.r.r.r.r.r.r.r.r.r.r.r.r.e.I q.r.r.r.r.e.r.r.t.e.e.r.r.r.r.r.r.r.r.r.r.",
"r.r.r.r.r.r.r.r.r.r.r.r.r.r.r.e.r.r.r.r.r.r.r.r.r.r.r.r.r.r.r.r.r.r.r.r.r.r.r.r.r.w.I q.r.r.r.r.r.r.r.r.r.r.r.r.r.r.r.r.r.r.r.r.",
"r.r.r.r.r.r.r.r.r.r.r.r.r.r.q.q.r.r.r.r.r.r.r.r.r.r.r.r.r.r.r.r.r.r.r.r.r.r.r.r.r.e.e.e.r.r.r.r.r.r.r.r.r.r.r.r.r.r.r.r.I w.r.r.",
"r.r.r.r.r.r.r.r.r.r.r.r.r.r.e.e.r.r.r.r.r.r.r.r.r.r.r.r.r.r.r.r.r.r.r.r.r.r.r.r.r.r.r.e.r.r.r.r.r.r.r.r.r.r.r.r.r.r.r.r.I w.r.r.",
"r.r.e.e.r.r.r.r.r.r.r.r.r.r.r.r.r.r.r.r.r.r.r.r.r.r.r.r.r.r.r.r.r.r.r.r.r.r.r.r.r.r.r.r.r.r.r.r.r.r.r.r.r.r.r.r.r.r.r.r.e.e.r.r.",
"r.r.e.e.r.r.r.r.r.r.r.r.r.r.r.r.r.r.r.r.e.e.r.r.r.r.r.r.r.r.r.r.r.r.r.r.r.r.r.r.r.r.r.r.r.r.r.r.r.r.r.r.r.r.r.r.r.r.r.r.r.r.r.r.",
"e.q.q.q.q.q.e.r.r.r.r.r.r.r.r.r.r.r.r.r.q.e.r.r.r.r.r.r.r.r.r.r.r.r.r.r.r.r.r.r.r.r.r.r.r.r.r.r.r.r.r.r.r.r.r.r.r.r.r.r.r.r.r.r.",
"q.q.I I I q.q.r.r.r.r.r.r.r.r.r.r.r.r.r.e.e.r.r.r.r.r.r.r.r.r.r.r.r.r.r.r.r.r.r.r.r.r.r.r.r.r.r.r.r.r.r.r.r.r.r.r.r.r.r.r.r.r.r.",
"e.r.r.r.r.e.r.r.r.r.r.r.r.r.r.r.e.e.r.r.r.r.r.r.r.r.r.r.r.r.r.r.r.r.e.e.r.r.r.r.e.e.r.e.e.r.e.e.e.e.r.e.e.e.r.e.e.r.e.e.e.e.r.e.",
"r.r.r.r.r.e.r.r.r.r.r.r.r.r.r.r.e.e.r.r.r.r.r.r.r.r.r.r.r.r.r.r.r.r.r.e.r.r.q.L L L L L L L L L L L L L L L L L L L L L L L L L ",
"I I q.q.q.I I I q.I I I I I I I q.q.L q.q.q.q.L I q.q.q.q.L I I q.q.I I q.I L L A A A A A A A A A A A A A A A A A A A A A A A A ",
"A A A A A A A A A A A A A A A A A A A A A A A A A A A A A A A A A A A A A A A A A A A A A A A A A A A A A A A A A A A A A A A A "
};
