/* XPM */
static char *_7[] = {
/* columns rows colors chars-per-pixel */
"64 64 223 2 ",
"   c #000000",
".  c #0A0603",
"X  c #0B0906",
"o  c #0C0A09",
"O  c #130B03",
"+  c #110A06",
"@  c #1A0D06",
"#  c #1A1107",
"$  c #13100E",
"%  c #1B140C",
"&  c #141311",
"*  c #191614",
"=  c #1C1917",
"-  c #1D1B18",
";  c #260E06",
":  c #25190E",
">  c #351D0E",
",  c #291D14",
"<  c #211D1A",
"1  c #25211E",
"2  c #2C221C",
"3  c #392716",
"4  c #2A2624",
"5  c #2D2926",
"6  c #2C2927",
"7  c #382C24",
"8  c #332E2B",
"9  c #35312D",
"0  c #3B342E",
"q  c #3C3734",
"w  c #472D19",
"e  c #4B341A",
"r  c #553D1D",
"t  c #61270E",
"y  c #622D12",
"u  c #673617",
"i  c #683918",
"p  c #422D22",
"a  c #453428",
"s  c #533C2B",
"d  c #473C36",
"f  c #623C2E",
"g  c #5B4217",
"h  c #5D4318",
"j  c #58472F",
"k  c #46403B",
"l  c #4B443E",
"z  c #524339",
"x  c #664622",
"c  c #714E23",
"v  c #77552B",
"b  c #654D36",
"n  c #73493A",
"m  c #7B5936",
"M  c #4D4641",
"N  c #4E4843",
"B  c #4E4A48",
"V  c #514943",
"C  c #554B46",
"Z  c #57504B",
"A  c #5C5755",
"S  c #6B5243",
"D  c #67554B",
"F  c #715B47",
"G  c #665D58",
"H  c #715E53",
"J  c #696058",
"K  c #77675B",
"L  c #756B62",
"P  c #7D6F65",
"I  c #7B7169",
"U  c #89572A",
"Y  c #955525",
"T  c #9E5225",
"R  c #855934",
"E  c #A35E38",
"W  c #956829",
"Q  c #9A712E",
"!  c #956237",
"~  c #B7652C",
"^  c #BD692D",
"/  c #B96D39",
"(  c #A57437",
")  c #C85F2C",
"_  c #C16D33",
"`  c #D16E36",
"'  c #C27036",
"]  c #C8753B",
"[  c #D67236",
"{  c #866445",
"}  c #956B43",
"|  c #96714B",
" . c #836959",
".. c #967258",
"X. c #A56D4A",
"o. c #BA744C",
"O. c #A36C5A",
"+. c #A27A58",
"@. c #826F61",
"#. c #877161",
"$. c #8B7665",
"%. c #86766A",
"&. c #8E796A",
"*. c #997C69",
"=. c #877D76",
"-. c #947E74",
";. c #A07F6E",
":. c #C27A47",
">. c #CB7355",
",. c #BD8438",
"<. c #C28639",
"1. c #C78C39",
"2. c #C48C3A",
"3. c #C79139",
"4. c #EB8A3B",
"5. c #F5983C",
"6. c #BC8542",
"7. c #B6844C",
"8. c #AC8256",
"9. c #B58453",
"0. c #928075",
"q. c #958579",
"w. c #A58477",
"e. c #A28B7D",
"r. c #B28D72",
"t. c #B9937B",
"y. c #C98B47",
"u. c #CF9245",
"i. c #D5974B",
"p. c #C38E51",
"a. c #DB8E53",
"s. c #CD9455",
"d. c #D79A54",
"f. c #EB8A49",
"g. c #EB9843",
"h. c #EE9D4C",
"j. c #F19840",
"k. c #EF9D56",
"l. c #EBA44E",
"z. c #EFA84B",
"x. c #F6A345",
"c. c #F4A849",
"v. c #F2AB4C",
"b. c #EBA454",
"n. c #EEA953",
"m. c #E7A659",
"M. c #EBA45B",
"N. c #F2A653",
"B. c #F1AC52",
"V. c #F1A75B",
"C. c #F1AC5B",
"Z. c #F4B253",
"A. c #F3B35B",
"S. c #D19A6F",
"D. c #C0997E",
"F. c #E69D60",
"G. c #D7A673",
"H. c #E9A968",
"J. c #F3AB66",
"K. c #F5B663",
"L. c #F4B56B",
"P. c #E9B87E",
"I. c #F5B877",
"U. c #978B84",
"Y. c #9C9187",
"T. c #9D9490",
"R. c #A39283",
"E. c #A4968A",
"W. c #AA988A",
"Q. c #B39181",
"!. c #A69C96",
"~. c #B79992",
"^. c #AAA199",
"/. c #B6A597",
"(. c #BAAA9C",
"). c #ACA4A0",
"_. c #C8A58C",
"`. c #CBAB93",
"'. c #C5AA99",
"]. c #D0AB90",
"[. c #CAB19D",
"{. c #D7B19B",
"}. c #E9B587",
"|. c #F5BC86",
" X c #ECBA98",
".X c #CDABA5",
"XX c #C4B4A5",
"oX c #CBB5A3",
"OX c #CAB8A9",
"+X c #DBB4A4",
"@X c #D3B9A5",
"#X c #D7B8A4",
"$X c #D4BFAC",
"%X c #C5BBB7",
"&X c #C9BDB6",
"*X c #E3B9A7",
"=X c #F7C18A",
"-X c #F8C597",
";X c #F5C29A",
":X c #D6C2AF",
">X c #DAC2AE",
",X c #CFC4BE",
"<X c #D4C2B3",
"1X c #DBC6B3",
"2X c #DDC9B6",
"3X c #D3C5BB",
"4X c #DECBB9",
"5X c #EEC1A9",
"6X c #F0C8AA",
"7X c #E1CEBB",
"8X c #E3D0BE",
"9X c #D4C9C5",
"0X c #DDCEC5",
"qX c #D7CDC8",
"wX c #E1CFC1",
"eX c #E5D3C3",
"rX c #E8D6C4",
"tX c #E5D6CB",
"yX c #EAD9CA",
"uX c #E8DCD5",
"iX c #EEE1D7",
"pX c #F0E2D7",
"aX c #F1E5DC",
/* pixels */
"                                                                                                                                ",
"                                                                                                                                ",
"                                                                                                                                ",
"                                                                                                                                ",
"                                                                                                                                ",
"                                                                                                                                ",
"                                                                                                                                ",
"                                                                                                                                ",
"                                                                                                                                ",
"                                                                                                                                ",
"                                                                                                                                ",
"                                                                                                                                ",
"                                                                                                                                ",
"                                                                                                                                ",
"                                                                                                                                ",
"                                                                                                                                ",
"                                                                                                                                ",
"                                                                                                                                ",
"                                                                                                                                ",
"                              . O X O O O O .         . O O X         . O X .       . O X .   O O X O O O O O X X               ",
"                              c <.<.<.<.<.<.| $     3 ,.<.<.,.j       v 3.,.b       c 2.1.F w 2.2.3.2.1.3.1.3.3.8.1             ",
"                          : c u.N.4.4.4.4.4.H.d . r ( z.f.M.B.S.3   o y.v.v.H.0 # c 3.c.K.#X| Z.Z.c.5.j.j.5.j.j.L.F             ",
"                        # v N.h.J.E t y y y y , 3 i.x.N.>.:.V.v.r.# : d.Z.z.v.t.R v.v.c.I.[.7.v.A.I.U u u u u u i :             ",
"                      % 6.h.M.f.~ p           R g.b.k.) n > y.z.v...j m.v.v.v.Z.n.Z.v.c.=X~.p.Z.K.#X<                           ",
"                      w m.n.|.-.. s W W W v & o.c.A.+X,   . ( c.Z.+X..B.B.h.f.V.f.f.C.v.;XQ.i.Z.Z.H.Q Q W Q j                   ",
"                      b J.n. XK   R J.N.c.|. .s.v.A._.e w e u.z.L..X9.C.C.G.o.L.G.o.B.Z.5X*.b.B.v.x.x.x.c.c.}.8                 ",
"                      { L.b.*Xd   @ / B.n.*X0.l.z.N.x.l.b.m.N.z.|.~.p.N.L..X+.I.'.9.B.K.*X+.B.Z.K._ T T T T ! :                 ",
"                      w a.C.V.{ X . ( c.C.*X+.m.n.h.[ ` ` a.V.v.;XR.d.B.|.~.y :.O.s.Z.I..X9.B.A.6Xd                             ",
"                        x F.N.H.m x u.N.L..X8.J.C. Xf ; ; ! C.C.*X;.m.B. X-.. ; w H.n.=X~.p.Z.Z.P.v h h h h g $                 ",
"                        . R M.b.k.M.b.h.I.~.o.N.J.{.1     } V.V.*X..M.M.-XH     a M.n.|.;.s.C.n.v.z.z.z.c.c.K.$.                ",
"                          @ Y _ ~ ^ ^ ^ _ n w ~ _ X.o     3 ~ _ X.3 T _ y.p     O Y _ :.s i _ _ / ' _ ' ' ' ] | X               ",
"                            . O @ O O O O .   O @ .         + O O   X @ +         . + + . . @ @ # @ + # O O @ X                 ",
"              - l l l l l N 8     8 l l l d l l M 9       = l l M d X       q N l l l l l l 9     & l l M M M l N N -           ",
"            o I 7X>X>X1X1X4XOXd o W.1X1X1X7X1X$X1X<XZ   o K 7X1X7X3XG     = (.7X7X2X7X2X7X8X3Xl   l 2X4X8X8XeX8X8XrX^.*         ",
"          6 W.<X$XD.r.t._.4X7X(.4 z t.[.7X7X1X_.t._.q.6 W.$X2Xt.$X8X<Xd   9 1XwX7X_._.Q._.7X8XoX4 & &._.1XeXrX1X_.`.1XM         ",
"          Z 7X4XeXQ.p 7 s R.].#XU.o 2 &.2X7XeXE.a a K q.7X@X`.w.w.1XeXXX1 Z 7X7XyX~.a 7 J 7X8XpX!.. $ z OXrXyXtXK a k %         ",
"          J 7X4XtXT.< - - d K  .D X   =.7X4XuX=.  & (.7XeX@X..C 1 [.7X8XY.q.wX8XiXU.  & P 7XeXpX)..   4 <XeXyXtX8               ",
"          = e.7X4X<XXXoXoX(.d       o !.7X7XuXA   8 $X4XrX,X4   - XX7XeX9X<X4XeXiXJ < (.1X7XeXaX=.    N eXeXiX,X&               ",
"            6 Q._._.`.[.1X7X(.-     < OX7XeXqX9   V 3X7X8X3Xq.&.Y.2X7XeX9X3X7X8XeXE.Y.8X>X].{.7XA     L eXeXaX).                ",
"        o 0 q z S S S  .<X1XtXT.o   q 1X7XtX%X=   L 7X7X>X@X:X$X4X7X4XeX,X4X8X4X>X8X8XeX5X$.F J 4     U.rXyXaXI                 ",
"        l 1X1X(.8 .   k 1X2XeX%X=   G 4X4XyX!.o   Y.7X7X@Xw.*.w.[.8X8X0X9X4X7X$Xr.1X7X8XeXY.o       $ (.tXtXiXZ                 ",
"        - R.4X7X(.E.E.(.2X'.`.Y.X   =.7X7XuX=.  & (.7XeX0Xz $ < /.8X8X9X3X7XeX0X=.%.4XeXeXeXI       4 <XeXiXtX8                 ",
"          9 /.[.[.[.[.[.oXOXD 6     L [.oX0XA   $ R.oX$X3X6   o q.oX@X&XE.oX@X0XG & R.@X@X@X3XB     1 /.oX4X,X&                 ",
"            0  .#.#.#.#.$.%.&       & H %.-.6     4 @.&.%.o     < K $.P 1 H $.q.9   1 @.&.&.q.M       0 #.0.L .                 ",
"              o o X X o o .           . o o         . o .         X o .   . o o .     o o o o .         o o .                   ",
"                                                                                                                                ",
"                                                                                                                                ",
"                                                                                                                                ",
"                                                                                                                                ",
"                                                                                                                                ",
"                                                                                                                                ",
"                                                                                                                                ",
"                                                                                                                                ",
"                                                                                                                                ",
"                                                                                                                                ",
"                                                                                                                                ",
"                                                                                                                                ",
"                                                                                                                                ",
"                                                                                                                                ",
"                                                                                                                                ",
"                                                                                                                                ",
"                                                                                                                                ",
"                                                                                                                                ",
"                                                                                                                                "
};
