/* XPM */
static char *_0[] = {
/* columns rows colors chars-per-pixel */
"64 64 219 2 ",
"   c #000000",
".  c #0C0B05",
"X  c #0F0E09",
"o  c #100F06",
"O  c #15140C",
"+  c #191508",
"@  c #1A1A10",
"#  c #2B240D",
"$  c #242315",
"%  c #2E2D1B",
"&  c #312D13",
"*  c #393318",
"=  c #3D3C24",
"-  c #443D19",
";  c #4A411A",
":  c #57491A",
">  c #454227",
",  c #524E26",
"<  c #58542E",
"1  c #555232",
"2  c #5D5B37",
"3  c #645A28",
"4  c #615D35",
"5  c #696029",
"6  c #786B2B",
"7  c #686438",
"8  c #757245",
"9  c #87732A",
"0  c #907C30",
"q  c #C6760C",
"w  c #D97702",
"e  c #E37F02",
"r  c #837F4D",
"t  c #8E8136",
"y  c #96893B",
"u  c #9A8D3C",
"i  c #9B913F",
"p  c #D48205",
"a  c #D88604",
"s  c #DC8B04",
"d  c #E58304",
"f  c #EA8500",
"g  c #EB8D02",
"h  c #E3840C",
"j  c #E48C09",
"k  c #E68A0D",
"l  c #ED9401",
"z  c #ED9B01",
"x  c #E39408",
"c  c #EC930A",
"v  c #ED9D0D",
"b  c #F09D08",
"n  c #EB9715",
"m  c #EB9D13",
"M  c #F09713",
"N  c #F29D14",
"B  c #EFA303",
"V  c #EEA30B",
"C  c #EEAB0E",
"Z  c #F2A303",
"A  c #F0AA05",
"S  c #F1A30C",
"D  c #F2AC0D",
"F  c #F3B30B",
"G  c #EEA313",
"H  c #EFAC12",
"J  c #ECA51A",
"K  c #EEAA1E",
"L  c #F4A215",
"P  c #F1AA13",
"I  c #F4A519",
"U  c #F2AC1C",
"Y  c #F3B314",
"T  c #F5BA14",
"R  c #F4B31C",
"E  c #F8B21D",
"W  c #F5BB1D",
"Q  c #D89C2A",
"!  c #D29830",
"~  c #DFA62A",
"^  c #DDA42C",
"/  c #C9A63B",
"(  c #DBA734",
")  c #D5B03E",
"_  c #E6A928",
"`  c #F8AE20",
"'  c #ECB225",
"]  c #EEBC26",
"[  c #EEB32D",
"{  c #F4B423",
"}  c #F8B423",
"|  c #F5BC23",
" . c #F9BB25",
".. c #F1B42A",
"X. c #F3BC2B",
"o. c #F9BC2A",
"O. c #EAB837",
"+. c #F1B332",
"@. c #F2BA35",
"#. c #F2BD3A",
"$. c #F7C51C",
"%. c #F6C51D",
"&. c #F6C224",
"*. c #F8C324",
"=. c #F9CC24",
"-. c #F5C32B",
";. c #FAC32C",
":. c #F4CB2D",
">. c #F9CD2C",
",. c #FAD523",
"<. c #FAD42B",
"1. c #FBDB2A",
"2. c #F4C334",
"3. c #FAC435",
"4. c #FACA32",
"5. c #F4C73C",
"6. c #FAC53E",
"7. c #FACB3C",
"8. c #FAD433",
"9. c #FBDD36",
"0. c #FAD53A",
"q. c #F8D939",
"w. c #FCE12E",
"e. c #FCE437",
"r. c #FCE53C",
"t. c #85814E",
"y. c #8A8651",
"u. c #918D55",
"i. c #99955A",
"p. c #ADA045",
"a. c #B7AB4B",
"s. c #9D9A64",
"d. c #A8A465",
"f. c #B9B46D",
"g. c #D1B343",
"h. c #C9BC52",
"j. c #E3BD43",
"k. c #F5BE40",
"l. c #C4BE73",
"z. c #D4C757",
"x. c #ECC446",
"c. c #F3C442",
"v. c #F4CA44",
"b. c #FACC43",
"n. c #F2C24D",
"m. c #F4CC4B",
"M. c #FACB49",
"N. c #F6D246",
"B. c #F9D547",
"V. c #FDD34B",
"C. c #FAD94D",
"Z. c #E6CE54",
"A. c #F6CB52",
"S. c #FBCD52",
"D. c #E9D155",
"F. c #F6D352",
"G. c #FCD552",
"H. c #F7D854",
"J. c #FDDB54",
"K. c #F7D758",
"L. c #FBD35C",
"P. c #FBDD5B",
"I. c #FCE544",
"U. c #FDEB45",
"Y. c #FDEA4B",
"T. c #FEF047",
"R. c #FAE759",
"E. c #FDE45C",
"W. c #FEF153",
"Q. c #FEF35B",
"!. c #CAC577",
"~. c #D1CC7B",
"^. c #D6D17E",
"/. c #F7CE66",
"(. c #FCD665",
"). c #F6D964",
"_. c #FCDC64",
"`. c #F8D46D",
"'. c #F7DD6A",
"]. c #FCDC6D",
"[. c #FBDD76",
"{. c #F5E563",
"}. c #FDE462",
"|. c #FEEB64",
" X c #FCE36B",
".X c #FFEF68",
"XX c #FEF363",
"oX c #FFF269",
"OX c #FCE473",
"+X c #FDEB74",
"@X c #FCE47B",
"#X c #FDEA7C",
"$X c #FEF574",
"%X c #FEF47D",
"&X c #FFF87A",
"*X c #DDD782",
"=X c #E3DD86",
"-X c #E9E389",
";X c #FDED84",
":X c #FAEA88",
">X c #FFF486",
",X c #FFF986",
"<X c #FEF38C",
"1X c #FAEA93",
"2X c #FEED92",
"3X c #FDF594",
"4X c #FFF996",
"5X c #FEF59B",
"6X c #FFFB98",
"7X c #FFF5A2",
"8X c #FFFAA4",
"9X c #FEF5AD",
"0X c #FFF8AB",
"qX c #FFFAB3",
"wX c #FFFBBB",
"eX c #FFFCC5",
"rX c #FFFDCB",
"tX c #FFFED5",
"yX c #FFFED9",
/* pixels */
"                                                                                                                                ",
"                                                                                                                                ",
"                                                                                                                                ",
"                                                                                                                                ",
"                                                          X O @ O X .                                                           ",
"                                                  $ 1 t.d.l.~.^.^.~.!.d.r 1 $                                                   ",
"                                            O 1 d.=X3X4X6X6X6X6X6X6X6X6X6X3X=Xd.1 X                                             ",
"                                        O 7 !.3X6X6X4X4X4X4X4X4X4X6X4X4X3X4X4X4X3X!.4 X                                         ",
"                                      > f.5X6X4X4X6X6X3X<X:X;X@X#X;X;X<X3X6X6X6X3X6X3Xf.=                                       ",
"                                  X 8 -X6X6X4X4X4X:X{.D.5.2.X.-.X.X.2.5.F.'.#X3X4X4X3X6X-X8 .                                   ",
"                                @ s.3X6X6X4X4X#XF.2.&.' ~ ( ^ ^ ^ ^ Q ^ _ ' 2.F.@X3X6X3X6X3Xi.O                                 ",
"                              @ d.8X8X6X6X<XF.@.' ~ ( O.x.H.K.K.K.F.x.x.O.~ ~ _ -.F.:X4X4X4X3Xs.O                               ",
"                            O d.8X8X8X8X#X5.' ^ ( x.P.+X%X#X%X+X+X+X+X X{.).m.O.~ ' 2.'.6X6X6X6Xs.o                             ",
"                          . y.3X6X8X8X#XN.~ ! ) R..X$X$X,X&X%X$XoX.X|.|.|.XXXXR.N.O._ -.).3X4X4X4Xt.                            ",
"                          2 1X6X3X6X@XN.( ( q.T.W.Q.XX$X&X,X%X6X0X+XI.I.I.I.I.I.T.r.:.' ] ).3X3X6X1X1                           ",
"                        $ ^.6X6X3XOX2.( ^ 8.r.r.Y.Q.oX,X<X4XqXrXeXwX{.0.0.0.0.q.9.9.e.2.' -.'.6X3X6X~.$                         ",
"                        u.6X4X4X#X2.~ Q :.8.9.I.W.XX$X,X6XwXyXrXeXrX0XB.8.8.8.8.8.8.8.8.-.' 2.#X6X4X4Xy.                        ",
"                      * -X6X4X3Xm._ ! =.1.1.e.U.Q.XX$X,X6XtXtXrXeXwXeXOX,.<.<.<.1.<.<.<.,.&.] v.<X4X6X-X%                       ",
"                      u.6X4X4X'.X.! ] ,.,.w.e.U.Q.Q.$X$X6XyXrXeXwXqXqX9X9.,.,.,.,.,.,.,.,.,.W -.'.3X3X6Xy.                      ",
"                    $ *X6X6X<Xv.~ ~ $.,.1.w.r.U.T.W.Q.oXwXeXwXqX0X0X7X9X_.$.$.=.=.,.,.,.,.,.&.| 5.<X3X6X^.@                     ",
"                    2 4X4X4XOXX.Q ' &.*.$.$.,.1.9.r.I.+XwX0X7X7X4X3X2X2X[.N z z B C Y T $.&.| | -.OX4X4X3X1                     ",
"                    i.6X4X3XF._ Q Y V z A T 7.E.#X<X3X9X0X5X5X3X3X:X:X:X:X[.`./.n.@.J z z S P W ] m.3X4X6Xu.                    ",
"                  O ~.6X4X:X] q x z z V c.@X3X5X5X7X5X5X3X<X<X;X;X#X@X@X[.@X:X:X2X2X1X`...z z z H X.:X4X6X!..                   ",
"                  % -X4X<X).x q l z z k.[.@X@X#X;X;X;X;X;X#X#X#XOXOX[.].].`.`.`.[.].[.[.`.G z z V V ).<X6X-X$                   ",
"                  > >X>X>Xm.s q z z z #.(._. XOX+X+X#X#X+XOXOX X]._._.(.(.(.(.(.(.(.(.(.k.m z z V V A.>X>X:X>                   ",
"                  2 >X>X>Xx.a p z z z P A.(._._. X X X X X X}._._._.L.L.L.L.L.L.L.L.L.A._ v z z V V x.>X>X>X<                   ",
"                  7 >X>X>X@.a a z z z z J M.G.K.P.P.P.E.P.P.P.J.G.G.S.S.S.S.S.S.A.S.m.[ v z l z V V #.>X>X>X4                   ",
"                  7 ,X>X>X@.a s z l z z z J v.M.V.C.G.G.G.V.V.M.V.M.M.M.M.M.M.M.M.c.[ v z z z z V P O.>X>X>X7                   ",
"                  5 #X>X>X@.a s z z z z z z J @.b.b.b.b.B.b.b.b.6.M.6.c.6.6.6.b.5.' V Z B B z z V G #.>X>X#X3                   ",
"                . : V.}.#Xc.a a z z z z z z z m ..3.3.3.4.3.3.3.o.3.o.3.3.3.3.3.' C A A B B z z P P c.>X XF.:                   ",
"                  - v.V.G.@.j a z z z z z z z l U o.o.o.o.o.o.o.o.o.o.;.;.3.4.o.C F F F F A B B U G c.K.M.v.*                   ",
"                  # j.M.V.@.d w l l l z z z z z E o.o.o.o.o.o.o.o.o. .;.;.;.>.;.T F T T F F A z I c @.V.V.O.#                   ",
"                  + / V.M.v.k w f f f g g l l b } o.o.o.o.o.o.o.o.o.o.;.;.>.4.4.W T T T Y P S S N c c.V.V./ .                   ",
"                    t V.V.M.n e e f f f f f f g I ` I } ` } } o.} o.}  .;.;.;.;.| R R R R Y S R b _ b.M.b.0                     ",
"                    : M.V.V.[ d e f f f f f f g N N I N N N N N N I I E E }  .;.{ { | | W E Y  .v @.V.V.M.;                     ",
"                    + ) V.b.b.n f g l g f f f c I N N N I N M k k M E E  . .;.;.X.|  .&.*.*.;.R U b.V.V./ +                     ",
"                      9 V.V.V.+.g c Z Z z l g c N I N N n k e h d j m E  .;.;.;.o.-.=.>.=.<.3.R 5.V.V.V.9                       ",
"                      # j.C.C.M.N c b Z Z Z Z b N N M k h d d f g g c m U } ;.3.o.>.>.<.8.0.| -.C.C.V.j.#                       ",
"                        9 C.C.G.c.c c S Z S Z S k h k k g g g g g l z S H R { ..;.>.<.8.B.>.-.C.J.J.C.6                         ",
"                        @ ) E.J.J.@.c b L S S S S b N L S S S S S S D Y W $.*.&.>.4.8.B.4.;.C.R.J.J.g.+                         ",
"                          : D.J.P.J.@.c v L G G P P P P L G G P P P P Y T | &.*.>.4.B.>.&.C.E.E.E.D.;                           ",
"                            9 J.J.P.J.@.c v I P P U P U U P U U P U U U R | | &.4.0.&.| C.E.|.}.P.6                             ",
"                            . y E.E.E.E.c.m v P U I U U U U ' { ' { U R U R &.;.| Y X.C.|.E.}. Xy .                             ",
"                              O u E.E.E.}.F.[ c v U U { R U U U U U U { o.X.R V P 2.R.E.E.}.E.y X                               ",
"                                X t R.|.|.E.E.m.[ G v V P U { ' { { E U v v G @.F.E.}.|.E.R.0 .                                 ",
"                                  . 3 Z..X|.|..XE.K.c.[ K J V V v G m ' @.v.P.E.|..X|.{.z.3 .                                   ",
"                                      * p.E.oX.X.X|.oX{.}.P.H.F.K.K.R.E.|..X.X.X.X.X{.p.&                                       ",
"                                        . , a.{.oXoXoX.X.XoX.X.XoXoX.X.X.X.X.XoX{.a.: .                                         ",
"                                            . ; i z.{.oXoXoXoX.XoXoXXXXXoX{.z.y ; .                                             ",
"                                                  @ * 6 i a.h.z.h.h.a.u.6 - +                                                   ",
"                                                          . . O o . .                                                           ",
"                                                                                                                                ",
"                                                                                                                                ",
"                                                                                                                                ",
"                                                                                                                                ",
"                                                                                                                                ",
"                                                                                                                                ",
"                                                                                                                                ",
"                                                                                                                                ",
"                                                                                                                                ",
"                                                                                                                                ",
"                                                                                                                                ",
"                                                                                                                                ",
"                                                                                                                                "
};
