/* XPM */
static char *_[] = {
/* columns rows colors chars-per-pixel */
"64 64 234 2 ",
"   c #000000",
".  c #090606",
"X  c #0A0807",
"o  c #0C0A09",
"O  c #130C0B",
"+  c #180C0B",
"@  c #141212",
"#  c #1D1514",
"$  c #1F1917",
"%  c #1C1B1B",
"&  c #2A110C",
"*  c #29130E",
"=  c #221917",
"-  c #2B1814",
";  c #231D1B",
":  c #361913",
">  c #30231E",
",  c #242424",
"<  c #2B2523",
"1  c #2E2B2A",
"2  c #362B29",
"3  c #31302F",
"4  c #353332",
"5  c #3C3634",
"6  c #3E3B3A",
"7  c #7B0D09",
"8  c #7E150D",
"9  c #761B12",
"0  c #4E251F",
"q  c #51221A",
"w  c #6F271B",
"e  c #472D29",
"r  c #523028",
"t  c #413431",
"y  c #563C37",
"u  c #792C24",
"i  c #6C3128",
"p  c #42403F",
"a  c #70443C",
"s  c #454343",
"d  c #4B4645",
"f  c #4D4C4B",
"g  c #524F4E",
"h  c #55504E",
"j  c #575454",
"k  c #5D5B5B",
"l  c #72534D",
"z  c #76524D",
"x  c #646363",
"c  c #6B6A6A",
"v  c #737273",
"b  c #7B7979",
"n  c #8D0503",
"m  c #8D0A07",
"M  c #8D0B08",
"N  c #970906",
"B  c #84130D",
"V  c #911811",
"C  c #991B14",
"Z  c #A2170D",
"A  c #8A251B",
"S  c #932C1B",
"D  c #A8291A",
"F  c #B12814",
"G  c #B82B16",
"H  c #B7351C",
"J  c #892C22",
"K  c #883628",
"L  c #9B3A29",
"P  c #913E33",
"I  c #AA3C2A",
"U  c #B53827",
"Y  c #CD1F0A",
"T  c #D11E09",
"R  c #CF210B",
"E  c #D1230C",
"W  c #DB280D",
"Q  c #CB2A15",
"!  c #D22B13",
"~  c #D92911",
"^  c #C6391B",
"/  c #D33316",
"(  c #DA3313",
")  c #DC3A15",
"_  c #D3341B",
"`  c #DD3619",
"'  c #D53A1E",
"]  c #DA3B1A",
"[  c #E2240A",
"{  c #E42A0E",
"}  c #E82B0D",
"|  c #E42F11",
" . c #E63718",
".. c #CD3D23",
"X. c #D43D23",
"o. c #D83F23",
"O. c #E33D23",
"+. c #8B4838",
"@. c #954130",
"#. c #B94328",
"$. c #AA4734",
"%. c #AF4F33",
"&. c #B14538",
"*. c #CD421F",
"=. c #DE421D",
"-. c #E2441B",
";. c #E6471A",
":. c #E54B1E",
">. c #EA531E",
",. c #CA4625",
"<. c #D44225",
"1. c #DB4323",
"2. c #DD4A26",
"3. c #D6452B",
"4. c #D94729",
"5. c #D44A2D",
"6. c #DB4B2B",
"7. c #DE512C",
"8. c #C94C3A",
"9. c #D54B34",
"0. c #D54A35",
"q. c #D94D33",
"w. c #C5573D",
"e. c #DB5837",
"r. c #D4523D",
"t. c #E44C23",
"y. c #E84923",
"u. c #E65226",
"i. c #E95424",
"p. c #EC5B25",
"a. c #E4542B",
"s. c #E85729",
"d. c #E6582C",
"f. c #E95B2C",
"g. c #E15633",
"h. c #E95230",
"j. c #E45933",
"k. c #EA5F31",
"l. c #E45B39",
"z. c #EE622C",
"x. c #EB6234",
"c. c #EB653A",
"v. c #EC6A3D",
"b. c #F16B36",
"n. c #F2733B",
"m. c #F4783C",
"M. c #935247",
"N. c #875C56",
"B. c #A75045",
"V. c #B75648",
"C. c #B35C51",
"Z. c #8D6051",
"A. c #97655B",
"S. c #BA6558",
"D. c #8A6D65",
"F. c #976D62",
"G. c #93776F",
"H. c #B66C64",
"J. c #A87369",
"K. c #B47871",
"L. c #C95444",
"P. c #D65541",
"I. c #D65946",
"U. c #D65C49",
"Y. c #D95B48",
"T. c #E05F44",
"R. c #D8654C",
"E. c #DF7144",
"W. c #C5695C",
"Q. c #D56454",
"!. c #D86859",
"~. c #D96A5C",
"^. c #CA745E",
"/. c #D87A5B",
"(. c #E56643",
"). c #EC6D42",
"_. c #EA6F4C",
"`. c #ED7145",
"'. c #ED744C",
"]. c #F37B49",
"[. c #E37453",
"{. c #EE7A53",
"}. c #ED7F5A",
"|. c #F07F58",
" X c #D96F61",
".X c #C5796A",
"XX c #DC7364",
"oX c #DD7A6A",
"OX c #C67D74",
"+X c #DF7E71",
"@X c #E37D60",
"#X c #83817F",
"$X c #B28476",
"%X c #F4804C",
"&X c #EF815D",
"*X c #F48655",
"=X c #F1845D",
"-X c #F48A5D",
";X c #DA856B",
":X c #C78178",
">X c #DB8578",
",X c #DF9678",
"<X c #EF8561",
"1X c #E58A6B",
"2X c #F18663",
"3X c #F28B65",
"4X c #F18D6B",
"5X c #F59166",
"6X c #F5946E",
"7X c #E28676",
"8X c #E79278",
"9X c #F29574",
"0X c #F49875",
"qX c #F29679",
"wX c #F49B7C",
"eX c #868586",
"rX c #969596",
"tX c #B99994",
"yX c #B8A7A4",
"uX c #B3AEAD",
"iX c #C58A85",
"pX c #C59587",
"aX c #DB9B8A",
"sX c #E89F89",
"dX c #F39E83",
"fX c #DEA796",
"gX c #F4A186",
"hX c #F4A38A",
"jX c #F9A789",
"kX c #E6AB98",
"lX c #F6AD95",
"zX c #EEB19E",
"xX c #F6B29C",
"cX c #C7C4C5",
/* pixels */
"                                                                                                                                ",
"                                                                                                                                ",
"                                          .                                                                                     ",
"                                    o ; 4 o                                         . ; % @                                     ",
"                                X % 4 x s                                             ; 5 p 4 X                                 ",
"                              . , 2 k c @                                             O 2 s x f o                               ",
"                              , 4 s b g                                                 2 5 j #Xs                               ",
"                            o s 6 k eXs                   O # ; ; % O                 . < t p #XeX@                             ",
"                            % g 6 k rXd             = y Z.S././././..XA.a ;             4 p p v rX1                             ",
"                            , d 5 j rXv % X f c 3 M.^._.v.x.f.z.z.b.b.].&X;XZ.2 c j . @ 5 5 p v rX4                             ",
"                            , 6 1 p c v d s eXtX XR.s.:.>.;.>.>.>.p.z.z.n.].-X1XJ.c f 3 1 4 p v b 1                             ",
"                            @ p , 1 p f 4 s yX X4.-.;.;.;.>.i.p.z.z.b.n.].].%X*XE.D.#X3 4 p k v x %                             ",
"                            . 6 1 % 2 1 4 b >Xo.] -.-.;.i.i.p.f.z.b.`.].-X3X9X9X5X,XuX#Xh k c x f .                             ",
"                              , s % % 1 eXJ.9.X.y.1.u.u.i.i.f.z.x.v.).{.3XqXgXhXgX0X:XcXb x k k ,                               ",
"                                4 6 % c v &.q.6.2.g.g.d.d.f.f.x.b.v.`.=X3XqXhXzXxXjX;XyXuXj j p .                               ",
"                                . 5 k G.+.r.P.q.e.l.g.j.d.f.f.x.x.v.`.}.3XqXhXxXxXlX0XK.cXb t @                                 ",
"                                  % rXJ.L.!.I.9.e.g.g.d.d.s.f.k.x.c.).{.<X4XdXlXzXxXgX1XpXyX,                                   ",
"                                  % uXW.Q.Q.r.q.e.g.g.d.u.d.f.x.x.x.).'.}.4XdXlXxXxXhXgX;XuX,                                   ",
"                                  . d >XW.P $.,.9.e.6.a.u.i.f.f.k.x.).'.2X4XqXgXsXaX:XsXkXj .                                   ",
"                                    ; :XXXP u u L #.6.u.u.d.s.f.k.x.).'.}.<X7XOXiXpX.XjXkX2                                     ",
"                                    2 >X XL.S K u u L ,.2.i.u.z.k.x.v.'.!.W..XK.iXH.8XgXxXp .                                   ",
"                                    y >X~.P.U J K u u w S ,.s.f.k.k.e.w.C.H.OXOXS..XgXwXxXz                                     ",
"                                    l +X!.r...D A A J 9 9 9 H u.k.3.I B.S.H.K.S.C.hXgXwXxXz                                     ",
"                                    z +XQ.r.9.3.F S S S A 8 9 a.a.H I V.V.S.S.C.,XjXwX0XjXD.                                    ",
"                                    z +XQ.0.q.4.4.......^ ^ ,.s.f.a.q.T.E./.@X9XgXhXdX0XjXF.                                    ",
"                                    N.+XU.0.3.4.t.t.t.t.t.>.p.s.d.k.c.).{.&X4XqXgXgXwX9XjXF.                                    ",
"                                    N.oXY.0.4.4.2.1.2.t.:.u.u.u.d.k.x.).{.}.2XqXgXgXwX6XjXJ..                                   ",
"                                  . F.XXY.0.4.4.1.] =.-.:.u.i.u.s.f.x.).{.}.}.}.dXgXwX6XwX$X.                                   ",
"                & : - o           2 OXXXP.9.4.4.] Z F ) ;.;.>.u.i.i.x.v.).R.U ..dXgXwX5X0XkXe .         . * : *                 ",
"              + #.v.[.V.+.i 0 0 u L.XXY.P.0.4.6.<.N 9 V G ^ ^ F F H *.,.U J C Q qXgXwX3X6XjX;XP r 0 i P #.<.j.^.=               ",
"              - ,.a.4X2Xx.u. .` ~ _ o.9.q.0.o.q.a.N B 7 B B B 8 8 B B B B M N ..wXgX0X5X3X6X5Xh.;.t. . . . .s.&X> .             ",
"              O $.' g.{.'.f.-.` _ _ E ! ` X.o.0.j.F n n n N M M M M m m m n N T.gXhX0X-X%X%X2Xy.} } { { W ( t.w.+               ",
"                r L.] a.(.l.y.o.4._ T Y E / X.<.g.<.N N N C S G U D C C N N G =XdXhX0X*Xm.`.'.O. .} } [ W ` l.r                 ",
"                . i P.` O.4.y.t.o.! T R Q / ' 1.7.j.^ Z D ^ 1.d.x.(.8.I D G Y.9XhXgX0X*Xm.n.l. .} [ [ [ ` g.+..                 ",
"                  X z 0.` ( ` / ! E Y R ! / ' <.6.g.a.2.7.d.f.f.x.).{.}.[.{.=X9XhXgX0X*Xm.b.k.| [ [ W  .T.M.O                   ",
"                      z L.X.E T Y R Y ! Q _ X.<.4.a.e.d.u.d.s.f.x.c.`.}.2X2X4XdXgXgXwX-Xm.b.l.| [ W O.I.a O                     ",
"                      X e B.8.Q Q Y Q X.9.3.3.3.6.g.a.a.d.u.f.f.k.c.).{.&X2X9XdXhXhXqX-X].n.c. . .q.V.e                         ",
"                          o e M.L.8.P.Y.Y.9.3.4.6.7.6.a.u.d.f.f.k.c.).{.2X2X9XdXhXhXwX3X%X%X`.e.B.r @                           ",
"                              X e OXoX!.U.r.3.6.6.6.g.i.a.u.f.f.k.c.).{.}.4XqXdXhXhXwX5X3X0X,Xy O                               ",
"                                  N.+X XU.9.3.3.6.a.q.a.u.u.f.f.k.c.).{.2X4XqXdXhXjXwX6X0XlXJ.                                  ",
"                                  N.+X XU.0.3.3.6.7.a.a.t.d.f.f.k.c.).{.<X8XqXdXhXhXdX0X0XlXF.                                  ",
"                                  A.+X XI.0.3.3.4.6.6.a.t.u.u.f.k.c.).{.<X4XqXdXhXhXdX0X0XlX$X.                                 ",
"                                o J.+X!.I.q.3.3.4.6.6.2.t.u.d.f.x.x.).{.<X4XqXdXhXhXgXwX0XjXpXO                                 ",
"                                # OXoX!.P.3.3.1.4.2.t.t.t.u.u.f.s.x.).{.<X4X4XdXhXgXgX0X0XjXfX,                                 ",
"                                1 >XXXQ.P.3.3.o.1.1.2.2.2.:.:.s.d.x.).'.=X4XqXqXdXhXgXwX0XgXzXt                                 ",
"                                y >X~.Q.9.3.X.1.1.=.=.=.:.:.i.i.s.x.v.'.&X4X4XqXdXdXgXwX0XwXxXl                                 ",
"                                l >X~.I.9.1.X.] ,. .=.=.=.:.:.i.s.x.v.'.}.<X4XqXdXdXdXdX0X0XxXD.                                ",
"                                A.+XQ.r.<.X.X.' ] ) ) ) =.;.>.>.:.u.x.`.{.&X3X9XqXdXdXwX0X0XjX$X.                               ",
"                              o K.XXU.9.X._ _ _ ( ( ( ( ( -.;.,.^ :.s.n.`.v.).&X9XqXqXwX0X6XwXpXo                               ",
"                              @ K.!.P.X._ Q / ! ( ^ w w ^ =.I * & S =.e.K w #.c.=X3X<X4X0X0XwXaX=                               ",
"                              = .XU.5._ _ L S ^ H :     : q +     X q :     : I e.%.%.c.5X6X6XsX<                               ",
"                              # W.L.5._ I +   * +                             + = . + @.`.-X*X,X<                               ",
"                              # V.9.P K -                                             - P +.e.;X=                               ",
"                              X @.$.X                                                     o $.%.O                               ",
"                                : :                                                         - :                                 ",
"                                                                                                                                ",
"                                                                                                                                ",
"                                                                                                                                ",
"                                                                                                                                ",
"                                                                                                                                ",
"                                                                                                                                ",
"                                                                                                                                ",
"                                                                                                                                ",
"                                                                                                                                "
};
