/* XPM */
static char *_[] = {
/* columns rows colors chars-per-pixel */
"64 64 155 2 ",
"   c #000000",
".  c #0C0305",
"X  c #0C0C0C",
"o  c #100507",
"O  c #140608",
"+  c #19070A",
"@  c #1C080C",
"#  c #220A0E",
"$  c #250B10",
"%  c #2A0C12",
"&  c #330E15",
"*  c #371117",
"=  c #351118",
"-  c #3B1219",
";  c #373636",
":  c #44141D",
">  c #49141D",
",  c #4B1720",
"<  c #4E1922",
"1  c #531522",
"2  c #541924",
"3  c #5A1B26",
"4  c #5E1D28",
"5  c #651729",
"6  c #641D2A",
"7  c #6C192E",
"8  c #6F1A30",
"9  c #741B31",
"0  c #7C1C34",
"q  c #6B202D",
"w  c #6C2333",
"e  c #652A39",
"r  c #752232",
"t  c #7A2434",
"y  c #772D3D",
"u  c #555555",
"i  c #73434F",
"p  c #764450",
"a  c #7C4653",
"s  c #655358",
"d  c #606060",
"f  c #696061",
"g  c #6F6F6F",
"h  c #766467",
"j  c #7B666B",
"k  c #747575",
"l  c #7E7F7F",
"z  c #811F35",
"x  c #832436",
"c  c #852538",
"v  c #8E273B",
"b  c #822A39",
"n  c #8B2A3B",
"m  c #94263D",
"M  c #9A263F",
"N  c #932C3E",
"B  c #98293F",
"V  c #9D2740",
"C  c #972C40",
"Z  c #9C2B41",
"A  c #873242",
"S  c #9E3043",
"D  c #953A4A",
"F  c #9A3B4D",
"G  c #A12742",
"H  c #A32A43",
"J  c #AC2A46",
"K  c #B52B4A",
"L  c #BE2E4D",
"P  c #A53146",
"I  c #A93147",
"U  c #AC3349",
"Y  c #A23A4D",
"T  c #B3364C",
"R  c #B9374E",
"E  c #B9384F",
"W  c #A83B50",
"Q  c #BD3950",
"!  c #C12E4F",
"~  c #C32F50",
"^  c #C33A53",
"/  c #CB3D56",
"(  c #CF3E58",
")  c #D13F59",
"_  c #A44C5C",
"`  c #B04054",
"'  c #B5475A",
"]  c #B3485A",
"[  c #845C66",
"{  c #9D5663",
"}  c #BC4E61",
"|  c #B45969",
" . c #BD5A6B",
".. c #8D6C73",
"X. c #84777A",
"o. c #89767A",
"O. c #8C7B7F",
"+. c #A16E76",
"@. c #B2717C",
"#. c #D5415B",
"$. c #DB425D",
"%. c #E0435F",
"&. c #CB4960",
"*. c #D24A62",
"=. c #D34F68",
"-. c #C25E70",
";. c #E54561",
":. c #EA4763",
">. c #E74A67",
",. c #EE4865",
"<. c #F24967",
"1. c #F94967",
"2. c #F54A68",
"3. c #FE4D6D",
"4. c #EC526F",
"5. c #FF506F",
"6. c #EA5E7A",
"7. c #FE5473",
"8. c #FF5877",
"9. c #F75A78",
"0. c #FE5A7A",
"q. c #997C81",
"w. c #B27983",
"e. c #FF6382",
"r. c #FE6887",
"t. c #8C8D8D",
"y. c #9C8489",
"u. c #949494",
"i. c #9E9E9E",
"p. c #A08388",
"a. c #BE838D",
"s. c #A38B90",
"d. c #A19699",
"f. c #BA979D",
"g. c #A8A8A8",
"h. c #B0AFAF",
"j. c #B3B5B4",
"k. c #B7B8B8",
"l. c #BDBCBD",
"z. c #C1AEB2",
"x. c #CAB1B5",
"c. c #CAB5B9",
"v. c #C4BBBD",
"b. c #C8BBBE",
"n. c #C3C3C3",
"m. c #CAC9C9",
"M. c #D1C7C8",
"N. c #D4D3D3",
"B. c #DCDDDD",
"V. c #DFE0E0",
"C. c #E1E2E2",
"Z. c #E7E8E8",
"A. c #EBEDEC",
"S. c #F4F4F4",
"D. c #FEFEFE",
/* pixels */
"                                                                                                                                ",
"                                                                                                                                ",
"                                                                                                                                ",
"                                                                                                                                ",
"                                                                                                                                ",
"                                                                                                                                ",
"                                                                                                                                ",
"                                                                                                                                ",
"                                                                              .                                                 ",
"                                                                O : b q                                                         ",
"                                                            & n #.<.,.-       2 t .                                             ",
"                                  + o                   . q ;.5.3.5.T .       n 3.q                                             ",
"                                > I N q % .             4 <.3.3.3.3.6       . T 5.>.-                                           ",
"                            * n T I S U E +           . ^ 3.2.U :.$.#       # $.3.0.W                                           ",
"                        . t :.2.:.3.#.#.#.@         . $ %.1.U c <.I         2 3.3.5.4.=                                         ",
"                      # U 2.^ H v ;.3.$.<.:         # U 2.( M J 3.q         S ;.,.5.e.w                                         ",
"                    $ ^ ;.Z H K H ,.I x %.N         @ $.5.I J T <.*       # #.Z E 3.r.A                                         ",
"                  @ E ) B K L H ) E V J J ;.-         Z <.J J E #.O       6 ;.m I 5.e.y                                         ",
"                . S ^ M L ! K J ( m L ! m #.Q @     . h _ n B P Z @ .   . ^ Q V T 3.9.<                                         ",
"                6 Q M L L L H ^ Z K ! L K N >.U +   ; Z.v.] 2.2.>.$.U q 2 ^ H H ^ 3.E o                                         ",
"              # I H L L R L H I G ! ! ! ! J B <.T > y.D.D.z.&.3.3.3.3.3.;.U m m ,.3.R #                                         ",
"              6 H K K L ! K Z B ! L ! R ! ! H B R / x.D.S.k...*.^ %.3.3.1.1.^ b } ` S +               O O .                     ",
"            O r 9 > & & 0 M v K ! ! ! L ! L ! m T *.c.D.g.u t.q.N / :.*. .@.f.b.V.O.+               O U Q t q #                 ",
"            o # .       . 1 1 1 1 z K ! L L K J ;.x s.D.t.X l v.D +.p.f j.D.D.D.D.i.              $ P 2.T N P U %               ",
"                          .     . . & M ! ! G / 3.r s C.A.h.B.w.| A.k g u.S.D.D.D.u.        . % n %.:.U P E T N @               ",
"                                      # M ! V <.3.r d.k.n.m.q./ -.A.d X k D.D.D.D....   . - Z :.2.^ V M Q I Z $.<               ",
"                                        % V I 3.:.w h.A.B.N.b.a.{ m.N.t.B.D.D.D.M.' 3 2 I 2.2.^ B J L G / Z m ( I               ",
"                                          $ H 5.) 7 j o.N.D.D.D.V.h.V.D.D.D.D.M. .:.R 3.2.^ Z G L L ! H ^ B L H #.O             ",
"                                            N 5.R 7 7 8 y ..v.A.D.S.l.k.m.n.X.F %.2.P R H G K ! L ! L H T H ! M #.=             ",
"                                            t 3.T 9 0 0 0 9 9 a y.n.A.Z.C.v.e 5 N :.m J L ! ! ! L L L Z V K ! J U 2             ",
"                                            2 3.( 8 0 0 9 9 9 0 9 w p q.N.[ 7 C 2.;.V ! ! ! ! ! ! ! J N M ! ! L Z 4             ",
"                                            + #.1.N 9 9 c P c 5 9 9 9 e i 7 x ,.8.*.G K G V J L ! ! G t J ! L R B 3             ",
"                                            . n 3.,.C x :.3.^ ^ ) I 0 5 7 9 $.3.r.F 1 % o o # 1 G ! z x ~ ~ ~ ! G >             ",
"                                        % t I n I 3.3.$.T ^ $.3.5.5.:./ m Q 3.8.6.-             + z 5 z 9 7 x J G %             ",
"                                      . U b % . O N 2.5.3.$.E T Q ) / T ) 3.7.r.A                 o + o       # 5 O             ",
"                                      . U %         2 Q 2.3.3.<.*.) ) <.8.8.7.Y O                                 .             ",
"                                    . = #.-           O , C / <.3.3.3.3.9.=.t .                                                 ",
"                                . q E :.$.-                 O = 2 C n q > +                                                     ",
"                                O n ^ P #                         q b                                                           ",
"                                  o : #                           & Q @                                                         ",
"                                                                  . P 4                                                         ",
"                                                                    4 U .                                                       ",
"                                                                    @ #.3                                                       ",
"                                                                    O ^ 2.t                                                     ",
"                                                                    + #.#.T @                                                   ",
"                                                                      N I q .                                                   ",
"                                                                      + @ .                                                     ",
"                                                                                                                                ",
"                                                                                                                                ",
"                                                                                                                                ",
"                                                                                                                                ",
"                                                                                                                                ",
"                                                                                                                                ",
"                                                                                                                                ",
"                                                                                                                                ",
"                                                                                                                                ",
"                                                                                                                                ",
"                                                                                                                                ",
"                                                                                                                                ",
"                                                                                                                                ",
"                                                                                                                                ",
"                                                                                                                                ",
"                                                                                                                                ",
"                                                                                                                                "
};
