/* XPM */
static char *_[] = {
/* columns rows colors chars-per-pixel */
"64 64 114 2 ",
"   c #000000",
".  c #0A0507",
"X  c #0D0609",
"o  c #10070A",
"O  c #13090B",
"+  c #1A0A0E",
"@  c #1E0D10",
"#  c #200C0F",
"$  c #250F13",
"%  c #2C0F13",
"&  c #2E1013",
"*  c #341215",
"=  c #3D1216",
"-  c #3D1318",
";  c #1E1A2A",
":  c #261C2A",
">  c #2C1C2A",
",  c #3B1E29",
"<  c #262230",
"1  c #312937",
"2  c #312A38",
"3  c #441619",
"4  c #4A171A",
"5  c #4E191C",
"6  c #54191B",
"7  c #5D1B1D",
"8  c #651D1E",
"9  c #6E1E1E",
"0  c #711F1F",
"q  c #7C201F",
"w  c #431F2A",
"e  c #611D20",
"r  c #6D1F21",
"t  c #45202A",
"y  c #4B212A",
"u  c #56222A",
"i  c #51353F",
"p  c #62242A",
"a  c #722022",
"s  c #7D2120",
"d  c #7F2825",
"f  c #75262B",
"g  c #7B272A",
"h  c #45424F",
"j  c #6D5B64",
"k  c #832322",
"l  c #8C2322",
"z  c #842926",
"x  c #80272A",
"c  c #86282B",
"v  c #88282A",
"b  c #962420",
"n  c #9A2521",
"m  c #942728",
"M  c #942929",
"N  c #9B2B2A",
"B  c #A12722",
"V  c #A62824",
"C  c #AC2A26",
"Z  c #A22C2A",
"A  c #AB2D2A",
"S  c #B12C27",
"D  c #B52E2A",
"F  c #BB2F2A",
"G  c #AC3B2D",
"H  c #B0372D",
"J  c #BF302B",
"K  c #B23A2E",
"L  c #BD392E",
"P  c #C02E2A",
"I  c #C0302B",
"U  c #C13B2E",
"Y  c #AD4B30",
"T  c #B84330",
"R  c #BF5C35",
"E  c #C1432E",
"W  c #C44D31",
"Q  c #C65332",
"!  c #C55B34",
"~  c #C95B34",
"^  c #C76235",
"/  c #C96135",
"(  c #CA6A37",
")  c #C96E38",
"_  c #C57139",
"`  c #CB7B3B",
"'  c #BB504E",
"]  c #C44642",
"[  c #C84B46",
"{  c #CD843C",
"}  c #CE8A3E",
"|  c #D0913F",
" . c #CF9C41",
".. c #D19340",
"X. c #D19B41",
"o. c #D3A443",
"O. c #D2AB44",
"+. c #D3B246",
"@. c #D4BD48",
"#. c #D5C449",
"$. c #D6CA4B",
"%. c #D8CF4C",
"&. c #D7D24C",
"*. c #D8D64D",
"=. c #D9DD4F",
"-. c #D9E14F",
";. c #D9E250",
":. c #84828B",
">. c #8F8E96",
",. c #929299",
"<. c #DECBCC",
"1. c #F4DCDB",
"2. c #EFF0F1",
"3. c #FBFDFD",
/* pixels */
"                                                                                                                                ",
"                                                                                                                                ",
"                                                                                                                                ",
"                                                                                                                                ",
"                                                                                                                                ",
"                                                                                                                                ",
"                                                                                                                                ",
"                                                                                                                                ",
"                                                                                                                                ",
"                                                                                                                                ",
"                                                                                                                                ",
"                                                                                                                                ",
"                                                      . @ = 6 7 7 6 = + .                                                       ",
"                                                  X - d Y _ } X....._ Y d = .                                                   ",
"                                                & z ! o.&.=.;.;.;.;.=.%.o.R z %                                                 ",
"                                              5 G ..*.;.;.;.=.=.=.=.;.;.;.&.} G 4                                               ",
"                                            w T O.;.;.&.O.} ) ^ ~ ( ..+.*.;.;.o.K 4 .                                           ",
"                                          - L o.;.*. .! I F P I F P F U ! X.*.;.o.H *                                           ",
"                                        + N } -.$.( I P I I I I P P I I F I ( $.;.` M O                                         ",
"                                        8 Q %.#.Q I I I I I I I I I I I I I P ~ #.%.W 7                                         ",
"                                      @ N | &.! P I I I I I I I I I I I I I I F ~ &.} N O                                       ",
"                                      5 U @.` P I I J c g D I J I I I v g D I I I { +.U 3                                       ",
"                                      a ~ O.U I I I M : ; f I I I I N > ; f I I P E O.Q r                                       ",
"                                    . l ( ` P I I I p ; ; t F I I J p ; ; w D I P P ` / k .                                     ",
"                                    X m / W F I I F t ; ; > A I I F w ; ; > Z I I P Q ~ l .                                     ",
"                                    o k E U P I I D , ; ; : M I J D , ; ; : N I J I U E k o                                     ",
"                                    X 0 S I I I P S i h < : N I I D i h < : N I J I J D q .                                     ",
"                                    . 0 B F I J P ' <.2.:.> A I J ] <.2.:.> Z I J J F B 9 .                                     ",
"                                      7 b V J J P [ 1.3.>.t F J P [ 1.3.,.t F J J J V n 6                                       ",
"                                      = b n J I P P ' j 1 z I J P P ' j 2 x I I J F n b *                                       ",
"                                      O s B J I I P J m v F I I P P J M c F I I I J n s o                                       ",
"                                        4 n J J I I P I I I I I I I I I I I I I J J n 4                                         ",
"                                        o s P I I J I J I J I J I I J J J I I I I J s o                                         ",
"                                          * D I I I I I J N I J I I N F I J J I I D &                                           ",
"                                          O Z I I I I I J f v J F c f J I I I I I Z O                                           ",
"                                          O Z I I J I J J Z u y y u A I I I J I I N O                                           ",
"                                          O A I I J J J I I D N N D I I J I I J I Z O                                           ",
"                                          o N I I J J I I J I I I I I I I I I I I n O                                           ",
"                                          o l D D B D I I I I I I I I I I P D D D l X                                           ",
"                                          X q n n n F I I J I I I I I I I F V b n q o                                           ",
"                                          o s n b n D I I I I J I I I I I I C b b 0 O                                           ",
"                                          o q n b b A I J I I I I I I I I I C b b k O                                           ",
"                                          . 9 n n a M I I J J J I P I I P I n b n 8 .                                           ",
"                                            + 6 6 $ s J J F J J I F D F P D w 6 6 +                                             ",
"                                                  . 9 B V n F I I J V B V b &                                                   ",
"                                                  . 9 b b n S I I F n b b b &                                                   ",
"                                                  . 9 n b n n C C B n b b b %                                                   ",
"                                                    8 n b b b b n l k b b b $                                                   ",
"                                                    & k l e s b b l 5 q l 7 .                                                   ",
"                                                      O @ O 0 n b l @ O # .                                                     ",
"                                                            5 b n 9 X                                                           ",
"                                                            X 3 4 +                                                             ",
"                                                                                                                                ",
"                                                                                                                                ",
"                                                                                                                                ",
"                                                                                                                                ",
"                                                                                                                                ",
"                                                                                                                                ",
"                                                                                                                                ",
"                                                                                                                                ",
"                                                                                                                                ",
"                                                                                                                                ",
"                                                                                                                                ",
"                                                                                                                                "
};
