/* XPM */
static char *_[] = {
/* columns rows colors chars-per-pixel */
"64 64 111 2 ",
"   c #000000",
".  c #090507",
"X  c #0E0709",
"o  c #0C080B",
"O  c #10070A",
"+  c #13080B",
"@  c #1A0B0E",
"#  c #1E0D10",
"$  c #250D11",
"%  c #290F12",
"&  c #2E1013",
"*  c #331115",
"=  c #3E1417",
"-  c #1B1827",
";  c #1E1B2A",
":  c #261C2A",
">  c #2D1C2A",
",  c #3B1E29",
"<  c #2B2635",
"1  c #451519",
"2  c #4B171A",
"3  c #40181D",
"4  c #4B191D",
"5  c #54191D",
"6  c #5C1C1E",
"7  c #621C1D",
"8  c #6C1E1E",
"9  c #731F1F",
"0  c #7B201F",
"q  c #471F29",
"w  c #481F29",
"e  c #631C20",
"r  c #6A1F21",
"t  c #44202A",
"y  c #48202A",
"u  c #5D232A",
"i  c #6B2222",
"p  c #6C252A",
"a  c #742020",
"s  c #7C2120",
"d  c #73262B",
"f  c #7E272B",
"g  c #5B3F48",
"h  c #53515D",
"j  c #654E57",
"k  c #862221",
"l  c #8C2322",
"z  c #86282A",
"x  c #8C2D29",
"c  c #962420",
"v  c #9A2521",
"b  c #942B2A",
"n  c #9C2A29",
"m  c #A22723",
"M  c #A62824",
"N  c #AB2A25",
"B  c #A22C2A",
"V  c #AC2D2A",
"C  c #B12B27",
"Z  c #B32E2B",
"A  c #BB2F2A",
"S  c #BE302B",
"D  c #B63B2E",
"F  c #BB3D2E",
"G  c #C02E2A",
"H  c #C0302B",
"J  c #C23B2D",
"K  c #B2422F",
"L  c #BB4630",
"P  c #BD4B31",
"I  c #B55633",
"U  c #C1412F",
"Y  c #C44D31",
"T  c #C55232",
"R  c #C85232",
"E  c #C65934",
"W  c #C95C34",
"Q  c #C76335",
"!  c #C86336",
"~  c #C46837",
"^  c #CB6B37",
"/  c #CA7539",
"(  c #CB7D3B",
")  c #B84744",
"_  c #C54945",
"`  c #C84844",
"'  c #C9803C",
"]  c #CF8B3E",
"[  c #CF9640",
"{  c #D09740",
"}  c #D19C41",
"|  c #D3A744",
" . c #D2AB44",
".. c #D4B246",
"X. c #D4B847",
"o. c #D4BE48",
"O. c #D5C249",
"+. c #D7CE4C",
"@. c #D7D24C",
"#. c #D8D54D",
"$. c #D8DA4E",
"%. c #D9E14F",
"&. c #D9E250",
"*. c #86858E",
"=. c #8B8A91",
"-. c #908E95",
";. c #E7D5D6",
":. c #E7D7D8",
">. c #F0D2D2",
",. c #F4F5F6",
"<. c #F8F9F9",
/* pixels */
"                                                                                                                                ",
"                                                                                                                                ",
"                                                                                                                                ",
"                                                                                                                                ",
"                                                                                                                                ",
"                                                                                                                                ",
"                                                                                                                                ",
"                                                                                                                                ",
"                                                                                                                                ",
"                                                                                                                                ",
"                                                                                                                                ",
"                                                                                                                                ",
"                                                                                                                                ",
"                                                                                                                                ",
"                                                                                                                                ",
"                                                                                                                                ",
"                                                                                                                                ",
"                                                      o $ 1 e i i 6 1 $ o                                                       ",
"                                                  O w x I ( } | | } ( I x 1 o                                                   ",
"                                                * x Q ..#.&.&.&.&.&.&.#. .~ x *                                                 ",
"                                            . 5 K } $.&.&.%.$.#.$.%.%.&.&.$.} K 5 .                                             ",
"                                          . 5 P X.&.&.@.| ( ~ E E ! ( | @.&.&. .L 5                                             ",
"                                          1 F ..&.#.[ Y H H H H G G A H T [ #.&. .D 3                                           ",
"                                        # B [ &.o.Q H H H H S H H H H H G H ! O.%.] n #                                         ",
"                                        r E @.o.Y G G H H H H H H H H H H H G T O.+.T 7                                         ",
"                                      # V { +.T A G H H H H H H H H H H H H G G E +.] B @                                       ",
"                                      4 J O.( G H H S f p Z H H H H A f p Z H H H ' X.J 2                                       ",
"                                    . s W  .J G H H x : ; d H H H H b : ; p H H H J  .R a                                       ",
"                                    o l ^ / G H H H u ; ; , Z H G G u - ; , Z H H G / ! k .                                     ",
"                                    O l W Y G H H A t ; ; : B H H Z q - ; : B H H G T W l o                                     ",
"                                    O k U J A H H Z , - ; : n H H Z , - ; : n H H G J U k o                                     ",
"                                    o s C H G G H Z g h < : n H H Z j h < : n H H G G C 9 X                                     ",
"                                    . 8 v A H H H _ :.<.=.> V H G _ ;.<.-.> V G H H A v 8 .                                     ",
"                                      5 v M S S A ` >.,.*.y A H G ` >.,.=.w A H H H M c 5                                       ",
"                                      * c v A H H H ) j < z H H G H ) j < z H S H A v c &                                       ",
"                                      X 0 m S H H H G m b A H H H H G n b A H H H A v 9 X                                       ",
"                                        1 v S H H H H H H H H H H H H H G H H H H A v 1                                         ",
"                                        X a S H H H H H S S H H H H S H H H H H H H a o                                         ",
"                                          & Z H H H H H S b S S H S b S H H H H H V &                                           ",
"                                          O B H H G H H S d f Z Z f d G H H H H H n +                                           ",
"                                          + B H H H H H H V u y y u V H H H H H H B +                                           ",
"                                          + B H H S S H H H S B B S H H H H H S H B +                                           ",
"                                          + B H G A A H H H H H H H H H H H G G H n O                                           ",
"                                          X l C C m A H H H H H H H H H H H C C C k o                                           ",
"                                          X s v c v A H S H H H H H H H H S M c v k o                                           ",
"                                          + 0 v c v A G H G H H H H H H H H M c c 0 O                                           ",
"                                          X k c v l N H H H H H H H H S H H M c v 9 +                                           ",
"                                          . 7 v v r x H H H H H S H S H H S n c v 7 .                                           ",
"                                            + 2 2 # s S G C S H H S C S H V 4 2 2 +                                             ",
"                                                  . i m M v A H H S m v m c &                                                   ",
"                                                    8 c c c V S H A v c c c &                                                   ",
"                                                  . 9 v c v v N N v c c c c &                                                   ",
"                                                  . 7 v v c c c v c s c v l $                                                   ",
"                                                    % s k 5 a v v k 3 9 l 5 .                                                   ",
"                                                      + + o a v c l @ + @ .                                                     ",
"                                                            2 c c 8 o                                                           ",
"                                                            . * = +                                                             ",
"                                                                                                                                ",
"                                                                                                                                ",
"                                                                                                                                ",
"                                                                                                                                ",
"                                                                                                                                ",
"                                                                                                                                ",
"                                                                                                                                "
};
