/* XPM */
static char * frame_8_xpm[] = {
"128 128 6 1",
" 	c #000000",
".	c #000000",
"+	c #FEE761",
"@	c #FFFFFF",
"#	c #F77622",
"$	c #FEAE34",
"                                                                                                                                ",
"                                                                                                                                ",
"                                                                                                                                ",
"                                                                                                                                ",
"                                                                                                                                ",
"                                                                                                                                ",
"                                                                                                                                ",
"                                                                                                                                ",
"                                                                                                                                ",
"                                                                                                                                ",
"                     ######################################################################################                     ",
"                   ############################################$$$$+++++++++++++$$$$#########################                   ",
"                  ####$$$$$$$$$$$$$$$$$$$$$$$$$$$$$$$$$$$$$$$$$+++++++++++++++++++++$$$$$$$$$$$$$$$$$$$$$$####                  ",
"                  ##$$$$$$$$$$$$$$$$$$$$$$$$$$$$$$$$$$$$$$$$$++++@@@@@@@@@@@@@@@@@+++++$$$$$$$$$$$$$$$$$$$$$##                  ",
"                 ##$$$$+++++++++++++++++++++++++++++++++++++++++@@@@@@@@@@@@@@@@@@@++++++++++++++++++++++$$$$##                 ",
"                ###$$$++++++++++++++++++++++++++++++++++++++++++@@@@@@@@@@@@@@@@@@@+++++++++++++++++++++++$$$###                ",
"               ###$$$+++++++++++++++++++++++++++++++++++++++++++@@@@@@@@@@@@@@@@@@@++++++++++++++++++++++++$$$###               ",
"              ####$$$+++++++++++++++++++++++++++++++++++++++++++@@@@@@@@@@@@@@@@@@@++++++++++++++++++++++++$$$####              ",
"            ####$$$$$$$$$++$$$$$$$$$$$$$$$$$$$$$$$$$$$$$$$$++++++@@@@@@@@@@@@@@@@@++++++$$$$$$$$$$$$$+++$$$$$$$$####            ",
"           ###$$$$$$$$$$$$$$$$$$$$$$$$$$$$$$$$$$$$$$$$$$$$$$$+++++++@@@@@@@@@@@+++++++$$$$$$$$$$$$$$$$$$$$$$$$$$$$###           ",
"           ##$$$$$$$$$$$$$$$$$$$$$$$$$$$$$$$$$$$$$$$$$$$$$$$$$$$+++++++++++++++++++$$$$$$$$$$$$$$$$$$$$$$$$$$$$$$$$##           ",
"          ###$$$++$$$$$$$$$$$$$$$$$$$$$$$$$$$$$$$$$$$$$$$$$$$$$$$$$$$$$$$$$$$$$$$$$$$$$$$$$$$$$$$$$$$$$$$$$$$$++$$$###          ",
"          ##$$$+++$$$$$#########################################$$$$$$$$$$$$$$$$$$$#######################$$$$+++$$$##          ",
"          ##$$+++++$$$####################################################################################$$$$++++$$##          ",
"          ##$$+++++$$$$###################################################################################$$$+++++$$##          ",
"          ##$$+++++$$$$$#####################$$$##########################################################$$$+++++$$##          ",
"          ##$$+++++$$$$$$$$$$$$$$$$$$$$$$$$$$$$$$$$$$$$$$$$$$$$$$$$$$$$$$$$$######$$$$$$$$$$$$$$$$$$######$$$+++++$$##          ",
"          ##$$+++++$$$$$$$$$$$$$$$$$$$$$$$$$$$$$$$$$$$$$$$$$$$$$$$$$$$$$$$$$$$$$$$$$$$$$$$$$$$$$$$$$$#####$$$$++++$$##          ",
"          ##$$++++++$$$$$$$$$$$$$$$$$$$$$$$$$$$$$$$$$$$$$$$$$$$$$$$$$$$$$$$$$$$$$$$$$$$$$$$$$$$$$$$$$$####$$$$++++$$##          ",
"          ##$$++++++$$$$$$$$$$$$$$$$$$$$$$$$$$$$$$$$$$$$$$$$$$$$$$$$$$$$$$$$$$++++$$$$$$$$$$$$$$$$$$$$####$$$$++++$$##          ",
"          ##$$++++++$$$$$$$$$$$$$$$$$$$$$$$$$$$$$$$$$$$$$$$$$$$$$$$$$$$$$$$$++++++++$$$$$$$$$$$$$$$$$$####$$$$++++$$##          ",
"          ##$$++++++$$$$$$$$$$$$$$$$$$$$$$$$$$$$$$$$$$$$$$$$$$$$$$$$$$$$$$$$+++++++++$$$$$$$$$$$$$$$$$####$$$$++++$$##          ",
"          ##$$++++++$$$$$$$$$$$$$$$$$$$$$$$$$$$$$$$$$$++$$$$$$$$$$$$$$$$$$$++++@@+++++$$$$$$$$$$$$$$$$####$$$$++++$$##          ",
"          ##$$++++++$$$$$$$$$$$$$$$$$$$$$$$$$$$$$$$$$++++$$$$$$$$$$$$$$$$$$++@@@@@@+++$$$$$$$$$$$$$$$$####$$$$++++$$##          ",
"          ##$$++++++$$$$$$$$$$$$$$$$$$$$$$$$$$##$$$$++++++$$$$$$$$$$$$$$$$$++@@@@@@+++$$$$$$$$$$$$$$$$####$$$$++++$$##          ",
"          ##$$++++++$$$$$$$$$$$$$$$$$$$$$$$$$####$$$++++++$$$$$$$$$$$$$$$$$++@@@@@@@++$$$$$$$$$$$$$$$$####$$$$++++$$##          ",
"          ##$$++++++$$$$$$$$$$$$$$$$$$$$$$$$$####$$$+++++++$$$$$$$$$$$$$$$++@@@@@@@@++$$$$$$$$$$$$$$$$####$$$$++++$$##          ",
"          ##$$++++++$$$$$$$$$$$$$$$$$$$$$$$$$####$$$++++++++$$$$$$$$$$$$$$++@@@@@@@@++$$$$$$$$$$$$$$$$####$$$$++++$$##          ",
"          ##$$++++++$$$$$$$$$$$$$$$$$$$$$$$$$####$$$++++++++++++++++$$$$$+++@@@@@@@@++$$$$$$$$$$$$$$$$####$$$$++++$$##          ",
"          ##$$++++++$$$$$$$$$$$$$$$$$$$$$$$$$####$$$++++++++++++++++++++++++@@@@@@@@++$$$$$$$$$$$$$$$$####$$$$++++$$##          ",
"          ##$$++++++$$$$$$$$$$$$$$$$$$$$$$$$$####$$$++++++++++++++++++++++++@@@@@@@@++$$$$$$$$$$$$$$$$####$$$$++++$$##          ",
"          ##$$++++++$$$$$$$$$$$$$$$$$$$$$$$$$$##$$$$++++++++++++++++++++++++@@@@@@@@+++$$$$$$$$$$$$$$$####$$$$++++$$##          ",
"          ##$$++++++$$$$$$$$$$$$$$$$$$$$$$$$$$$$$$$$++++++++++++++++++++++++@@@@@@@@+++++$$$$$$$$$$$$$####$$$$++++$$##          ",
"          ##$$++++++$$$$$$$$$$$$$$$$$$$$$$$$$$$$$$$++++++++++++++++++++++++++@@@@@@@@++++++$$$$$$$$$$$####$$$$++++$$##          ",
"          ##$$++++++$$$$$$$$$$$$$$$$$$$$$$$$$$$$$$++++++++++++++++++++++++++++@@@@@@@@++++++$$$$$$$$$$####$$$$++++$$##          ",
"          ##$$++++++$$$$$$$$$$$$$$$$$$$$$$$$$$$$++++++++++++++++++++++++++++++++@@@@@@@@++++$$$$$$$$$$####$$$$++++$$##          ",
"          ##$$++++++$$$$$$$$$$$$$$$$$$$$#$$$$$$++++++++++++++++++++++++++++++++++@@@@@@@@+++$$$$$$$$$$####$$$$++++$$##          ",
"          ##$$++++++$$$$$$$$$$$$$$$$$$$###$$$$++++++++++++++++++++++++++++++++++++@@@@@@@@+++$$$$$$$$$####$$$$++++$$##          ",
"          ##$$++++++$$$$$$$$$$$$$$$$$$$###$$$$++++++++++++++++++++++++++++++++++++@@@@@@@@+++$$$$$$$$$####$$$$++++$$##          ",
"          ##$$++++++$$$$$$$$$$$$$$$$$$####$$$$++++++++++++++++++++++++++++++++++++@@@@@@@@+++$$$$$$$$$####$$$$++++$$##          ",
"          ##$$++++++$$$$$$$$$$$$$$$$$$####$$$$++++++++++++++++++++++++++++++++++++@@@@@@@@+++$$$$$$$$$####$$$$++++$$##          ",
"          ##$$++++++$$$$$$$$$$$$$$$$$$####$$$$+++++++++++++++$$$$$$$$+++++++++++++@@@@@@@@+++$$$$$$$$$####$$$$++++$$##          ",
"          ##$$++++++$$$$$$$$$$$$$$$$$$####$$$$++++++++++++++$$$$$$$$$$++++++++++++@@@@@@@@+++$$$$$$$$$####$$$$++++$$##          ",
"          ##$$++++++$$$$$$$$$$$$$$$$$$####$$$$+++++++++++++$$$$$$$$$$$$+++++++++++@@@@@@@@+++$$$$$$$$$####$$$$++++$$##          ",
"          ##$$++++++$$$$$$$$$$$$$$$$$$####$$$$++++++++++++$$$$$$$$$$$$$+++++++++++@@@@@@@@+++$$$$$$$$$####$$$$++++$$##          ",
"          ##$$++++++$$$$$$$$$$$$$$$$$$####$$$$++++++++++++$$$$$$$##$$$$$+++++++++++@@@@@@+++$$$$$$$$$$####$$$$++++$$##          ",
"          ##$$++++++$$$$$$$$$$$$$$$$$$####$$$$++++++++++++$$$$$$$##$$$$$++++++++++++@@@@@+++$$$$$$$$$$####$$$$++++$$##          ",
"          ##$$++++++$$$$$$$$$$$$$$$$$$####$$$$++++++++++++$$$$$$$$$$$$$$$$++++++++++++++++++$$$$$$$$$$####$$$$++++$$##          ",
"          ##$$++++++$$$$$$$$$$$$$$$$$$####$$$$++++++++++++$$$$$$$$$$$$$$$$$$$$$$+++++++++++$$$$$$$$$$$####$$$$++++$$##          ",
"          ##$$++++++$$$$$$$$$$$$$$$$$$####$$$$++++++++++++$$$$$$$$$$$$$$$$$$$$$$$+++++++++$$$$$$$$$$$$####$$$$++++$$##          ",
"          ##$$++++++$$$$$$$$$$$$$$$$$$####$$$$++++++++++++$$$$$$$$$$$$$$$$$$$$$$$$$++++++$$$$$$$$$$$$$####$$$$++++$$##          ",
"          ##$$++++++$$$$$$$$$$$$$$$$$$####$$$$+++++++++++++$$$$$$$$$$$$$$$$$$$$$$$++++++++$$$$$$$$$$$$####$$$$++++$$##          ",
"          ##$$++++++$$$$$$$$$$$$$$$$$$####$$$$++++++++++++++$$$$$$$$$$$$$$$$$$$$$++++++++++$$$$$$$$$$$####$$$$++++$$##          ",
"          ##$$++++++$$$$$$$$$$$$$$$$$$####$$$$+++++++++++++++++$$++++$$$$$$$$$$++++++++++++$$$$$$$$$$$####$$$$++++$$##          ",
"          ##$$++++++$$$$$$$$$$$$$$$$$$####$$$$+++++++++++++++++++++++++++++++++++++++@@@++++$$$$$$$$$$####$$$$++++$$##          ",
"          ##$$++++++$$$$$$$$$$$$$$$$$$####$$$$+++++++++++++++++++++++++++++++++++++@@@@@@+++$$$$$$$$$$####$$$$++++$$##          ",
"          ##$$++++++$$$$$$$$$$$$$$$$$$$###$$$$+++++++++++++++++++++++++++++++++++++@@@@@@@++$$$$$$$$$$####$$$$++++$$##          ",
"          ##$$++++++$$$$$$$$$$$$$$$$$$$###$$$$++++++++++++++++++++++++++++++++++++@@@@@@@@+++$$$$$$$$$####$$$$++++$$##          ",
"          ##$$++++++$$$$$$$$$$$$$$$$$$$$#$$$$$++++++++++++++++++++++++++++++++++++@@@@@@@@+++$$$$$$$$$####$$$$++++$$##          ",
"          ##$$++++++$$$$$$$$$$$$$$$$$$$$$$$$$$$+++++++++++++++++++++++++++++++++++@@@@@@@@+++$$$$$$$$$####$$$$++++$$##          ",
"          ##$$++++++$$$$$$$$$$$$$$$$$$$$$$$$$$$$$+++++++++++++$$$$$$$+++++++++++++@@@@@@@@+++$$$$$$$$$####$$$$++++$$##          ",
"          ##$$++++++$$$$$$$$$$$$$$$$$$$$$$$$$$$$$$$$$$$$$$$$$$$$$$$$$$++++++++++++@@@@@@@@+++$$$$$$$$$####$$$$++++$$##          ",
"          ##$$++++++$$$$$$$$$$$$$$$$$$$$$$$$$$$$$$$$$$$$$$$$$$$$$$$$$$$+++++++++++@@@@@@@@+++$$$$$$$$$####$$$$++++$$##          ",
"          ##$$++++++$$$$$$$$$$$$$$$$$$$$$$$$$$$$$$$$$$$$$$$$$$$$$$$$$$$+++++++++++@@@@@@@@+++$$$$$$$$$####$$$$++++$$##          ",
"          ##$$++++++$$$$$$$$$$$$$$$$$$$$$$$$$$$$$$$$$$$$$$$$$$$$####$$$+++++++++++@@@@@@@@+++$$$$$$$$$####$$$$++++$$##          ",
"          ##$$++++++$$$$$$$$$$$$$$$$$$$$$$$$$$$$$$$$$$$$$$$$$$$$####$$$+++++++++++@@@@@@@@+++$$$$$$$$$####$$$$++++$$##          ",
"          ##$$++++++$$$$$$$$$$$$$$$$$$$$$$$$$$$$$$+++$$$$$$$$$$#####$$$+++++++++++@@@@@@@@+++$$$$$$$$$####$$$$++++$$##          ",
"          ##$$++++++$$$$$$$$$$$$$$$$$$$$$$$$$$$+++++++++$$$$$$$#####$$$+++++++++++@@@@@@@@+++$$$$$$$$$####$$$$++++$$##          ",
"          ##$$++++++$$$$$$$$$$$$$$$$$$$$$$$$$$+++++++++++$$$$$$$####$$$+++++++++++@@@@@@@@+++$$$$$$$$$####$$$$++++$$##          ",
"          ##$$++++++$$$$$$$$$$$$$$$$$$$###$$$$++++++++++++$$$$$$$##$$$$+++++++++++@@@@@@@@+++$$$$$$$$$####$$$$++++$$##          ",
"          ##$$++++++$$$$$$$$$$$$$$$$$$$###$$$$++++++++++++$$$$$$$$$$$$$+++++++++++@@@@@@@@+++$$$$$$$$$####$$$$++++$$##          ",
"          ##$$++++++$$$$$$$$$$$$$$$$$$####$$$$+++++++++++++$$$$$$$$$$$++++++++++++@@@@@@@@+++$$$$$$$$$####$$$$++++$$##          ",
"          ##$$++++++$$$$$$$$$$$$$$$$$$####$$$$++++++++++++++$$$$$$$$$$++++++++++++@@@@@@@@+++$$$$$$$$$####$$$$++++$$##          ",
"          ##$$++++++$$$$$$$$$$$$$$$$$$####$$$$+++++++++++++++++$$$$$++++++++++++++@@@@@@@@+++$$$$$$$$$####$$$$++++$$##          ",
"          ##$$++++++$$$$$$$$$$$$$$$$$$####$$$$++++++++++++++++++++++++++++++++++++@@@@@@@@+++$$$$$$$$$####$$$$++++$$##          ",
"          ##$$++++++$$$$$$$$$$$$$$$$$$$###$$$$++++++++++++++++++++++++++++++++++++@@@@@@@@+++$$$$$$$$$####$$$$++++$$##          ",
"          ##$$++++++$$$$$$$$$$$$$$$$$$$###$$$$++++++++++++++++++++++++++++++++++++@@@@@@@@+++$$$$$$$$$####$$$$++++$$##          ",
"          ##$$++++++$$$$$$$$$$$$$$$$$$$###$$$$$+++++++++++++++++++++++++++++++++++@@@@@@@+++$$$$$$$$$$####$$$$++++$$##          ",
"          ##$$++++++$$$$$$$$$$$$$$$$$$$$$$$$$$$$+++++++++++++++++++++++++++++++++@@@@@@@@+++$$$$$$$$$$####$$$$++++$$##          ",
"          ##$$++++++$$$$$$$$$$$$$$$$$$$$$$$$$$$$$+++++++++++++++++++++++++++++@@@@@@@@@+++++$$$$$$$$$$####$$$$++++$$##          ",
"          ##$$++++++$$$$$$$$$$$$$$$$$$$$$$$$$$$$$$$++++++++++++++++++++++++++@@@@@@@@++++++$$$$$$$$$$$####$$$$++++$$##          ",
"          ##$$++++++$$$$$$$$$$$$$$$$$$$$$$$$$$$$$$$+++++++++++++++++++++++++@@@@@@@@++++++$$$$$$$$$$$$####$$$$++++$$##          ",
"          ##$$++++++$$$$$$$$$$$$$$$$$$$$$$$$$$$$$$$$++++++++++++++++++++++++@@@@@@@@++++$$$$$$$$$$$$$$####$$$$++++$$##          ",
"          ##$$++++++$$$$$$$$$$$$$$$$$$$$$$$$$###$$$$++++++++++++++++++++++++@@@@@@@@+++$$$$$$$$$$$$$$$####$$$$++++$$##          ",
"          ##$$++++++$$$$$$$$$$$$$$$$$$$$$$$$$####$$$++++++++++++++++++++++++@@@@@@@@++$$$$$$$$$$$$$$$$####$$$$++++$$##          ",
"          ##$$++++++$$$$$$$$$$$$$$$$$$$$$$$$$####$$$+++++++++++++++++$$$++++@@@@@@@@++$$$$$$$$$$$$$$$$####$$$$++++$$##          ",
"          ##$$++++++$$$$$$$$$$$$$$$$$$$$$$$$$####$$$++++++++++$$$$$$$$$$$+++@@@@@@@@++$$$$$$$$$$$$$$$$####$$$$++++$$##          ",
"          ##$$++++++$$$$$$$$$$$$$$$$$$$$$$$$$####$$$++++++++$$$$$$$$$$$$$$++@@@@@@@@++$$$$$$$$$$$$$$$$####$$$$++++$$##          ",
"          ##$$++++++$$$$$$$$$$$$$$$$$$$$$$$$$####$$$+++++++$$$$$$$$$$$$$$$++@@@@@@@@++$$$$$$$$$$$$$$$$####$$$$++++$$##          ",
"          ##$$++++++$$$$$$$$$$$$$$$$$$$$$$$$$###$$$$++++++$$$$$$$$$$$$$$$$$++@@@@@@+++$$$$$$$$$$$$$$$$####$$$$++++$$##          ",
"          ##$$++++++$$$$$$$$$$$$$$$$$$$$$$$$$$##$$$$$++++$$$$$$$$$$$$$##$$$++@@@@@@+++$$$$$$$$$$$$$$$$####$$$$++++$$##          ",
"          ##$$++++++$$$$$$$$$$$$$$$$$$$$$$$$$$$$$$$$$+++$$$$$$$$$$$$$$###$$+++@@@@++++$$$$$$$$$$$$$$$$####$$$+++++$$##          ",
"          ##$$++++++$$$$$$$$$$$$$$$$$$$$$$$$$$$$$$$$$$$$$$$$$$$$$$$$$$##$$$$+++++++++$$$$$$$$$$$$$$$$$####$$$+++++$$##          ",
"          ##$$++++++$$$$$$$$$$$$$$$$$$$$$$$$$$$$$$$$$$$$$$$$$$$$$$$$$$$$$$$$+++++++++$$$$$$$$$$$$$$$$$####$$$$++++$$##          ",
"          ##$$++++++$$$$$$$$$$$$$$$$$$$$$$$$$$$$$$$$$$$$$$$$$$$$$$$$$$$$$$$$++++++++$$$$$$$$$$$$$$$$$$$###$$$$++++$$##          ",
"          ##$$$+++++$$$$$$$$$$$$$$$$$$$$$$$$$$$$$$$$$$$$$$$$$$$$$$$$$$$$$$$++++++++$$$$$$$$$$$$$$$$$$$$$#$$$$$+++$$$##          ",
"          ###$$+++++$$$$$$$$$$$$$$$$$$$$$$$$$$$$$$$$$$$$$$$$$$$+++++++++++++++++++++$$$$$$$$$$$$$$$$$$$$$$$$$$++$$$###          ",
"           ##$$$$$$$$$$$$$$$$$$$$$$$$$$$$$$$$$$$$$$$$$$$$$$$$+++++++++++++++++++++++++$$$$$$$$$$$$$$$$$$$$$$$$$$$$$##           ",
"           ###$$$$$$$++++++++++++++++++++++++++++++++++++$+++++++++@@@@@@@@@@@@+++++++++++++++++++++$$$$$$$$$$$$$$###           ",
"            ####$$$$$++++++++++++++++++++++++++++++++++++++++++++@@@@@@@@@@@@@@@@@+++++++++++++++++++++++$$$$$$$####            ",
"              ###$$$$+++++++++++++++++++++++++++++++++++++++++++@@@@@@@@@@@@@@@@@@@++++++++++++++++++++++++$$$####              ",
"               ###$$$+++++++++++++++++++++++++++++++++++++++++++@@@@@@@@@@@@@@@@@@@++++++++++++++++++++++++$$$###               ",
"                ###$$+++++++++++++++++++++++++++++++++++++++++++@@@@@@@@@@@@@@@@@@@+++++++++++++++++++++++$$$###                ",
"                 ##$$$$+++++++++++++++++++++++++++++++++++++++++@@@@@@@@@@@@@@@@@@@++++++++++++++++++++++$$$$##                 ",
"                  ##$$$$$$$$$$$$$$$$$$$$$$$$$$$$$$$$$$$$$$$$$++++@@@@@@@@@@@@@@@@@+++++$$$$$$$$$$$$$$$$$$$$$##                  ",
"                  ####$$$$$$$$$$$$$$$$$$$$$$$$$$$$$$$$$$$$$$$$$+++++++++++++++++++++$$$$$$$$$$$$$$$$$$$$$$####                  ",
"                   ############################################$$$$+++++++++++++$$$$#########################                   ",
"                     ######################################################################################                     ",
"                                                                                                                                ",
"                                                                                                                                ",
"                                                                                                                                ",
"                                                                                                                                ",
"                                                                                                                                ",
"                                                                                                                                ",
"                                                                                                                                ",
"                                                                                                                                ",
"                                                                                                                                ",
"                                                                                                                                "};
